%TF.GenerationSoftware,KiCad,Pcbnew,10.0.3*%
%TF.CreationDate,2026-06-19T22:45:08+01:00*%
%TF.ProjectId,MRF-Pro-v8,4d52462d-5072-46f2-9d76-382e6b696361,rev?*%
%TF.SameCoordinates,Original*%
%TF.FileFunction,Copper,L1,Top*%
%TF.FilePolarity,Positive*%
%FSLAX46Y46*%
G04 Gerber Fmt 4.6, Leading zero omitted, Abs format (unit mm)*
G04 Created by KiCad (PCBNEW 10.0.3) date 2026-06-19 22:45:08*
%MOMM*%
%LPD*%
G01*
G04 APERTURE LIST*
G04 Aperture macros list*
%AMRoundRect*
0 Rectangle with rounded corners*
0 $1 Rounding radius*
0 $2 $3 $4 $5 $6 $7 $8 $9 X,Y pos of 4 corners*
0 Add a 4 corners polygon primitive as box body*
4,1,4,$2,$3,$4,$5,$6,$7,$8,$9,$2,$3,0*
0 Add four circle primitives for the rounded corners*
1,1,$1+$1,$2,$3*
1,1,$1+$1,$4,$5*
1,1,$1+$1,$6,$7*
1,1,$1+$1,$8,$9*
0 Add four rect primitives between the rounded corners*
20,1,$1+$1,$2,$3,$4,$5,0*
20,1,$1+$1,$4,$5,$6,$7,0*
20,1,$1+$1,$6,$7,$8,$9,0*
20,1,$1+$1,$8,$9,$2,$3,0*%
G04 Aperture macros list end*
%TA.AperFunction,ComponentPad*%
%ADD10R,1.700000X1.700000*%
%TD*%
%TA.AperFunction,ComponentPad*%
%ADD11O,1.700000X1.700000*%
%TD*%
%TA.AperFunction,SMDPad,CuDef*%
%ADD12RoundRect,0.150000X-0.625000X0.150000X-0.625000X-0.150000X0.625000X-0.150000X0.625000X0.150000X0*%
%TD*%
%TA.AperFunction,SMDPad,CuDef*%
%ADD13RoundRect,0.250000X-0.650000X0.350000X-0.650000X-0.350000X0.650000X-0.350000X0.650000X0.350000X0*%
%TD*%
%TA.AperFunction,SMDPad,CuDef*%
%ADD14R,1.100000X0.300000*%
%TD*%
%TA.AperFunction,SMDPad,CuDef*%
%ADD15R,3.100000X2.300000*%
%TD*%
%TA.AperFunction,ViaPad*%
%ADD16C,0.800000*%
%TD*%
%TA.AperFunction,Conductor*%
%ADD17C,0.250000*%
%TD*%
%TA.AperFunction,Conductor*%
%ADD18C,1.000000*%
%TD*%
%TA.AperFunction,Conductor*%
%ADD19C,0.500000*%
%TD*%
G04 APERTURE END LIST*
D10*
%TO.P,J2,1,Pin_1_1*%
%TO.N,Net-(J2-Pin_1)*%
X146050000Y-101600000D03*
D11*
%TO.P,J2,2,Pin_2_2*%
%TO.N,Net-(J2-Pin_2)*%
X143510000Y-101600000D03*
%TO.P,J2,3,Pin_3_3*%
%TO.N,unconnected-(J2-Pin_3-Pad3)*%
X140970000Y-101600000D03*
%TO.P,J2,4,Pin_4_4*%
%TO.N,unconnected-(J2-Pin_4-Pad4)*%
X138430000Y-101600000D03*
%TO.P,J2,5,Pin_5_5*%
%TO.N,Net-(J2-Pin_5)*%
X135890000Y-101600000D03*
%TO.P,J2,6,Pin_6_6*%
%TO.N,Net-(J2-Pin_6)*%
X133350000Y-101600000D03*
%TO.P,J2,7,Pin_7_7*%
%TO.N,unconnected-(J2-Pin_7-Pad7)*%
X130810000Y-101600000D03*
%TO.P,J2,8,Pin_8_8*%
%TO.N,unconnected-(J2-Pin_8-Pad8)*%
X128270000Y-101600000D03*
%TO.P,J2,9,Pin_9_9*%
%TO.N,unconnected-(J2-Pin_9-Pad9)*%
X125730000Y-101600000D03*
%TO.P,J2,10,Pin_10_10*%
%TO.N,unconnected-(J2-Pin_10-Pad10)*%
X123190000Y-101600000D03*
%TO.P,J2,11,Pin_11_11*%
%TO.N,/EN*%
X120650000Y-101600000D03*
%TO.P,J2,12,Pin_12_12*%
%TO.N,/VBAT*%
X118110000Y-101600000D03*
%TD*%
D12*
%TO.P,J4,1,Pin_1_1*%
%TO.N,/GND*%
X157672800Y-99115400D03*
%TO.P,J4,2,Pin_2_2*%
X157672800Y-100115400D03*
%TO.P,J4,3,Pin_3_3*%
X157672800Y-101115400D03*
%TO.P,J4,4,Pin_4_4*%
%TO.N,/EN*%
X157672800Y-102115400D03*
%TO.P,J4,5,Pin_5_5*%
%TO.N,Net-(J2-Pin_6)*%
X157672800Y-103115400D03*
%TO.P,J4,6,Pin_6_6*%
%TO.N,Net-(J2-Pin_5)*%
X157672800Y-104115400D03*
%TO.P,J4,7,Pin_7_7*%
%TO.N,/3V3_SW*%
X157672800Y-105115400D03*
%TO.P,J4,8,Pin_8_8*%
%TO.N,/3.3V*%
X157672800Y-106115400D03*
D13*
%TO.P,J4,MP*%
%TO.N,N/C*%
X160197800Y-97815400D03*
X160197800Y-107415400D03*
%TD*%
D10*
%TO.P,J1,1,Pin_1_1*%
%TO.N,unconnected-(J1-Pin_1-Pad1)*%
X107950000Y-121920000D03*
D11*
%TO.P,J1,2,Pin_2_2*%
%TO.N,/3.3V*%
X110490000Y-121920000D03*
%TO.P,J1,3,Pin_3_3*%
%TO.N,unconnected-(J1-Pin_3-Pad3)*%
X113030000Y-121920000D03*
%TO.P,J1,4,Pin_4_4*%
%TO.N,/GND*%
X115570000Y-121920000D03*
%TO.P,J1,5,Pin_5_5*%
%TO.N,unconnected-(J1-Pin_5-Pad5)*%
X118110000Y-121920000D03*
%TO.P,J1,6,Pin_6_6*%
%TO.N,unconnected-(J1-Pin_6-Pad6)*%
X120650000Y-121920000D03*
%TO.P,J1,7,Pin_7_7*%
%TO.N,unconnected-(J1-Pin_7-Pad7)*%
X123190000Y-121920000D03*
%TO.P,J1,8,Pin_8_8*%
%TO.N,unconnected-(J1-Pin_8-Pad8)*%
X125730000Y-121920000D03*
%TO.P,J1,9,Pin_9_9*%
%TO.N,unconnected-(J1-Pin_9-Pad9)*%
X128270000Y-121920000D03*
%TO.P,J1,10,Pin_10_10*%
%TO.N,unconnected-(J1-Pin_10-Pad10)*%
X130810000Y-121920000D03*
%TO.P,J1,11,Pin_11_11*%
%TO.N,unconnected-(J1-Pin_11-Pad11)*%
X133350000Y-121920000D03*
%TO.P,J1,12,Pin_12_12*%
%TO.N,unconnected-(J1-Pin_12-Pad12)*%
X135890000Y-121920000D03*
%TO.P,J1,13,Pin_13_13*%
%TO.N,unconnected-(J1-Pin_13-Pad13)*%
X138430000Y-121920000D03*
%TO.P,J1,14,Pin_14_14*%
%TO.N,Net-(J1-Pin_14)*%
X140970000Y-121920000D03*
%TO.P,J1,15,Pin_15_15*%
%TO.N,Net-(J1-Pin_15)*%
X143510000Y-121920000D03*
%TO.P,J1,16,Pin_16_16*%
%TO.N,unconnected-(J1-Pin_16-Pad16)*%
X146050000Y-121920000D03*
%TD*%
D14*
%TO.P,J3,1,Pin_1_1*%
%TO.N,/3V3_SW*%
X156034000Y-115761600D03*
%TO.P,J3,2,Pin_2_2*%
%TO.N,Net-(J1-Pin_14)*%
X156034000Y-115261600D03*
%TO.P,J3,3,Pin_3_3*%
%TO.N,Net-(J1-Pin_15)*%
X156034000Y-114761600D03*
%TO.P,J3,4,Pin_4_4*%
%TO.N,/GND*%
X156034000Y-114261600D03*
%TO.P,J3,5,Pin_5_5*%
X156034000Y-113761600D03*
%TO.P,J3,6,Pin_6_6*%
%TO.N,/VBAT*%
X156034000Y-113261600D03*
%TO.P,J3,7,Pin_7_7*%
%TO.N,Net-(J2-Pin_1)*%
X156034000Y-112761600D03*
%TO.P,J3,8,Pin_8_8*%
%TO.N,Net-(J2-Pin_2)*%
X156034000Y-112261600D03*
D15*
%TO.P,J3,MP*%
%TO.N,N/C*%
X157734000Y-117431600D03*
X157734000Y-110591600D03*
%TD*%
D16*
%TO.N,Net-(J2-Pin_5)*%
X147828000Y-104140000D03*
%TO.N,Net-(J2-Pin_6)*%
X150241000Y-103124000D03*
%TO.N,/EN*%
X152654000Y-102108000D03*
%TO.N,/GND*%
X157650000Y-114620000D03*
X157672800Y-101100000D03*
%TO.N,/3.3V*%
X153250000Y-107650000D03*
X113850000Y-118625000D03*
X152550000Y-106575000D03*
X117200000Y-118625000D03*
X121200000Y-118625000D03*
X124900000Y-118625000D03*
X153925000Y-106600000D03*
%TD*%
%TO.N,Net-(J2-Pin_1)*%
D17*
X158914000Y-112761600D02*
X159225600Y-112450000D01*
X156272400Y-109106800D02*
X156692600Y-108686600D01*
X146126200Y-101523800D02*
X146050000Y-101600000D01*
X158914000Y-112761600D02*
X156034000Y-112761600D01*
X159725000Y-108925000D02*
X159486600Y-108686600D01*
X159225600Y-112450000D02*
X159725000Y-112450000D01*
X159725000Y-112450000D02*
X159725000Y-108925000D01*
X151413895Y-109106800D02*
X156272400Y-109106800D01*
X146050000Y-101600000D02*
X146050000Y-103742905D01*
X146050000Y-103742905D02*
X151413895Y-109106800D01*
X156692600Y-108686600D02*
X159486600Y-108686600D01*
%TO.N,Net-(J2-Pin_2)*%
X143510000Y-101600000D02*
X143510000Y-102802081D01*
X152969519Y-112261600D02*
X156034000Y-112261600D01*
X143510000Y-102802081D02*
X152969519Y-112261600D01*
%TO.N,Net-(J2-Pin_5)*%
X147852600Y-104115400D02*
X157672800Y-104115400D01*
X147828000Y-104140000D02*
X147852600Y-104115400D01*
%TO.N,Net-(J2-Pin_6)*%
X150249600Y-103115400D02*
X157672800Y-103115400D01*
X150241000Y-103124000D02*
X150249600Y-103115400D01*
%TO.N,/EN*%
X152654000Y-102108000D02*
X152661400Y-102115400D01*
X152661400Y-102115400D02*
X157672800Y-102115400D01*
%TO.N,/VBAT*%
D18*
X154825000Y-113250000D02*
X152440235Y-113250000D01*
D17*
X156034000Y-113261600D02*
X154836600Y-113261600D01*
X156022400Y-113250000D02*
X156034000Y-113261600D01*
D18*
X134145200Y-117635200D02*
X118110000Y-101600000D01*
D17*
X154836600Y-113261600D02*
X154825000Y-113250000D01*
D18*
X148055035Y-117635200D02*
X134145200Y-117635200D01*
X152440235Y-113250000D02*
X148055035Y-117635200D01*
%TO.N,/GND*%
D17*
X157286600Y-114261600D02*
X156850000Y-113825000D01*
X157650000Y-114620000D02*
X157291600Y-114261600D01*
X156034000Y-113761600D02*
X156034000Y-114261600D01*
X157672800Y-99115400D02*
X157672800Y-100115400D01*
X157672800Y-100115400D02*
X157672800Y-101100000D01*
X157672800Y-101100000D02*
X157672800Y-101115400D01*
X157291600Y-114261600D02*
X157286600Y-114261600D01*
X156058000Y-113737600D02*
X156034000Y-113761600D01*
X157291600Y-114261600D02*
X156034000Y-114261600D01*
X156850000Y-113825000D02*
X156034000Y-113825000D01*
%TO.N,/3V3_SW*%
D19*
X154828600Y-118828600D02*
X156350000Y-120350000D01*
X154828600Y-116967000D02*
X154828600Y-118828600D01*
X161587600Y-116928000D02*
X161587600Y-106587600D01*
X160115400Y-105115400D02*
X157672800Y-105115400D01*
X161587600Y-106587600D02*
X160115400Y-105115400D01*
X156350000Y-120350000D02*
X158165600Y-120350000D01*
X158165600Y-120350000D02*
X161587600Y-116928000D01*
X155934000Y-115861600D02*
X154828600Y-116967000D01*
%TO.N,/3.3V*%
D17*
X110642400Y-121920000D02*
X110490000Y-121920000D01*
%TO.N,Net-(J1-Pin_14)*%
X140970000Y-122690000D02*
X141700000Y-123420000D01*
X140970000Y-121920000D02*
X140970000Y-122690000D01*
X146709000Y-123420000D02*
X154867400Y-115261600D01*
X141700000Y-123420000D02*
X146709000Y-123420000D01*
X154867400Y-115261600D02*
X156034000Y-115261600D01*
%TO.N,Net-(J1-Pin_15)*%
X144322400Y-119227600D02*
X148844000Y-119227600D01*
X143510000Y-120040000D02*
X144322400Y-119227600D01*
X143510000Y-121920000D02*
X143510000Y-120040000D01*
X153310000Y-114761600D02*
X156034000Y-114761600D01*
X148844000Y-119227600D02*
X153310000Y-114761600D01*
%TD*%
%TA.AperFunction,Conductor*%
%TO.N,/3.3V*%
G36*
X162070739Y-96286185D02*
G01*
X162116494Y-96338989D01*
X162127700Y-96390500D01*
X162127700Y-105766970D01*
X162108015Y-105834009D01*
X162055211Y-105879764D01*
X161986053Y-105889708D01*
X161922497Y-105860683D01*
X161916019Y-105854651D01*
X160593821Y-104532452D01*
X160593814Y-104532446D01*
X160520129Y-104483212D01*
X160520129Y-104483213D01*
X160470891Y-104450313D01*
X160334317Y-104393743D01*
X160334307Y-104393740D01*
X160189320Y-104364900D01*
X160189318Y-104364900D01*
X159072300Y-104364900D01*
X159005261Y-104345215D01*
X158959506Y-104292411D01*
X158948300Y-104240900D01*
X158948300Y-103899713D01*
X158948299Y-103899698D01*
X158945398Y-103862832D01*
X158945397Y-103862826D01*
X158911636Y-103746624D01*
X158899544Y-103705002D01*
X158899542Y-103704998D01*
X158883884Y-103678522D01*
X158866700Y-103610799D01*
X158883884Y-103552278D01*
X158899542Y-103525801D01*
X158899544Y-103525798D01*
X158945398Y-103367969D01*
X158948300Y-103331094D01*
X158948300Y-102899706D01*
X158945398Y-102862831D01*
X158944965Y-102861341D01*
X158899545Y-102705006D01*
X158899544Y-102705002D01*
X158895083Y-102697459D01*
X158883884Y-102678522D01*
X158866700Y-102610799D01*
X158883884Y-102552278D01*
X158899542Y-102525801D01*
X158899544Y-102525798D01*
X158933305Y-102409591D01*
X158945397Y-102367973D01*
X158945398Y-102367967D01*
X158948300Y-102331094D01*
X158948300Y-101899706D01*
X158945398Y-101862831D01*
X158899544Y-101705002D01*
X158883884Y-101678522D01*
X158866700Y-101610799D01*
X158883884Y-101552278D01*
X158899542Y-101525801D01*
X158899544Y-101525798D01*
X158945398Y-101367969D01*
X158948300Y-101331094D01*
X158948300Y-100899706D01*
X158945398Y-100862831D01*
X158899544Y-100705002D01*
X158897845Y-100702129D01*
X158883884Y-100678522D01*
X158866700Y-100610799D01*
X158883884Y-100552278D01*
X158899542Y-100525801D01*
X158899544Y-100525798D01*
X158941871Y-100380109D01*
X158945397Y-100367973D01*
X158945398Y-100367967D01*
X158948300Y-100331094D01*
X158948300Y-99899706D01*
X158945398Y-99862831D01*
X158899544Y-99705002D01*
X158883884Y-99678522D01*
X158866700Y-99610799D01*
X158883884Y-99552278D01*
X158899542Y-99525801D01*
X158899544Y-99525798D01*
X158945398Y-99367969D01*
X158948300Y-99331094D01*
X158948300Y-98899706D01*
X158948300Y-98899581D01*
X158967985Y-98832542D01*
X159020789Y-98786787D01*
X159089947Y-98776843D01*
X159137394Y-98794041D01*
X159228466Y-98850214D01*
X159395003Y-98905399D01*
X159497791Y-98915900D01*
X160897808Y-98915899D01*
X161000597Y-98905399D01*
X161167134Y-98850214D01*
X161316456Y-98758112D01*
X161440512Y-98634056D01*
X161532614Y-98484734D01*
X161587799Y-98318197D01*
X161598300Y-98215409D01*
X161598299Y-97415392D01*
X161587799Y-97312603D01*
X161532614Y-97146066D01*
X161440512Y-96996744D01*
X161316456Y-96872688D01*
X161167134Y-96780586D01*
X161000597Y-96725401D01*
X161000595Y-96725400D01*
X160897810Y-96714900D01*
X159497798Y-96714900D01*
X159497781Y-96714901D01*
X159395003Y-96725400D01*
X159395000Y-96725401D01*
X159228468Y-96780585D01*
X159228463Y-96780587D01*
X159079142Y-96872689D01*
X158955089Y-96996742D01*
X158862987Y-97146063D01*
X158862986Y-97146066D01*
X158807801Y-97312603D01*
X158807801Y-97312604D01*
X158807800Y-97312604D01*
X158797300Y-97415383D01*
X158797300Y-98215401D01*
X158797301Y-98215417D01*
X158803828Y-98279303D01*
X158791058Y-98347996D01*
X158743178Y-98398881D01*
X158675388Y-98415801D01*
X158617350Y-98398638D01*
X158593400Y-98384474D01*
X158558198Y-98363656D01*
X158558196Y-98363655D01*
X158558194Y-98363654D01*
X158400373Y-98317802D01*
X158400367Y-98317801D01*
X158363501Y-98314900D01*
X158363494Y-98314900D01*
X156982106Y-98314900D01*
X156982098Y-98314900D01*
X156945232Y-98317801D01*
X156945226Y-98317802D01*
X156787406Y-98363654D01*
X156787403Y-98363655D01*
X156645937Y-98447317D01*
X156645929Y-98447323D01*
X156529723Y-98563529D01*
X156529717Y-98563537D01*
X156446055Y-98705003D01*
X156446054Y-98705006D01*
X156400202Y-98862826D01*
X156400201Y-98862832D01*
X156397300Y-98899698D01*
X156397300Y-99331101D01*
X156400201Y-99367967D01*
X156400202Y-99367973D01*
X156446053Y-99525793D01*
X156461718Y-99552281D01*
X156478898Y-99620006D01*
X156461718Y-99678519D01*
X156446053Y-99705006D01*
X156400202Y-99862826D01*
X156400201Y-99862832D01*
X156397300Y-99899698D01*
X156397300Y-100331101D01*
X156400201Y-100367967D01*
X156400202Y-100367973D01*
X156446053Y-100525793D01*
X156461718Y-100552281D01*
X156478898Y-100620006D01*
X156461718Y-100678519D01*
X156446053Y-100705006D01*
X156400202Y-100862826D01*
X156400201Y-100862832D01*
X156397300Y-100899698D01*
X156397300Y-101331096D01*
X156397732Y-101336587D01*
X156399273Y-101356171D01*
X156384910Y-101424547D01*
X156335860Y-101474304D01*
X156275656Y-101489900D01*
X153360761Y-101489900D01*
X153293722Y-101470215D01*
X153273079Y-101453580D01*
X153228038Y-101408538D01*
X153228034Y-101408535D01*
X153080553Y-101309990D01*
X153080540Y-101309983D01*
X152916667Y-101242106D01*
X152916658Y-101242103D01*
X152742694Y-101207500D01*
X152742691Y-101207500D01*
X152565309Y-101207500D01*
X152565306Y-101207500D01*
X152391341Y-101242103D01*
X152391332Y-101242106D01*
X152227459Y-101309983D01*
X152227446Y-101309990D01*
X152079965Y-101408535D01*
X152079961Y-101408538D01*
X151954538Y-101533961D01*
X151954535Y-101533965D01*
X151855990Y-101681446D01*
X151855983Y-101681459D01*
X151788106Y-101845332D01*
X151788103Y-101845341D01*
X151753500Y-102019304D01*
X151753500Y-102019309D01*
X151753500Y-102196691D01*
X151753500Y-102196693D01*
X151753499Y-102196693D01*
X151782346Y-102341708D01*
X151776119Y-102411300D01*
X151733256Y-102466477D01*
X151667367Y-102489722D01*
X151660729Y-102489900D01*
X150931762Y-102489900D01*
X150864723Y-102470215D01*
X150844081Y-102453581D01*
X150815038Y-102424538D01*
X150815034Y-102424535D01*
X150667553Y-102325990D01*
X150667540Y-102325983D01*
X150503667Y-102258106D01*
X150503658Y-102258103D01*
X150329694Y-102223500D01*
X150329691Y-102223500D01*
X150152309Y-102223500D01*
X150152306Y-102223500D01*
X149978341Y-102258103D01*
X149978332Y-102258106D01*
X149814459Y-102325983D01*
X149814446Y-102325990D01*
X149666965Y-102424535D01*
X149666961Y-102424538D01*
X149541538Y-102549961D01*
X149541535Y-102549965D01*
X149442990Y-102697446D01*
X149442983Y-102697459D01*
X149375106Y-102861332D01*
X149375103Y-102861341D01*
X149340500Y-103035304D01*
X149340500Y-103035309D01*
X149340500Y-103212691D01*
X149340500Y-103212693D01*
X149340499Y-103212693D01*
X149366163Y-103341708D01*
X149359936Y-103411300D01*
X149317073Y-103466477D01*
X149251183Y-103489722D01*
X149244546Y-103489900D01*
X148502762Y-103489900D01*
X148435723Y-103470215D01*
X148415081Y-103453581D01*
X148402038Y-103440538D01*
X148402034Y-103440535D01*
X148254553Y-103341990D01*
X148254540Y-103341983D01*
X148090667Y-103274106D01*
X148090658Y-103274103D01*
X147916694Y-103239500D01*
X147916691Y-103239500D01*
X147739309Y-103239500D01*
X147739306Y-103239500D01*
X147565341Y-103274103D01*
X147565332Y-103274106D01*
X147401459Y-103341983D01*
X147401446Y-103341990D01*
X147253965Y-103440535D01*
X147253961Y-103440538D01*
X147128538Y-103565961D01*
X147063922Y-103662665D01*
X147047754Y-103676176D01*
X147035130Y-103693040D01*
X147021484Y-103698129D01*
X147010309Y-103707469D01*
X146989405Y-103710094D01*
X146969666Y-103717457D01*
X146955434Y-103714361D01*
X146940984Y-103716176D01*
X146921979Y-103707083D01*
X146901393Y-103702605D01*
X146881511Y-103687721D01*
X146877957Y-103686021D01*
X146873139Y-103681454D01*
X146711819Y-103520134D01*
X146678334Y-103458811D01*
X146675500Y-103432453D01*
X146675500Y-103074499D01*
X146695185Y-103007460D01*
X146747989Y-102961705D01*
X146799500Y-102950499D01*
X146947871Y-102950499D01*
X146947872Y-102950499D01*
X147007483Y-102944091D01*
X147142331Y-102893796D01*
X147257546Y-102807546D01*
X147343796Y-102692331D01*
X147394091Y-102557483D01*
X147400500Y-102497873D01*
X147400499Y-100702128D01*
X147394091Y-100642517D01*
X147392810Y-100639083D01*
X147343797Y-100507671D01*
X147343793Y-100507664D01*
X147257547Y-100392455D01*
X147257544Y-100392452D01*
X147142335Y-100306206D01*
X147142328Y-100306202D01*
X147007482Y-100255908D01*
X147007483Y-100255908D01*
X146947883Y-100249501D01*
X146947881Y-100249500D01*
X146947873Y-100249500D01*
X146947864Y-100249500D01*
X145152129Y-100249500D01*
X145152123Y-100249501D01*
X145092516Y-100255908D01*
X144957671Y-100306202D01*
X144957664Y-100306206D01*
X144842455Y-100392452D01*
X144842452Y-100392455D01*
X144756206Y-100507664D01*
X144756203Y-100507669D01*
X144707189Y-100639083D01*
X144665317Y-100695016D01*
X144599853Y-100719433D01*
X144531580Y-100704581D01*
X144503326Y-100683430D01*
X144389786Y-100569890D01*
X144217820Y-100444951D01*
X144028414Y-100348444D01*
X144028413Y-100348443D01*
X144028412Y-100348443D01*
X143826243Y-100282754D01*
X143826241Y-100282753D01*
X143826240Y-100282753D01*
X143664957Y-100257208D01*
X143616287Y-100249500D01*
X143403713Y-100249500D01*
X143355042Y-100257208D01*
X143193760Y-100282753D01*
X143092672Y-100315598D01*
X143044983Y-100331094D01*
X142991585Y-100348444D01*
X142802179Y-100444951D01*
X142630213Y-100569890D01*
X142479890Y-100720213D01*
X142354949Y-100892182D01*
X142350484Y-100900946D01*
X142302509Y-100951742D01*
X142234688Y-100968536D01*
X142168553Y-100945998D01*
X142129516Y-100900946D01*
X142125050Y-100892182D01*
X142000109Y-100720213D01*
X141849786Y-100569890D01*
X141677820Y-100444951D01*
X141488414Y-100348444D01*
X141488413Y-100348443D01*
X141488412Y-100348443D01*
X141286243Y-100282754D01*
X141286241Y-100282753D01*
X141286240Y-100282753D01*
X141124957Y-100257208D01*
X141076287Y-100249500D01*
X140863713Y-100249500D01*
X140815042Y-100257208D01*
X140653760Y-100282753D01*
X140552672Y-100315598D01*
X140504983Y-100331094D01*
X140451585Y-100348444D01*
X140262179Y-100444951D01*
X140090213Y-100569890D01*
X139939890Y-100720213D01*
X139814949Y-100892182D01*
X139810484Y-100900946D01*
X139762509Y-100951742D01*
X139694688Y-100968536D01*
X139628553Y-100945998D01*
X139589516Y-100900946D01*
X139585050Y-100892182D01*
X139460109Y-100720213D01*
X139309786Y-100569890D01*
X139137820Y-100444951D01*
X138948414Y-100348444D01*
X138948413Y-100348443D01*
X138948412Y-100348443D01*
X138746243Y-100282754D01*
X138746241Y-100282753D01*
X138746240Y-100282753D01*
X138584957Y-100257208D01*
X138536287Y-100249500D01*
X138323713Y-100249500D01*
X138275042Y-100257208D01*
X138113760Y-100282753D01*
X138012672Y-100315598D01*
X137964983Y-100331094D01*
X137911585Y-100348444D01*
X137722179Y-100444951D01*
X137550213Y-100569890D01*
X137399890Y-100720213D01*
X137274949Y-100892182D01*
X137270484Y-100900946D01*
X137222509Y-100951742D01*
X137154688Y-100968536D01*
X137088553Y-100945998D01*
X137049516Y-100900946D01*
X137045050Y-100892182D01*
X136920109Y-100720213D01*
X136769786Y-100569890D01*
X136597820Y-100444951D01*
X136408414Y-100348444D01*
X136408413Y-100348443D01*
X136408412Y-100348443D01*
X136206243Y-100282754D01*
X136206241Y-100282753D01*
X136206240Y-100282753D01*
X136044957Y-100257208D01*
X135996287Y-100249500D01*
X135783713Y-100249500D01*
X135735042Y-100257208D01*
X135573760Y-100282753D01*
X135472672Y-100315598D01*
X135424983Y-100331094D01*
X135371585Y-100348444D01*
X135182179Y-100444951D01*
X135010213Y-100569890D01*
X134859890Y-100720213D01*
X134734949Y-100892182D01*
X134730484Y-100900946D01*
X134682509Y-100951742D01*
X134614688Y-100968536D01*
X134548553Y-100945998D01*
X134509516Y-100900946D01*
X134505050Y-100892182D01*
X134380109Y-100720213D01*
X134229786Y-100569890D01*
X134057820Y-100444951D01*
X133868414Y-100348444D01*
X133868413Y-100348443D01*
X133868412Y-100348443D01*
X133666243Y-100282754D01*
X133666241Y-100282753D01*
X133666240Y-100282753D01*
X133504957Y-100257208D01*
X133456287Y-100249500D01*
X133243713Y-100249500D01*
X133195042Y-100257208D01*
X133033760Y-100282753D01*
X132932672Y-100315598D01*
X132884983Y-100331094D01*
X132831585Y-100348444D01*
X132642179Y-100444951D01*
X132470213Y-100569890D01*
X132319890Y-100720213D01*
X132194949Y-100892182D01*
X132190484Y-100900946D01*
X132142509Y-100951742D01*
X132074688Y-100968536D01*
X132008553Y-100945998D01*
X131969516Y-100900946D01*
X131965050Y-100892182D01*
X131840109Y-100720213D01*
X131689786Y-100569890D01*
X131517820Y-100444951D01*
X131328414Y-100348444D01*
X131328413Y-100348443D01*
X131328412Y-100348443D01*
X131126243Y-100282754D01*
X131126241Y-100282753D01*
X131126240Y-100282753D01*
X130964957Y-100257208D01*
X130916287Y-100249500D01*
X130703713Y-100249500D01*
X130655042Y-100257208D01*
X130493760Y-100282753D01*
X130392672Y-100315598D01*
X130344983Y-100331094D01*
X130291585Y-100348444D01*
X130102179Y-100444951D01*
X129930213Y-100569890D01*
X129779890Y-100720213D01*
X129654949Y-100892182D01*
X129650484Y-100900946D01*
X129602509Y-100951742D01*
X129534688Y-100968536D01*
X129468553Y-100945998D01*
X129429516Y-100900946D01*
X129425050Y-100892182D01*
X129300109Y-100720213D01*
X129149786Y-100569890D01*
X128977820Y-100444951D01*
X128788414Y-100348444D01*
X128788413Y-100348443D01*
X128788412Y-100348443D01*
X128586243Y-100282754D01*
X128586241Y-100282753D01*
X128586240Y-100282753D01*
X128424957Y-100257208D01*
X128376287Y-100249500D01*
X128163713Y-100249500D01*
X128115042Y-100257208D01*
X127953760Y-100282753D01*
X127852672Y-100315598D01*
X127804983Y-100331094D01*
X127751585Y-100348444D01*
X127562179Y-100444951D01*
X127390213Y-100569890D01*
X127239890Y-100720213D01*
X127114949Y-100892182D01*
X127110484Y-100900946D01*
X127062509Y-100951742D01*
X126994688Y-100968536D01*
X126928553Y-100945998D01*
X126889516Y-100900946D01*
X126885050Y-100892182D01*
X126760109Y-100720213D01*
X126609786Y-100569890D01*
X126437820Y-100444951D01*
X126248414Y-100348444D01*
X126248413Y-100348443D01*
X126248412Y-100348443D01*
X126046243Y-100282754D01*
X126046241Y-100282753D01*
X126046240Y-100282753D01*
X125884957Y-100257208D01*
X125836287Y-100249500D01*
X125623713Y-100249500D01*
X125575042Y-100257208D01*
X125413760Y-100282753D01*
X125312672Y-100315598D01*
X125264983Y-100331094D01*
X125211585Y-100348444D01*
X125022179Y-100444951D01*
X124850213Y-100569890D01*
X124699890Y-100720213D01*
X124574949Y-100892182D01*
X124570484Y-100900946D01*
X124522509Y-100951742D01*
X124454688Y-100968536D01*
X124388553Y-100945998D01*
X124349516Y-100900946D01*
X124345050Y-100892182D01*
X124220109Y-100720213D01*
X124069786Y-100569890D01*
X123897820Y-100444951D01*
X123708414Y-100348444D01*
X123708413Y-100348443D01*
X123708412Y-100348443D01*
X123506243Y-100282754D01*
X123506241Y-100282753D01*
X123506240Y-100282753D01*
X123344957Y-100257208D01*
X123296287Y-100249500D01*
X123083713Y-100249500D01*
X123035042Y-100257208D01*
X122873760Y-100282753D01*
X122772672Y-100315598D01*
X122724983Y-100331094D01*
X122671585Y-100348444D01*
X122482179Y-100444951D01*
X122310213Y-100569890D01*
X122159890Y-100720213D01*
X122034949Y-100892182D01*
X122030484Y-100900946D01*
X121982509Y-100951742D01*
X121914688Y-100968536D01*
X121848553Y-100945998D01*
X121809516Y-100900946D01*
X121805050Y-100892182D01*
X121680109Y-100720213D01*
X121529786Y-100569890D01*
X121357820Y-100444951D01*
X121168414Y-100348444D01*
X121168413Y-100348443D01*
X121168412Y-100348443D01*
X120966243Y-100282754D01*
X120966241Y-100282753D01*
X120966240Y-100282753D01*
X120804957Y-100257208D01*
X120756287Y-100249500D01*
X120543713Y-100249500D01*
X120495042Y-100257208D01*
X120333760Y-100282753D01*
X120232672Y-100315598D01*
X120184983Y-100331094D01*
X120131585Y-100348444D01*
X119942179Y-100444951D01*
X119770213Y-100569890D01*
X119619890Y-100720213D01*
X119494949Y-100892182D01*
X119490484Y-100900946D01*
X119442509Y-100951742D01*
X119374688Y-100968536D01*
X119308553Y-100945998D01*
X119269516Y-100900946D01*
X119265050Y-100892182D01*
X119140109Y-100720213D01*
X118989786Y-100569890D01*
X118817820Y-100444951D01*
X118628414Y-100348444D01*
X118628413Y-100348443D01*
X118628412Y-100348443D01*
X118426243Y-100282754D01*
X118426241Y-100282753D01*
X118426240Y-100282753D01*
X118264957Y-100257208D01*
X118216287Y-100249500D01*
X118003713Y-100249500D01*
X117955042Y-100257208D01*
X117793760Y-100282753D01*
X117692672Y-100315598D01*
X117644983Y-100331094D01*
X117591585Y-100348444D01*
X117402179Y-100444951D01*
X117230213Y-100569890D01*
X117079890Y-100720213D01*
X116954951Y-100892179D01*
X116858444Y-101081585D01*
X116792753Y-101283760D01*
X116759500Y-101493713D01*
X116759500Y-101706286D01*
X116790134Y-101899706D01*
X116792754Y-101916243D01*
X116826242Y-102019309D01*
X116858444Y-102118414D01*
X116954951Y-102307820D01*
X117079890Y-102479786D01*
X117230213Y-102630109D01*
X117402179Y-102755048D01*
X117402181Y-102755049D01*
X117402184Y-102755051D01*
X117591588Y-102851557D01*
X117793757Y-102917246D01*
X118003713Y-102950500D01*
X118003714Y-102950500D01*
X118008525Y-102951262D01*
X118008357Y-102952321D01*
X118068829Y-102975362D01*
X118081502Y-102986422D01*
X133368060Y-118272981D01*
X133368061Y-118272982D01*
X133507418Y-118412339D01*
X133671286Y-118521832D01*
X133777945Y-118566011D01*
X133853364Y-118597251D01*
X133978454Y-118622133D01*
X134046654Y-118635699D01*
X134046657Y-118635700D01*
X134046659Y-118635700D01*
X143730347Y-118635700D01*
X143797386Y-118655385D01*
X143843141Y-118708189D01*
X143853085Y-118777347D01*
X143824060Y-118840903D01*
X143818028Y-118847381D01*
X143114048Y-119551360D01*
X143114040Y-119551368D01*
X143111270Y-119554139D01*
X143111267Y-119554142D01*
X143024142Y-119641267D01*
X142994977Y-119684916D01*
X142990392Y-119691776D01*
X142990388Y-119691782D01*
X142955690Y-119743709D01*
X142955685Y-119743718D01*
X142927226Y-119812428D01*
X142922347Y-119824207D01*
X142920336Y-119829063D01*
X142908537Y-119857545D01*
X142908535Y-119857553D01*
X142884500Y-119978389D01*
X142884500Y-120647019D01*
X142864815Y-120714058D01*
X142816797Y-120757503D01*
X142802180Y-120764950D01*
X142630213Y-120889890D01*
X142479890Y-121040213D01*
X142354949Y-121212182D01*
X142350484Y-121220946D01*
X142302509Y-121271742D01*
X142234688Y-121288536D01*
X142168553Y-121265998D01*
X142129516Y-121220946D01*
X142125050Y-121212182D01*
X142000109Y-121040213D01*
X141849786Y-120889890D01*
X141677820Y-120764951D01*
X141488414Y-120668444D01*
X141488413Y-120668443D01*
X141488412Y-120668443D01*
X141286243Y-120602754D01*
X141286241Y-120602753D01*
X141286240Y-120602753D01*
X141124957Y-120577208D01*
X141076287Y-120569500D01*
X140863713Y-120569500D01*
X140815042Y-120577208D01*
X140653760Y-120602753D01*
X140451585Y-120668444D01*
X140262179Y-120764951D01*
X140090213Y-120889890D01*
X139939890Y-121040213D01*
X139814949Y-121212182D01*
X139810484Y-121220946D01*
X139762509Y-121271742D01*
X139694688Y-121288536D01*
X139628553Y-121265998D01*
X139589516Y-121220946D01*
X139585050Y-121212182D01*
X139460109Y-121040213D01*
X139309786Y-120889890D01*
X139137820Y-120764951D01*
X138948414Y-120668444D01*
X138948413Y-120668443D01*
X138948412Y-120668443D01*
X138746243Y-120602754D01*
X138746241Y-120602753D01*
X138746240Y-120602753D01*
X138584957Y-120577208D01*
X138536287Y-120569500D01*
X138323713Y-120569500D01*
X138275042Y-120577208D01*
X138113760Y-120602753D01*
X137911585Y-120668444D01*
X137722179Y-120764951D01*
X137550213Y-120889890D01*
X137399890Y-121040213D01*
X137274949Y-121212182D01*
X137270484Y-121220946D01*
X137222509Y-121271742D01*
X137154688Y-121288536D01*
X137088553Y-121265998D01*
X137049516Y-121220946D01*
X137045050Y-121212182D01*
X136920109Y-121040213D01*
X136769786Y-120889890D01*
X136597820Y-120764951D01*
X136408414Y-120668444D01*
X136408413Y-120668443D01*
X136408412Y-120668443D01*
X136206243Y-120602754D01*
X136206241Y-120602753D01*
X136206240Y-120602753D01*
X136044957Y-120577208D01*
X135996287Y-120569500D01*
X135783713Y-120569500D01*
X135735042Y-120577208D01*
X135573760Y-120602753D01*
X135371585Y-120668444D01*
X135182179Y-120764951D01*
X135010213Y-120889890D01*
X134859890Y-121040213D01*
X134734949Y-121212182D01*
X134730484Y-121220946D01*
X134682509Y-121271742D01*
X134614688Y-121288536D01*
X134548553Y-121265998D01*
X134509516Y-121220946D01*
X134505050Y-121212182D01*
X134380109Y-121040213D01*
X134229786Y-120889890D01*
X134057820Y-120764951D01*
X133868414Y-120668444D01*
X133868413Y-120668443D01*
X133868412Y-120668443D01*
X133666243Y-120602754D01*
X133666241Y-120602753D01*
X133666240Y-120602753D01*
X133504957Y-120577208D01*
X133456287Y-120569500D01*
X133243713Y-120569500D01*
X133195042Y-120577208D01*
X133033760Y-120602753D01*
X132831585Y-120668444D01*
X132642179Y-120764951D01*
X132470213Y-120889890D01*
X132319890Y-121040213D01*
X132194949Y-121212182D01*
X132190484Y-121220946D01*
X132142509Y-121271742D01*
X132074688Y-121288536D01*
X132008553Y-121265998D01*
X131969516Y-121220946D01*
X131965050Y-121212182D01*
X131840109Y-121040213D01*
X131689786Y-120889890D01*
X131517820Y-120764951D01*
X131328414Y-120668444D01*
X131328413Y-120668443D01*
X131328412Y-120668443D01*
X131126243Y-120602754D01*
X131126241Y-120602753D01*
X131126240Y-120602753D01*
X130964957Y-120577208D01*
X130916287Y-120569500D01*
X130703713Y-120569500D01*
X130655042Y-120577208D01*
X130493760Y-120602753D01*
X130291585Y-120668444D01*
X130102179Y-120764951D01*
X129930213Y-120889890D01*
X129779890Y-121040213D01*
X129654949Y-121212182D01*
X129650484Y-121220946D01*
X129602509Y-121271742D01*
X129534688Y-121288536D01*
X129468553Y-121265998D01*
X129429516Y-121220946D01*
X129425050Y-121212182D01*
X129300109Y-121040213D01*
X129149786Y-120889890D01*
X128977820Y-120764951D01*
X128788414Y-120668444D01*
X128788413Y-120668443D01*
X128788412Y-120668443D01*
X128586243Y-120602754D01*
X128586241Y-120602753D01*
X128586240Y-120602753D01*
X128424957Y-120577208D01*
X128376287Y-120569500D01*
X128163713Y-120569500D01*
X128115042Y-120577208D01*
X127953760Y-120602753D01*
X127751585Y-120668444D01*
X127562179Y-120764951D01*
X127390213Y-120889890D01*
X127239890Y-121040213D01*
X127114949Y-121212182D01*
X127110484Y-121220946D01*
X127062509Y-121271742D01*
X126994688Y-121288536D01*
X126928553Y-121265998D01*
X126889516Y-121220946D01*
X126885050Y-121212182D01*
X126760109Y-121040213D01*
X126609786Y-120889890D01*
X126437820Y-120764951D01*
X126248414Y-120668444D01*
X126248413Y-120668443D01*
X126248412Y-120668443D01*
X126046243Y-120602754D01*
X126046241Y-120602753D01*
X126046240Y-120602753D01*
X125884957Y-120577208D01*
X125836287Y-120569500D01*
X125623713Y-120569500D01*
X125575042Y-120577208D01*
X125413760Y-120602753D01*
X125211585Y-120668444D01*
X125022179Y-120764951D01*
X124850213Y-120889890D01*
X124699890Y-121040213D01*
X124574949Y-121212182D01*
X124570484Y-121220946D01*
X124522509Y-121271742D01*
X124454688Y-121288536D01*
X124388553Y-121265998D01*
X124349516Y-121220946D01*
X124345050Y-121212182D01*
X124220109Y-121040213D01*
X124069786Y-120889890D01*
X123897820Y-120764951D01*
X123708414Y-120668444D01*
X123708413Y-120668443D01*
X123708412Y-120668443D01*
X123506243Y-120602754D01*
X123506241Y-120602753D01*
X123506240Y-120602753D01*
X123344957Y-120577208D01*
X123296287Y-120569500D01*
X123083713Y-120569500D01*
X123035042Y-120577208D01*
X122873760Y-120602753D01*
X122671585Y-120668444D01*
X122482179Y-120764951D01*
X122310213Y-120889890D01*
X122159890Y-121040213D01*
X122034949Y-121212182D01*
X122030484Y-121220946D01*
X121982509Y-121271742D01*
X121914688Y-121288536D01*
X121848553Y-121265998D01*
X121809516Y-121220946D01*
X121805050Y-121212182D01*
X121680109Y-121040213D01*
X121529786Y-120889890D01*
X121357820Y-120764951D01*
X121168414Y-120668444D01*
X121168413Y-120668443D01*
X121168412Y-120668443D01*
X120966243Y-120602754D01*
X120966241Y-120602753D01*
X120966240Y-120602753D01*
X120804957Y-120577208D01*
X120756287Y-120569500D01*
X120543713Y-120569500D01*
X120495042Y-120577208D01*
X120333760Y-120602753D01*
X120131585Y-120668444D01*
X119942179Y-120764951D01*
X119770213Y-120889890D01*
X119619890Y-121040213D01*
X119494949Y-121212182D01*
X119490484Y-121220946D01*
X119442509Y-121271742D01*
X119374688Y-121288536D01*
X119308553Y-121265998D01*
X119269516Y-121220946D01*
X119265050Y-121212182D01*
X119140109Y-121040213D01*
X118989786Y-120889890D01*
X118817820Y-120764951D01*
X118628414Y-120668444D01*
X118628413Y-120668443D01*
X118628412Y-120668443D01*
X118426243Y-120602754D01*
X118426241Y-120602753D01*
X118426240Y-120602753D01*
X118264957Y-120577208D01*
X118216287Y-120569500D01*
X118003713Y-120569500D01*
X117955042Y-120577208D01*
X117793760Y-120602753D01*
X117591585Y-120668444D01*
X117402179Y-120764951D01*
X117230213Y-120889890D01*
X117079890Y-121040213D01*
X116954949Y-121212182D01*
X116950484Y-121220946D01*
X116902509Y-121271742D01*
X116834688Y-121288536D01*
X116768553Y-121265998D01*
X116729516Y-121220946D01*
X116725050Y-121212182D01*
X116600109Y-121040213D01*
X116449786Y-120889890D01*
X116277820Y-120764951D01*
X116088414Y-120668444D01*
X116088413Y-120668443D01*
X116088412Y-120668443D01*
X115886243Y-120602754D01*
X115886241Y-120602753D01*
X115886240Y-120602753D01*
X115724957Y-120577208D01*
X115676287Y-120569500D01*
X115463713Y-120569500D01*
X115415042Y-120577208D01*
X115253760Y-120602753D01*
X115051585Y-120668444D01*
X114862179Y-120764951D01*
X114690213Y-120889890D01*
X114539890Y-121040213D01*
X114414949Y-121212182D01*
X114410484Y-121220946D01*
X114362509Y-121271742D01*
X114294688Y-121288536D01*
X114228553Y-121265998D01*
X114189516Y-121220946D01*
X114185050Y-121212182D01*
X114060109Y-121040213D01*
X113909786Y-120889890D01*
X113737820Y-120764951D01*
X113548414Y-120668444D01*
X113548413Y-120668443D01*
X113548412Y-120668443D01*
X113346243Y-120602754D01*
X113346241Y-120602753D01*
X113346240Y-120602753D01*
X113184957Y-120577208D01*
X113136287Y-120569500D01*
X112923713Y-120569500D01*
X112875042Y-120577208D01*
X112713760Y-120602753D01*
X112511585Y-120668444D01*
X112322179Y-120764951D01*
X112150213Y-120889890D01*
X111999890Y-121040213D01*
X111874949Y-121212182D01*
X111870202Y-121221499D01*
X111822227Y-121272293D01*
X111754405Y-121289087D01*
X111688271Y-121266548D01*
X111649234Y-121221495D01*
X111644622Y-121212444D01*
X111519727Y-121040540D01*
X111519723Y-121040535D01*
X111369464Y-120890276D01*
X111369459Y-120890272D01*
X111197557Y-120765379D01*
X111008215Y-120668903D01*
X110806124Y-120603241D01*
X110740000Y-120592768D01*
X110740000Y-121486988D01*
X110682993Y-121454075D01*
X110555826Y-121420000D01*
X110424174Y-121420000D01*
X110297007Y-121454075D01*
X110240000Y-121486988D01*
X110240000Y-120592768D01*
X110239999Y-120592768D01*
X110173875Y-120603241D01*
X109971784Y-120668903D01*
X109782442Y-120765379D01*
X109610541Y-120890271D01*
X109496865Y-121003947D01*
X109435542Y-121037431D01*
X109365850Y-121032447D01*
X109309917Y-120990575D01*
X109293002Y-120959598D01*
X109283063Y-120932951D01*
X109243796Y-120827669D01*
X109243795Y-120827668D01*
X109243793Y-120827664D01*
X109157547Y-120712455D01*
X109157544Y-120712452D01*
X109042335Y-120626206D01*
X109042328Y-120626202D01*
X108907482Y-120575908D01*
X108907483Y-120575908D01*
X108847883Y-120569501D01*
X108847881Y-120569500D01*
X108847873Y-120569500D01*
X108847864Y-120569500D01*
X107052129Y-120569500D01*
X107052123Y-120569501D01*
X106992516Y-120575908D01*
X106857671Y-120626202D01*
X106857664Y-120626206D01*
X106742455Y-120712452D01*
X106742452Y-120712455D01*
X106656206Y-120827664D01*
X106656202Y-120827671D01*
X106605908Y-120962517D01*
X106599501Y-121022116D01*
X106599500Y-121022128D01*
X106599500Y-122817870D01*
X106599501Y-122817876D01*
X106605908Y-122877483D01*
X106656202Y-123012328D01*
X106656206Y-123012335D01*
X106742452Y-123127544D01*
X106742455Y-123127547D01*
X106857664Y-123213793D01*
X106857671Y-123213797D01*
X106992517Y-123264091D01*
X106992516Y-123264091D01*
X106999444Y-123264835D01*
X107052127Y-123270500D01*
X108847872Y-123270499D01*
X108907483Y-123264091D01*
X109042331Y-123213796D01*
X109157546Y-123127546D01*
X109243796Y-123012331D01*
X109293002Y-122880401D01*
X109334872Y-122824468D01*
X109400337Y-122800050D01*
X109468610Y-122814901D01*
X109496865Y-122836053D01*
X109610535Y-122949723D01*
X109610540Y-122949727D01*
X109782442Y-123074620D01*
X109971782Y-123171095D01*
X110173871Y-123236757D01*
X110240000Y-123247231D01*
X110240000Y-122353012D01*
X110297007Y-122385925D01*
X110424174Y-122420000D01*
X110555826Y-122420000D01*
X110682993Y-122385925D01*
X110740000Y-122353012D01*
X110740000Y-123247230D01*
X110806126Y-123236757D01*
X110806129Y-123236757D01*
X111008217Y-123171095D01*
X111197557Y-123074620D01*
X111369459Y-122949727D01*
X111369464Y-122949723D01*
X111519723Y-122799464D01*
X111519727Y-122799459D01*
X111644620Y-122627558D01*
X111649232Y-122618507D01*
X111697205Y-122567709D01*
X111765025Y-122550912D01*
X111831161Y-122573447D01*
X111870204Y-122618504D01*
X111874949Y-122627817D01*
X111999890Y-122799786D01*
X112150213Y-122950109D01*
X112322179Y-123075048D01*
X112322181Y-123075049D01*
X112322184Y-123075051D01*
X112511588Y-123171557D01*
X112713757Y-123237246D01*
X112923713Y-123270500D01*
X112923714Y-123270500D01*
X113136286Y-123270500D01*
X113136287Y-123270500D01*
X113346243Y-123237246D01*
X113548412Y-123171557D01*
X113737816Y-123075051D01*
X113824138Y-123012335D01*
X113909786Y-122950109D01*
X113909788Y-122950106D01*
X113909792Y-122950104D01*
X114060104Y-122799792D01*
X114060106Y-122799788D01*
X114060109Y-122799786D01*
X114185048Y-122627820D01*
X114185050Y-122627817D01*
X114185051Y-122627816D01*
X114189514Y-122619054D01*
X114237488Y-122568259D01*
X114305308Y-122551463D01*
X114371444Y-122573999D01*
X114410486Y-122619056D01*
X114414951Y-122627820D01*
X114539890Y-122799786D01*
X114690213Y-122950109D01*
X114862179Y-123075048D01*
X114862181Y-123075049D01*
X114862184Y-123075051D01*
X115051588Y-123171557D01*
X115253757Y-123237246D01*
X115463713Y-123270500D01*
X115463714Y-123270500D01*
X115676286Y-123270500D01*
X115676287Y-123270500D01*
X115886243Y-123237246D01*
X116088412Y-123171557D01*
X116277816Y-123075051D01*
X116364138Y-123012335D01*
X116449786Y-122950109D01*
X116449788Y-122950106D01*
X116449792Y-122950104D01*
X116600104Y-122799792D01*
X116600106Y-122799788D01*
X116600109Y-122799786D01*
X116725048Y-122627820D01*
X116725050Y-122627817D01*
X116725051Y-122627816D01*
X116729514Y-122619054D01*
X116777488Y-122568259D01*
X116845308Y-122551463D01*
X116911444Y-122573999D01*
X116950486Y-122619056D01*
X116954951Y-122627820D01*
X117079890Y-122799786D01*
X117230213Y-122950109D01*
X117402179Y-123075048D01*
X117402181Y-123075049D01*
X117402184Y-123075051D01*
X117591588Y-123171557D01*
X117793757Y-123237246D01*
X118003713Y-123270500D01*
X118003714Y-123270500D01*
X118216286Y-123270500D01*
X118216287Y-123270500D01*
X118426243Y-123237246D01*
X118628412Y-123171557D01*
X118817816Y-123075051D01*
X118904138Y-123012335D01*
X118989786Y-122950109D01*
X118989788Y-122950106D01*
X118989792Y-122950104D01*
X119140104Y-122799792D01*
X119140106Y-122799788D01*
X119140109Y-122799786D01*
X119265048Y-122627820D01*
X119265050Y-122627817D01*
X119265051Y-122627816D01*
X119269514Y-122619054D01*
X119317488Y-122568259D01*
X119385308Y-122551463D01*
X119451444Y-122573999D01*
X119490486Y-122619056D01*
X119494951Y-122627820D01*
X119619890Y-122799786D01*
X119770213Y-122950109D01*
X119942179Y-123075048D01*
X119942181Y-123075049D01*
X119942184Y-123075051D01*
X120131588Y-123171557D01*
X120333757Y-123237246D01*
X120543713Y-123270500D01*
X120543714Y-123270500D01*
X120756286Y-123270500D01*
X120756287Y-123270500D01*
X120966243Y-123237246D01*
X121168412Y-123171557D01*
X121357816Y-123075051D01*
X121444138Y-123012335D01*
X121529786Y-122950109D01*
X121529788Y-122950106D01*
X121529792Y-122950104D01*
X121680104Y-122799792D01*
X121680106Y-122799788D01*
X121680109Y-122799786D01*
X121805048Y-122627820D01*
X121805050Y-122627817D01*
X121805051Y-122627816D01*
X121809514Y-122619054D01*
X121857488Y-122568259D01*
X121925308Y-122551463D01*
X121991444Y-122573999D01*
X122030486Y-122619056D01*
X122034951Y-122627820D01*
X122159890Y-122799786D01*
X122310213Y-122950109D01*
X122482179Y-123075048D01*
X122482181Y-123075049D01*
X122482184Y-123075051D01*
X122671588Y-123171557D01*
X122873757Y-123237246D01*
X123083713Y-123270500D01*
X123083714Y-123270500D01*
X123296286Y-123270500D01*
X123296287Y-123270500D01*
X123506243Y-123237246D01*
X123708412Y-123171557D01*
X123897816Y-123075051D01*
X123984138Y-123012335D01*
X124069786Y-122950109D01*
X124069788Y-122950106D01*
X124069792Y-122950104D01*
X124220104Y-122799792D01*
X124220106Y-122799788D01*
X124220109Y-122799786D01*
X124345048Y-122627820D01*
X124345050Y-122627817D01*
X124345051Y-122627816D01*
X124349514Y-122619054D01*
X124397488Y-122568259D01*
X124465308Y-122551463D01*
X124531444Y-122573999D01*
X124570486Y-122619056D01*
X124574951Y-122627820D01*
X124699890Y-122799786D01*
X124850213Y-122950109D01*
X125022179Y-123075048D01*
X125022181Y-123075049D01*
X125022184Y-123075051D01*
X125211588Y-123171557D01*
X125413757Y-123237246D01*
X125623713Y-123270500D01*
X125623714Y-123270500D01*
X125836286Y-123270500D01*
X125836287Y-123270500D01*
X126046243Y-123237246D01*
X126248412Y-123171557D01*
X126437816Y-123075051D01*
X126524138Y-123012335D01*
X126609786Y-122950109D01*
X126609788Y-122950106D01*
X126609792Y-122950104D01*
X126760104Y-122799792D01*
X126760106Y-122799788D01*
X126760109Y-122799786D01*
X126885048Y-122627820D01*
X126885050Y-122627817D01*
X126885051Y-122627816D01*
X126889514Y-122619054D01*
X126937488Y-122568259D01*
X127005308Y-122551463D01*
X127071444Y-122573999D01*
X127110486Y-122619056D01*
X127114951Y-122627820D01*
X127239890Y-122799786D01*
X127390213Y-122950109D01*
X127562179Y-123075048D01*
X127562181Y-123075049D01*
X127562184Y-123075051D01*
X127751588Y-123171557D01*
X127953757Y-123237246D01*
X128163713Y-123270500D01*
X128163714Y-123270500D01*
X128376286Y-123270500D01*
X128376287Y-123270500D01*
X128586243Y-123237246D01*
X128788412Y-123171557D01*
X128977816Y-123075051D01*
X129064138Y-123012335D01*
X129149786Y-122950109D01*
X129149788Y-122950106D01*
X129149792Y-122950104D01*
X129300104Y-122799792D01*
X129300106Y-122799788D01*
X129300109Y-122799786D01*
X129425048Y-122627820D01*
X129425050Y-122627817D01*
X129425051Y-122627816D01*
X129429514Y-122619054D01*
X129477488Y-122568259D01*
X129545308Y-122551463D01*
X129611444Y-122573999D01*
X129650486Y-122619056D01*
X129654951Y-122627820D01*
X129779890Y-122799786D01*
X129930213Y-122950109D01*
X130102179Y-123075048D01*
X130102181Y-123075049D01*
X130102184Y-123075051D01*
X130291588Y-123171557D01*
X130493757Y-123237246D01*
X130703713Y-123270500D01*
X130703714Y-123270500D01*
X130916286Y-123270500D01*
X130916287Y-123270500D01*
X131126243Y-123237246D01*
X131328412Y-123171557D01*
X131517816Y-123075051D01*
X131604138Y-123012335D01*
X131689786Y-122950109D01*
X131689788Y-122950106D01*
X131689792Y-122950104D01*
X131840104Y-122799792D01*
X131840106Y-122799788D01*
X131840109Y-122799786D01*
X131965048Y-122627820D01*
X131965050Y-122627817D01*
X131965051Y-122627816D01*
X131969514Y-122619054D01*
X132017488Y-122568259D01*
X132085308Y-122551463D01*
X132151444Y-122573999D01*
X132190486Y-122619056D01*
X132194951Y-122627820D01*
X132319890Y-122799786D01*
X132470213Y-122950109D01*
X132642179Y-123075048D01*
X132642181Y-123075049D01*
X132642184Y-123075051D01*
X132831588Y-123171557D01*
X133033757Y-123237246D01*
X133243713Y-123270500D01*
X133243714Y-123270500D01*
X133456286Y-123270500D01*
X133456287Y-123270500D01*
X133666243Y-123237246D01*
X133868412Y-123171557D01*
X134057816Y-123075051D01*
X134144138Y-123012335D01*
X134229786Y-122950109D01*
X134229788Y-122950106D01*
X134229792Y-122950104D01*
X134380104Y-122799792D01*
X134380106Y-122799788D01*
X134380109Y-122799786D01*
X134505048Y-122627820D01*
X134505050Y-122627817D01*
X134505051Y-122627816D01*
X134509514Y-122619054D01*
X134557488Y-122568259D01*
X134625308Y-122551463D01*
X134691444Y-122573999D01*
X134730486Y-122619056D01*
X134734951Y-122627820D01*
X134859890Y-122799786D01*
X135010213Y-122950109D01*
X135182179Y-123075048D01*
X135182181Y-123075049D01*
X135182184Y-123075051D01*
X135371588Y-123171557D01*
X135573757Y-123237246D01*
X135783713Y-123270500D01*
X135783714Y-123270500D01*
X135996286Y-123270500D01*
X135996287Y-123270500D01*
X136206243Y-123237246D01*
X136408412Y-123171557D01*
X136597816Y-123075051D01*
X136684138Y-123012335D01*
X136769786Y-122950109D01*
X136769788Y-122950106D01*
X136769792Y-122950104D01*
X136920104Y-122799792D01*
X136920106Y-122799788D01*
X136920109Y-122799786D01*
X137045048Y-122627820D01*
X137045050Y-122627817D01*
X137045051Y-122627816D01*
X137049514Y-122619054D01*
X137097488Y-122568259D01*
X137165308Y-122551463D01*
X137231444Y-122573999D01*
X137270486Y-122619056D01*
X137274951Y-122627820D01*
X137399890Y-122799786D01*
X137550213Y-122950109D01*
X137722179Y-123075048D01*
X137722181Y-123075049D01*
X137722184Y-123075051D01*
X137911588Y-123171557D01*
X138113757Y-123237246D01*
X138323713Y-123270500D01*
X138323714Y-123270500D01*
X138536286Y-123270500D01*
X138536287Y-123270500D01*
X138746243Y-123237246D01*
X138948412Y-123171557D01*
X139137816Y-123075051D01*
X139224138Y-123012335D01*
X139309786Y-122950109D01*
X139309788Y-122950106D01*
X139309792Y-122950104D01*
X139460104Y-122799792D01*
X139460106Y-122799788D01*
X139460109Y-122799786D01*
X139585048Y-122627820D01*
X139585050Y-122627817D01*
X139585051Y-122627816D01*
X139589514Y-122619054D01*
X139637488Y-122568259D01*
X139705308Y-122551463D01*
X139771444Y-122573999D01*
X139810486Y-122619056D01*
X139814951Y-122627820D01*
X139939890Y-122799786D01*
X140090213Y-122950109D01*
X140262179Y-123075048D01*
X140262181Y-123075049D01*
X140262184Y-123075051D01*
X140351256Y-123120435D01*
X140451587Y-123171557D01*
X140451593Y-123171559D01*
X140533052Y-123198026D01*
X140594185Y-123217889D01*
X140643549Y-123248139D01*
X141214139Y-123818729D01*
X141214142Y-123818733D01*
X141301267Y-123905858D01*
X141378190Y-123957256D01*
X141383990Y-123961132D01*
X141383993Y-123961134D01*
X141403710Y-123974309D01*
X141403712Y-123974310D01*
X141403715Y-123974312D01*
X141470396Y-124001931D01*
X141470398Y-124001933D01*
X141510640Y-124018601D01*
X141517548Y-124021463D01*
X141577971Y-124033481D01*
X141638393Y-124045500D01*
X146770607Y-124045500D01*
X146831029Y-124033481D01*
X146891452Y-124021463D01*
X146924792Y-124007652D01*
X147005286Y-123974312D01*
X147056509Y-123940084D01*
X147107733Y-123905858D01*
X147194858Y-123818733D01*
X147194859Y-123818731D01*
X147201925Y-123811665D01*
X147201927Y-123811661D01*
X153866421Y-117147168D01*
X153927742Y-117113685D01*
X153997434Y-117118669D01*
X154053367Y-117160541D01*
X154077784Y-117226005D01*
X154078100Y-117234851D01*
X154078100Y-118902518D01*
X154078100Y-118902520D01*
X154078099Y-118902520D01*
X154106940Y-119047507D01*
X154106943Y-119047517D01*
X154163514Y-119184092D01*
X154163515Y-119184094D01*
X154163516Y-119184095D01*
X154195830Y-119232457D01*
X154196412Y-119233327D01*
X154196413Y-119233330D01*
X154245646Y-119307014D01*
X154245652Y-119307021D01*
X155767049Y-120828416D01*
X155871584Y-120932951D01*
X155871587Y-120932953D01*
X155871588Y-120932954D01*
X155994494Y-121015077D01*
X155994496Y-121015078D01*
X155994505Y-121015084D01*
X156011511Y-121022128D01*
X156131088Y-121071659D01*
X156247241Y-121094763D01*
X156266468Y-121098587D01*
X156276081Y-121100500D01*
X158167995Y-121100500D01*
X158235034Y-121120185D01*
X158280789Y-121172989D01*
X158290733Y-121242147D01*
X158268314Y-121297385D01*
X158144948Y-121467184D01*
X158048444Y-121656585D01*
X157982753Y-121858760D01*
X157962628Y-121985826D01*
X157949500Y-122068713D01*
X157949500Y-122281287D01*
X157982754Y-122491243D01*
X158027129Y-122627816D01*
X158048444Y-122693414D01*
X158144951Y-122882820D01*
X158269890Y-123054786D01*
X158420213Y-123205109D01*
X158592179Y-123330048D01*
X158592181Y-123330049D01*
X158592184Y-123330051D01*
X158781588Y-123426557D01*
X158983757Y-123492246D01*
X159193713Y-123525500D01*
X159193714Y-123525500D01*
X159406286Y-123525500D01*
X159406287Y-123525500D01*
X159616243Y-123492246D01*
X159818412Y-123426557D01*
X160007816Y-123330051D01*
X160029789Y-123314086D01*
X160179786Y-123205109D01*
X160179788Y-123205106D01*
X160179792Y-123205104D01*
X160330104Y-123054792D01*
X160330106Y-123054788D01*
X160330109Y-123054786D01*
X160455048Y-122882820D01*
X160455047Y-122882820D01*
X160455051Y-122882816D01*
X160551557Y-122693412D01*
X160617246Y-122491243D01*
X160650500Y-122281287D01*
X160650500Y-122068713D01*
X160617246Y-121858757D01*
X160551557Y-121656588D01*
X160455051Y-121467184D01*
X160455049Y-121467181D01*
X160455048Y-121467179D01*
X160330109Y-121295213D01*
X160179786Y-121144890D01*
X160007820Y-121019951D01*
X159818414Y-120923444D01*
X159818413Y-120923443D01*
X159818412Y-120923443D01*
X159616243Y-120857754D01*
X159616241Y-120857753D01*
X159616240Y-120857753D01*
X159431011Y-120828416D01*
X159406287Y-120824500D01*
X159193713Y-120824500D01*
X159168989Y-120828416D01*
X159046362Y-120847838D01*
X158977068Y-120838883D01*
X158923616Y-120793887D01*
X158902977Y-120727135D01*
X158921702Y-120659822D01*
X158939279Y-120637688D01*
X161916019Y-117660949D01*
X161977342Y-117627464D01*
X162047034Y-117632448D01*
X162102967Y-117674320D01*
X162127384Y-117739784D01*
X162127700Y-117748630D01*
X162127700Y-124868900D01*
X162108015Y-124935939D01*
X162055211Y-124981694D01*
X162003700Y-124992900D01*
X105788500Y-124992900D01*
X105721461Y-124973215D01*
X105675706Y-124920411D01*
X105664500Y-124868900D01*
X105664500Y-99243713D01*
X107399500Y-99243713D01*
X107399500Y-99456286D01*
X107425430Y-99620006D01*
X107432754Y-99666243D01*
X107445346Y-99704998D01*
X107498444Y-99868414D01*
X107594951Y-100057820D01*
X107719890Y-100229786D01*
X107870213Y-100380109D01*
X108042179Y-100505048D01*
X108042181Y-100505049D01*
X108042184Y-100505051D01*
X108231588Y-100601557D01*
X108433757Y-100667246D01*
X108643713Y-100700500D01*
X108643714Y-100700500D01*
X108856286Y-100700500D01*
X108856287Y-100700500D01*
X109066243Y-100667246D01*
X109268412Y-100601557D01*
X109457816Y-100505051D01*
X109540540Y-100444949D01*
X109629786Y-100380109D01*
X109629788Y-100380106D01*
X109629792Y-100380104D01*
X109780104Y-100229792D01*
X109780106Y-100229788D01*
X109780109Y-100229786D01*
X109905048Y-100057820D01*
X109905047Y-100057820D01*
X109905051Y-100057816D01*
X110001557Y-99868412D01*
X110067246Y-99666243D01*
X110100500Y-99456287D01*
X110100500Y-99243713D01*
X110067246Y-99033757D01*
X110001557Y-98831588D01*
X109905051Y-98642184D01*
X109905049Y-98642181D01*
X109905048Y-98642179D01*
X109780109Y-98470213D01*
X109629786Y-98319890D01*
X109457820Y-98194951D01*
X109268414Y-98098444D01*
X109268413Y-98098443D01*
X109268412Y-98098443D01*
X109066243Y-98032754D01*
X109066241Y-98032753D01*
X109066240Y-98032753D01*
X108904957Y-98007208D01*
X108856287Y-97999500D01*
X108643713Y-97999500D01*
X108595042Y-98007208D01*
X108433760Y-98032753D01*
X108231585Y-98098444D01*
X108042179Y-98194951D01*
X107870213Y-98319890D01*
X107719890Y-98470213D01*
X107594951Y-98642179D01*
X107498444Y-98831585D01*
X107498443Y-98831587D01*
X107498443Y-98831588D01*
X107488291Y-98862832D01*
X107432753Y-99033760D01*
X107399500Y-99243713D01*
X105664500Y-99243713D01*
X105664500Y-96390500D01*
X105684185Y-96323461D01*
X105736989Y-96277706D01*
X105788500Y-96266500D01*
X162003700Y-96266500D01*
X162070739Y-96286185D01*
G37*
%TD.AperFunction*%
%TA.AperFunction,Conductor*%
G36*
X156288999Y-104744818D02*
G01*
X156302880Y-104743925D01*
X156321864Y-104754468D01*
X156342695Y-104760585D01*
X156351801Y-104771094D01*
X156363962Y-104777848D01*
X156374233Y-104796981D01*
X156388450Y-104813389D01*
X156391105Y-104828413D01*
X156397008Y-104839409D01*
X156399273Y-104874626D01*
X156397884Y-104892279D01*
X156397300Y-104899703D01*
X156397300Y-105331101D01*
X156400201Y-105367967D01*
X156400202Y-105367973D01*
X156446054Y-105525793D01*
X156446056Y-105525798D01*
X156462007Y-105552771D01*
X156479188Y-105620495D01*
X156462008Y-105679008D01*
X156446519Y-105705198D01*
X156446516Y-105705206D01*
X156400700Y-105862905D01*
X156400699Y-105862911D01*
X156400504Y-105865398D01*
X156400505Y-105865400D01*
X156763750Y-105865400D01*
X156798345Y-105870324D01*
X156945226Y-105912997D01*
X156945229Y-105912997D01*
X156945231Y-105912998D01*
X156982106Y-105915900D01*
X156982114Y-105915900D01*
X158363486Y-105915900D01*
X158363494Y-105915900D01*
X158400369Y-105912998D01*
X158400371Y-105912997D01*
X158400373Y-105912997D01*
X158545533Y-105870824D01*
X158580128Y-105865900D01*
X159753170Y-105865900D01*
X159820209Y-105885585D01*
X159840851Y-105902219D01*
X160041851Y-106103219D01*
X160075336Y-106164542D01*
X160070352Y-106234234D01*
X160028480Y-106290167D01*
X159963016Y-106314584D01*
X159954170Y-106314900D01*
X159497798Y-106314900D01*
X159497780Y-106314901D01*
X159395003Y-106325400D01*
X159395000Y-106325401D01*
X159228468Y-106380585D01*
X159228459Y-106380589D01*
X159137257Y-106436843D01*
X159069864Y-106455283D01*
X159003201Y-106434360D01*
X158958432Y-106380718D01*
X158958250Y-106379631D01*
X158945095Y-106365400D01*
X157922800Y-106365400D01*
X157922800Y-106915400D01*
X158363434Y-106915400D01*
X158363449Y-106915399D01*
X158400289Y-106912500D01*
X158400295Y-106912499D01*
X158557993Y-106866683D01*
X158557998Y-106866681D01*
X158617410Y-106831545D01*
X158685133Y-106814361D01*
X158751396Y-106836520D01*
X158795160Y-106890986D01*
X158803890Y-106950877D01*
X158797300Y-107015379D01*
X158797300Y-107815401D01*
X158797301Y-107815417D01*
X158808445Y-107924498D01*
X158795675Y-107993191D01*
X158747795Y-108044075D01*
X158685087Y-108061100D01*
X156760341Y-108061100D01*
X156760321Y-108061099D01*
X156754207Y-108061099D01*
X156630994Y-108061099D01*
X156530197Y-108081148D01*
X156530192Y-108081148D01*
X156510149Y-108085136D01*
X156510147Y-108085136D01*
X156462997Y-108104667D01*
X156396319Y-108132285D01*
X156396317Y-108132286D01*
X156293868Y-108200740D01*
X156179173Y-108315436D01*
X156049627Y-108444982D01*
X155988307Y-108478466D01*
X155961948Y-108481300D01*
X151724347Y-108481300D01*
X151657308Y-108461615D01*
X151636666Y-108444981D01*
X149557086Y-106365401D01*
X156400504Y-106365401D01*
X156400699Y-106367886D01*
X156446518Y-106525598D01*
X156530114Y-106666952D01*
X156530121Y-106666961D01*
X156646238Y-106783078D01*
X156646247Y-106783085D01*
X156787603Y-106866682D01*
X156787606Y-106866683D01*
X156945304Y-106912499D01*
X156945310Y-106912500D01*
X156982150Y-106915399D01*
X156982166Y-106915400D01*
X157422800Y-106915400D01*
X157422800Y-106365400D01*
X156400505Y-106365400D01*
X156400504Y-106365401D01*
X149557086Y-106365401D01*
X148286545Y-105094860D01*
X148253060Y-105033537D01*
X148258044Y-104963845D01*
X148299916Y-104907912D01*
X148305335Y-104904077D01*
X148311877Y-104899706D01*
X148402035Y-104839464D01*
X148464281Y-104777217D01*
X148525602Y-104743734D01*
X148551961Y-104740900D01*
X156275656Y-104740900D01*
X156288999Y-104744818D01*
G37*
%TD.AperFunction*%
%TD*%
M02*
