%TF.GenerationSoftware,KiCad,Pcbnew,10.0.3*%
%TF.CreationDate,2026-06-20T10:17:37+01:00*%
%TF.ProjectId,MRF-Pro-v8,4d52462d-5072-46f2-9d76-382e6b696361,rev?*%
%TF.SameCoordinates,Original*%
%TF.FileFunction,Copper,L2,Bot*%
%TF.FilePolarity,Positive*%
%FSLAX46Y46*%
G04 Gerber Fmt 4.6, Leading zero omitted, Abs format (unit mm)*
G04 Created by KiCad (PCBNEW 10.0.3) date 2026-06-20 10:17:37*
%MOMM*%
%LPD*%
G01*
G04 APERTURE LIST*
%TA.AperFunction,ComponentPad*%
%ADD10R,1.700000X1.700000*%
%TD*%
%TA.AperFunction,ComponentPad*%
%ADD11O,1.700000X1.700000*%
%TD*%
%TA.AperFunction,ViaPad*%
%ADD12C,0.800000*%
%TD*%
%TA.AperFunction,Conductor*%
%ADD13C,0.250000*%
%TD*%
%TA.AperFunction,Conductor*%
%ADD14C,1.000000*%
%TD*%
G04 APERTURE END LIST*
D10*
%TO.P,J2,1,Pin_1_1*%
%TO.N,Net-(J2-Pin_1)*%
X146050000Y-101600000D03*
D11*
%TO.P,J2,2,Pin_2_2*%
%TO.N,Net-(J2-Pin_2)*%
X143510000Y-101600000D03*
%TO.P,J2,3,Pin_3_3*%
%TO.N,unconnected-(J2-Pin_3-Pad3)*%
X140970000Y-101600000D03*
%TO.P,J2,4,Pin_4_4*%
%TO.N,unconnected-(J2-Pin_4-Pad4)*%
X138430000Y-101600000D03*
%TO.P,J2,5,Pin_5_5*%
%TO.N,Net-(J2-Pin_5)*%
X135890000Y-101600000D03*
%TO.P,J2,6,Pin_6_6*%
%TO.N,Net-(J2-Pin_6)*%
X133350000Y-101600000D03*
%TO.P,J2,7,Pin_7_7*%
%TO.N,unconnected-(J2-Pin_7-Pad7)*%
X130810000Y-101600000D03*
%TO.P,J2,8,Pin_8_8*%
%TO.N,unconnected-(J2-Pin_8-Pad8)*%
X128270000Y-101600000D03*
%TO.P,J2,9,Pin_9_9*%
%TO.N,unconnected-(J2-Pin_9-Pad9)*%
X125730000Y-101600000D03*
%TO.P,J2,10,Pin_10_10*%
%TO.N,unconnected-(J2-Pin_10-Pad10)*%
X123190000Y-101600000D03*
%TO.P,J2,11,Pin_11_11*%
%TO.N,/EN*%
X120650000Y-101600000D03*
%TO.P,J2,12,Pin_12_12*%
%TO.N,/VBAT*%
X118110000Y-101600000D03*
%TD*%
D10*
%TO.P,J1,1,Pin_1_1*%
%TO.N,unconnected-(J1-Pin_1-Pad1)*%
X107950000Y-121920000D03*
D11*
%TO.P,J1,2,Pin_2_2*%
%TO.N,/3.3V*%
X110490000Y-121920000D03*
%TO.P,J1,3,Pin_3_3*%
%TO.N,unconnected-(J1-Pin_3-Pad3)*%
X113030000Y-121920000D03*
%TO.P,J1,4,Pin_4_4*%
%TO.N,/GND*%
X115570000Y-121920000D03*
%TO.P,J1,5,Pin_5_5*%
%TO.N,unconnected-(J1-Pin_5-Pad5)*%
X118110000Y-121920000D03*
%TO.P,J1,6,Pin_6_6*%
%TO.N,unconnected-(J1-Pin_6-Pad6)*%
X120650000Y-121920000D03*
%TO.P,J1,7,Pin_7_7*%
%TO.N,unconnected-(J1-Pin_7-Pad7)*%
X123190000Y-121920000D03*
%TO.P,J1,8,Pin_8_8*%
%TO.N,unconnected-(J1-Pin_8-Pad8)*%
X125730000Y-121920000D03*
%TO.P,J1,9,Pin_9_9*%
%TO.N,unconnected-(J1-Pin_9-Pad9)*%
X128270000Y-121920000D03*
%TO.P,J1,10,Pin_10_10*%
%TO.N,unconnected-(J1-Pin_10-Pad10)*%
X130810000Y-121920000D03*
%TO.P,J1,11,Pin_11_11*%
%TO.N,unconnected-(J1-Pin_11-Pad11)*%
X133350000Y-121920000D03*
%TO.P,J1,12,Pin_12_12*%
%TO.N,unconnected-(J1-Pin_12-Pad12)*%
X135890000Y-121920000D03*
%TO.P,J1,13,Pin_13_13*%
%TO.N,unconnected-(J1-Pin_13-Pad13)*%
X138430000Y-121920000D03*
%TO.P,J1,14,Pin_14_14*%
%TO.N,Net-(J1-Pin_14)*%
X140970000Y-121920000D03*
%TO.P,J1,15,Pin_15_15*%
%TO.N,Net-(J1-Pin_15)*%
X143510000Y-121920000D03*
%TO.P,J1,16,Pin_16_16*%
%TO.N,unconnected-(J1-Pin_16-Pad16)*%
X146050000Y-121920000D03*
%TD*%
D12*
%TO.N,Net-(J2-Pin_5)*%
X147828000Y-104140000D03*
%TO.N,Net-(J2-Pin_6)*%
X150241000Y-103124000D03*
%TO.N,/EN*%
X152654000Y-102108000D03*
%TO.N,/GND*%
X161285364Y-114391719D03*
X157672800Y-101100000D03*
%TO.N,/3.3V*%
X153250000Y-107650000D03*
X113850000Y-118625000D03*
X152550000Y-106575000D03*
X117200000Y-118625000D03*
X121200000Y-118625000D03*
X124900000Y-118625000D03*
X153925000Y-106600000D03*
%TO.N,Net-(J1-Pin_14)*%
X148100000Y-115925000D03*
%TD*%
%TO.N,Net-(J2-Pin_5)*%
D13*
X139877800Y-105587800D02*
X135890000Y-101600000D01*
X147828000Y-104140000D02*
X147828000Y-104495600D01*
X147828000Y-104495600D02*
X146735800Y-105587800D01*
X146735800Y-105587800D02*
X139877800Y-105587800D01*
%TO.N,Net-(J2-Pin_6)*%
X146735800Y-107442000D02*
X139192000Y-107442000D01*
X139192000Y-107442000D02*
X133350000Y-101600000D01*
X150241000Y-103124000D02*
X150291800Y-103174800D01*
X150291800Y-103174800D02*
X150291800Y-103886000D01*
X150291800Y-103886000D02*
X146735800Y-107442000D01*
%TO.N,/EN*%
X149321000Y-98775000D02*
X123475000Y-98775000D01*
X152654000Y-102108000D02*
X149321000Y-98775000D01*
X123475000Y-98775000D02*
X120650000Y-101600000D01*
%TO.N,/3.3V*%
D14*
X153900000Y-106575000D02*
X153925000Y-106600000D01*
X152550000Y-106575000D02*
X153300000Y-106575000D01*
X113850000Y-118625000D02*
X113700000Y-118625000D01*
X153300000Y-107600000D02*
X153250000Y-107650000D01*
X113700000Y-118625000D02*
X113700000Y-118710000D01*
X153300000Y-106575000D02*
X153300000Y-107600000D01*
X117200000Y-118625000D02*
X113850000Y-118625000D01*
X140500000Y-118625000D02*
X124900000Y-118625000D01*
X121200000Y-118625000D02*
X117200000Y-118625000D01*
X124900000Y-118625000D02*
X121200000Y-118625000D01*
X152550000Y-106575000D02*
X140500000Y-118625000D01*
X153300000Y-106575000D02*
X153900000Y-106575000D01*
%TO.N,Net-(J1-Pin_14)*%
D13*
X146965000Y-115925000D02*
X140970000Y-121920000D01*
X148100000Y-115925000D02*
X146965000Y-115925000D01*
%TD*%
%TA.AperFunction,Conductor*%
%TO.N,/GND*%
G36*
X162070739Y-96286185D02*
G01*
X162116494Y-96338989D01*
X162127700Y-96390500D01*
X162127700Y-124868900D01*
X162108015Y-124935939D01*
X162055211Y-124981694D01*
X162003700Y-124992900D01*
X105788500Y-124992900D01*
X105721461Y-124973215D01*
X105675706Y-124920411D01*
X105664500Y-124868900D01*
X105664500Y-121022135D01*
X106599500Y-121022135D01*
X106599500Y-122817870D01*
X106599501Y-122817876D01*
X106605908Y-122877483D01*
X106656202Y-123012328D01*
X106656206Y-123012335D01*
X106742452Y-123127544D01*
X106742455Y-123127547D01*
X106857664Y-123213793D01*
X106857671Y-123213797D01*
X106992517Y-123264091D01*
X106992516Y-123264091D01*
X106999444Y-123264835D01*
X107052127Y-123270500D01*
X108847872Y-123270499D01*
X108907483Y-123264091D01*
X109042331Y-123213796D01*
X109157546Y-123127546D01*
X109243796Y-123012331D01*
X109292810Y-122880916D01*
X109334681Y-122824984D01*
X109400145Y-122800566D01*
X109468418Y-122815417D01*
X109496673Y-122836569D01*
X109610213Y-122950109D01*
X109782179Y-123075048D01*
X109782181Y-123075049D01*
X109782184Y-123075051D01*
X109971588Y-123171557D01*
X110173757Y-123237246D01*
X110383713Y-123270500D01*
X110383714Y-123270500D01*
X110596286Y-123270500D01*
X110596287Y-123270500D01*
X110806243Y-123237246D01*
X111008412Y-123171557D01*
X111197816Y-123075051D01*
X111260110Y-123029792D01*
X111369786Y-122950109D01*
X111369788Y-122950106D01*
X111369792Y-122950104D01*
X111520104Y-122799792D01*
X111520106Y-122799788D01*
X111520109Y-122799786D01*
X111645048Y-122627820D01*
X111645047Y-122627820D01*
X111645051Y-122627816D01*
X111649514Y-122619054D01*
X111697488Y-122568259D01*
X111765308Y-122551463D01*
X111831444Y-122573999D01*
X111870486Y-122619056D01*
X111874951Y-122627820D01*
X111999890Y-122799786D01*
X112150213Y-122950109D01*
X112322179Y-123075048D01*
X112322181Y-123075049D01*
X112322184Y-123075051D01*
X112511588Y-123171557D01*
X112713757Y-123237246D01*
X112923713Y-123270500D01*
X112923714Y-123270500D01*
X113136286Y-123270500D01*
X113136287Y-123270500D01*
X113346243Y-123237246D01*
X113548412Y-123171557D01*
X113737816Y-123075051D01*
X113800110Y-123029792D01*
X113909786Y-122950109D01*
X113909788Y-122950106D01*
X113909792Y-122950104D01*
X114060104Y-122799792D01*
X114060106Y-122799788D01*
X114060109Y-122799786D01*
X114185048Y-122627820D01*
X114185051Y-122627816D01*
X114189793Y-122618508D01*
X114237763Y-122567711D01*
X114305583Y-122550911D01*
X114371719Y-122573445D01*
X114410763Y-122618500D01*
X114415377Y-122627555D01*
X114540272Y-122799459D01*
X114540276Y-122799464D01*
X114690535Y-122949723D01*
X114690540Y-122949727D01*
X114862442Y-123074620D01*
X115051782Y-123171095D01*
X115253871Y-123236757D01*
X115320000Y-123247231D01*
X115320000Y-122353012D01*
X115377007Y-122385925D01*
X115504174Y-122420000D01*
X115635826Y-122420000D01*
X115762993Y-122385925D01*
X115820000Y-122353012D01*
X115820000Y-123247230D01*
X115886126Y-123236757D01*
X115886129Y-123236757D01*
X116088217Y-123171095D01*
X116277557Y-123074620D01*
X116449459Y-122949727D01*
X116449464Y-122949723D01*
X116599723Y-122799464D01*
X116599727Y-122799459D01*
X116724620Y-122627558D01*
X116729232Y-122618507D01*
X116777205Y-122567709D01*
X116845025Y-122550912D01*
X116911161Y-122573447D01*
X116950204Y-122618504D01*
X116954949Y-122627817D01*
X117079890Y-122799786D01*
X117230213Y-122950109D01*
X117402179Y-123075048D01*
X117402181Y-123075049D01*
X117402184Y-123075051D01*
X117591588Y-123171557D01*
X117793757Y-123237246D01*
X118003713Y-123270500D01*
X118003714Y-123270500D01*
X118216286Y-123270500D01*
X118216287Y-123270500D01*
X118426243Y-123237246D01*
X118628412Y-123171557D01*
X118817816Y-123075051D01*
X118880110Y-123029792D01*
X118989786Y-122950109D01*
X118989788Y-122950106D01*
X118989792Y-122950104D01*
X119140104Y-122799792D01*
X119140106Y-122799788D01*
X119140109Y-122799786D01*
X119265048Y-122627820D01*
X119265047Y-122627820D01*
X119265051Y-122627816D01*
X119269514Y-122619054D01*
X119317488Y-122568259D01*
X119385308Y-122551463D01*
X119451444Y-122573999D01*
X119490486Y-122619056D01*
X119494951Y-122627820D01*
X119619890Y-122799786D01*
X119770213Y-122950109D01*
X119942179Y-123075048D01*
X119942181Y-123075049D01*
X119942184Y-123075051D01*
X120131588Y-123171557D01*
X120333757Y-123237246D01*
X120543713Y-123270500D01*
X120543714Y-123270500D01*
X120756286Y-123270500D01*
X120756287Y-123270500D01*
X120966243Y-123237246D01*
X121168412Y-123171557D01*
X121357816Y-123075051D01*
X121420110Y-123029792D01*
X121529786Y-122950109D01*
X121529788Y-122950106D01*
X121529792Y-122950104D01*
X121680104Y-122799792D01*
X121680106Y-122799788D01*
X121680109Y-122799786D01*
X121805048Y-122627820D01*
X121805047Y-122627820D01*
X121805051Y-122627816D01*
X121809514Y-122619054D01*
X121857488Y-122568259D01*
X121925308Y-122551463D01*
X121991444Y-122573999D01*
X122030486Y-122619056D01*
X122034951Y-122627820D01*
X122159890Y-122799786D01*
X122310213Y-122950109D01*
X122482179Y-123075048D01*
X122482181Y-123075049D01*
X122482184Y-123075051D01*
X122671588Y-123171557D01*
X122873757Y-123237246D01*
X123083713Y-123270500D01*
X123083714Y-123270500D01*
X123296286Y-123270500D01*
X123296287Y-123270500D01*
X123506243Y-123237246D01*
X123708412Y-123171557D01*
X123897816Y-123075051D01*
X123960110Y-123029792D01*
X124069786Y-122950109D01*
X124069788Y-122950106D01*
X124069792Y-122950104D01*
X124220104Y-122799792D01*
X124220106Y-122799788D01*
X124220109Y-122799786D01*
X124345048Y-122627820D01*
X124345047Y-122627820D01*
X124345051Y-122627816D01*
X124349514Y-122619054D01*
X124397488Y-122568259D01*
X124465308Y-122551463D01*
X124531444Y-122573999D01*
X124570486Y-122619056D01*
X124574951Y-122627820D01*
X124699890Y-122799786D01*
X124850213Y-122950109D01*
X125022179Y-123075048D01*
X125022181Y-123075049D01*
X125022184Y-123075051D01*
X125211588Y-123171557D01*
X125413757Y-123237246D01*
X125623713Y-123270500D01*
X125623714Y-123270500D01*
X125836286Y-123270500D01*
X125836287Y-123270500D01*
X126046243Y-123237246D01*
X126248412Y-123171557D01*
X126437816Y-123075051D01*
X126500110Y-123029792D01*
X126609786Y-122950109D01*
X126609788Y-122950106D01*
X126609792Y-122950104D01*
X126760104Y-122799792D01*
X126760106Y-122799788D01*
X126760109Y-122799786D01*
X126885048Y-122627820D01*
X126885047Y-122627820D01*
X126885051Y-122627816D01*
X126889514Y-122619054D01*
X126937488Y-122568259D01*
X127005308Y-122551463D01*
X127071444Y-122573999D01*
X127110486Y-122619056D01*
X127114951Y-122627820D01*
X127239890Y-122799786D01*
X127390213Y-122950109D01*
X127562179Y-123075048D01*
X127562181Y-123075049D01*
X127562184Y-123075051D01*
X127751588Y-123171557D01*
X127953757Y-123237246D01*
X128163713Y-123270500D01*
X128163714Y-123270500D01*
X128376286Y-123270500D01*
X128376287Y-123270500D01*
X128586243Y-123237246D01*
X128788412Y-123171557D01*
X128977816Y-123075051D01*
X129040110Y-123029792D01*
X129149786Y-122950109D01*
X129149788Y-122950106D01*
X129149792Y-122950104D01*
X129300104Y-122799792D01*
X129300106Y-122799788D01*
X129300109Y-122799786D01*
X129425048Y-122627820D01*
X129425047Y-122627820D01*
X129425051Y-122627816D01*
X129429514Y-122619054D01*
X129477488Y-122568259D01*
X129545308Y-122551463D01*
X129611444Y-122573999D01*
X129650486Y-122619056D01*
X129654951Y-122627820D01*
X129779890Y-122799786D01*
X129930213Y-122950109D01*
X130102179Y-123075048D01*
X130102181Y-123075049D01*
X130102184Y-123075051D01*
X130291588Y-123171557D01*
X130493757Y-123237246D01*
X130703713Y-123270500D01*
X130703714Y-123270500D01*
X130916286Y-123270500D01*
X130916287Y-123270500D01*
X131126243Y-123237246D01*
X131328412Y-123171557D01*
X131517816Y-123075051D01*
X131580110Y-123029792D01*
X131689786Y-122950109D01*
X131689788Y-122950106D01*
X131689792Y-122950104D01*
X131840104Y-122799792D01*
X131840106Y-122799788D01*
X131840109Y-122799786D01*
X131965048Y-122627820D01*
X131965047Y-122627820D01*
X131965051Y-122627816D01*
X131969514Y-122619054D01*
X132017488Y-122568259D01*
X132085308Y-122551463D01*
X132151444Y-122573999D01*
X132190486Y-122619056D01*
X132194951Y-122627820D01*
X132319890Y-122799786D01*
X132470213Y-122950109D01*
X132642179Y-123075048D01*
X132642181Y-123075049D01*
X132642184Y-123075051D01*
X132831588Y-123171557D01*
X133033757Y-123237246D01*
X133243713Y-123270500D01*
X133243714Y-123270500D01*
X133456286Y-123270500D01*
X133456287Y-123270500D01*
X133666243Y-123237246D01*
X133868412Y-123171557D01*
X134057816Y-123075051D01*
X134120110Y-123029792D01*
X134229786Y-122950109D01*
X134229788Y-122950106D01*
X134229792Y-122950104D01*
X134380104Y-122799792D01*
X134380106Y-122799788D01*
X134380109Y-122799786D01*
X134505048Y-122627820D01*
X134505047Y-122627820D01*
X134505051Y-122627816D01*
X134509514Y-122619054D01*
X134557488Y-122568259D01*
X134625308Y-122551463D01*
X134691444Y-122573999D01*
X134730486Y-122619056D01*
X134734951Y-122627820D01*
X134859890Y-122799786D01*
X135010213Y-122950109D01*
X135182179Y-123075048D01*
X135182181Y-123075049D01*
X135182184Y-123075051D01*
X135371588Y-123171557D01*
X135573757Y-123237246D01*
X135783713Y-123270500D01*
X135783714Y-123270500D01*
X135996286Y-123270500D01*
X135996287Y-123270500D01*
X136206243Y-123237246D01*
X136408412Y-123171557D01*
X136597816Y-123075051D01*
X136660110Y-123029792D01*
X136769786Y-122950109D01*
X136769788Y-122950106D01*
X136769792Y-122950104D01*
X136920104Y-122799792D01*
X136920106Y-122799788D01*
X136920109Y-122799786D01*
X137045048Y-122627820D01*
X137045047Y-122627820D01*
X137045051Y-122627816D01*
X137049514Y-122619054D01*
X137097488Y-122568259D01*
X137165308Y-122551463D01*
X137231444Y-122573999D01*
X137270486Y-122619056D01*
X137274951Y-122627820D01*
X137399890Y-122799786D01*
X137550213Y-122950109D01*
X137722179Y-123075048D01*
X137722181Y-123075049D01*
X137722184Y-123075051D01*
X137911588Y-123171557D01*
X138113757Y-123237246D01*
X138323713Y-123270500D01*
X138323714Y-123270500D01*
X138536286Y-123270500D01*
X138536287Y-123270500D01*
X138746243Y-123237246D01*
X138948412Y-123171557D01*
X139137816Y-123075051D01*
X139200110Y-123029792D01*
X139309786Y-122950109D01*
X139309788Y-122950106D01*
X139309792Y-122950104D01*
X139460104Y-122799792D01*
X139460106Y-122799788D01*
X139460109Y-122799786D01*
X139585048Y-122627820D01*
X139585047Y-122627820D01*
X139585051Y-122627816D01*
X139589514Y-122619054D01*
X139637488Y-122568259D01*
X139705308Y-122551463D01*
X139771444Y-122573999D01*
X139810486Y-122619056D01*
X139814951Y-122627820D01*
X139939890Y-122799786D01*
X140090213Y-122950109D01*
X140262179Y-123075048D01*
X140262181Y-123075049D01*
X140262184Y-123075051D01*
X140451588Y-123171557D01*
X140653757Y-123237246D01*
X140863713Y-123270500D01*
X140863714Y-123270500D01*
X141076286Y-123270500D01*
X141076287Y-123270500D01*
X141286243Y-123237246D01*
X141488412Y-123171557D01*
X141677816Y-123075051D01*
X141740110Y-123029792D01*
X141849786Y-122950109D01*
X141849788Y-122950106D01*
X141849792Y-122950104D01*
X142000104Y-122799792D01*
X142000106Y-122799788D01*
X142000109Y-122799786D01*
X142125048Y-122627820D01*
X142125047Y-122627820D01*
X142125051Y-122627816D01*
X142129514Y-122619054D01*
X142177488Y-122568259D01*
X142245308Y-122551463D01*
X142311444Y-122573999D01*
X142350486Y-122619056D01*
X142354951Y-122627820D01*
X142479890Y-122799786D01*
X142630213Y-122950109D01*
X142802179Y-123075048D01*
X142802181Y-123075049D01*
X142802184Y-123075051D01*
X142991588Y-123171557D01*
X143193757Y-123237246D01*
X143403713Y-123270500D01*
X143403714Y-123270500D01*
X143616286Y-123270500D01*
X143616287Y-123270500D01*
X143826243Y-123237246D01*
X144028412Y-123171557D01*
X144217816Y-123075051D01*
X144280110Y-123029792D01*
X144389786Y-122950109D01*
X144389788Y-122950106D01*
X144389792Y-122950104D01*
X144540104Y-122799792D01*
X144540106Y-122799788D01*
X144540109Y-122799786D01*
X144665048Y-122627820D01*
X144665047Y-122627820D01*
X144665051Y-122627816D01*
X144669514Y-122619054D01*
X144717488Y-122568259D01*
X144785308Y-122551463D01*
X144851444Y-122573999D01*
X144890486Y-122619056D01*
X144894951Y-122627820D01*
X145019890Y-122799786D01*
X145170213Y-122950109D01*
X145342179Y-123075048D01*
X145342181Y-123075049D01*
X145342184Y-123075051D01*
X145531588Y-123171557D01*
X145733757Y-123237246D01*
X145943713Y-123270500D01*
X145943714Y-123270500D01*
X146156286Y-123270500D01*
X146156287Y-123270500D01*
X146366243Y-123237246D01*
X146568412Y-123171557D01*
X146757816Y-123075051D01*
X146820110Y-123029792D01*
X146929786Y-122950109D01*
X146929788Y-122950106D01*
X146929792Y-122950104D01*
X147080104Y-122799792D01*
X147080106Y-122799788D01*
X147080109Y-122799786D01*
X147205048Y-122627820D01*
X147205047Y-122627820D01*
X147205051Y-122627816D01*
X147301557Y-122438412D01*
X147367246Y-122236243D01*
X147397740Y-122043713D01*
X157974500Y-122043713D01*
X157974500Y-122256287D01*
X158007754Y-122466243D01*
X158060252Y-122627816D01*
X158073444Y-122668414D01*
X158169951Y-122857820D01*
X158294890Y-123029786D01*
X158445213Y-123180109D01*
X158617179Y-123305048D01*
X158617181Y-123305049D01*
X158617184Y-123305051D01*
X158806588Y-123401557D01*
X159008757Y-123467246D01*
X159218713Y-123500500D01*
X159218714Y-123500500D01*
X159431286Y-123500500D01*
X159431287Y-123500500D01*
X159641243Y-123467246D01*
X159843412Y-123401557D01*
X160032816Y-123305051D01*
X160080373Y-123270499D01*
X160204786Y-123180109D01*
X160204788Y-123180106D01*
X160204792Y-123180104D01*
X160355104Y-123029792D01*
X160355106Y-123029788D01*
X160355109Y-123029786D01*
X160480048Y-122857820D01*
X160480047Y-122857820D01*
X160480051Y-122857816D01*
X160576557Y-122668412D01*
X160642246Y-122466243D01*
X160675500Y-122256287D01*
X160675500Y-122043713D01*
X160642246Y-121833757D01*
X160576557Y-121631588D01*
X160480051Y-121442184D01*
X160480049Y-121442181D01*
X160480048Y-121442179D01*
X160355109Y-121270213D01*
X160204786Y-121119890D01*
X160032820Y-120994951D01*
X159843414Y-120898444D01*
X159843413Y-120898443D01*
X159843412Y-120898443D01*
X159641243Y-120832754D01*
X159641241Y-120832753D01*
X159641240Y-120832753D01*
X159479957Y-120807208D01*
X159431287Y-120799500D01*
X159218713Y-120799500D01*
X159170042Y-120807208D01*
X159008760Y-120832753D01*
X158806585Y-120898444D01*
X158617179Y-120994951D01*
X158445213Y-121119890D01*
X158294890Y-121270213D01*
X158169951Y-121442179D01*
X158073444Y-121631585D01*
X158007753Y-121833760D01*
X158004520Y-121854174D01*
X157974500Y-122043713D01*
X147397740Y-122043713D01*
X147400500Y-122026287D01*
X147400500Y-121813713D01*
X147367246Y-121603757D01*
X147301557Y-121401588D01*
X147205051Y-121212184D01*
X147205049Y-121212181D01*
X147205048Y-121212179D01*
X147080109Y-121040213D01*
X146929786Y-120889890D01*
X146757820Y-120764951D01*
X146568414Y-120668444D01*
X146568413Y-120668443D01*
X146568412Y-120668443D01*
X146366243Y-120602754D01*
X146366241Y-120602753D01*
X146366240Y-120602753D01*
X146204957Y-120577208D01*
X146156287Y-120569500D01*
X145943713Y-120569500D01*
X145895042Y-120577208D01*
X145733760Y-120602753D01*
X145531585Y-120668444D01*
X145342179Y-120764951D01*
X145170213Y-120889890D01*
X145019890Y-121040213D01*
X144894949Y-121212182D01*
X144890484Y-121220946D01*
X144842509Y-121271742D01*
X144774688Y-121288536D01*
X144708553Y-121265998D01*
X144669516Y-121220946D01*
X144665050Y-121212182D01*
X144540109Y-121040213D01*
X144389786Y-120889890D01*
X144217820Y-120764951D01*
X144028414Y-120668444D01*
X144028413Y-120668443D01*
X144028412Y-120668443D01*
X143826243Y-120602754D01*
X143826241Y-120602753D01*
X143826240Y-120602753D01*
X143664957Y-120577208D01*
X143616287Y-120569500D01*
X143504451Y-120569500D01*
X143437412Y-120549815D01*
X143391657Y-120497011D01*
X143381713Y-120427853D01*
X143410738Y-120364297D01*
X143416770Y-120357819D01*
X145248131Y-118526459D01*
X147187771Y-116586819D01*
X147214698Y-116572115D01*
X147240517Y-116555523D01*
X147246717Y-116554631D01*
X147249094Y-116553334D01*
X147275452Y-116550500D01*
X147400639Y-116550500D01*
X147467678Y-116570185D01*
X147488321Y-116586820D01*
X147525961Y-116624461D01*
X147525965Y-116624464D01*
X147673446Y-116723009D01*
X147673459Y-116723016D01*
X147796363Y-116773923D01*
X147837334Y-116790894D01*
X147837336Y-116790894D01*
X147837341Y-116790896D01*
X148011304Y-116825499D01*
X148011307Y-116825500D01*
X148011309Y-116825500D01*
X148188693Y-116825500D01*
X148188694Y-116825499D01*
X148246682Y-116813964D01*
X148362658Y-116790896D01*
X148362661Y-116790894D01*
X148362666Y-116790894D01*
X148526547Y-116723013D01*
X148674035Y-116624464D01*
X148799464Y-116499035D01*
X148898013Y-116351547D01*
X148965894Y-116187666D01*
X149000500Y-116013691D01*
X149000500Y-115836309D01*
X149000500Y-115836306D01*
X149000499Y-115836304D01*
X148965896Y-115662341D01*
X148965893Y-115662332D01*
X148898016Y-115498459D01*
X148898009Y-115498446D01*
X148799464Y-115350965D01*
X148799461Y-115350961D01*
X148674038Y-115225538D01*
X148674034Y-115225535D01*
X148526553Y-115126990D01*
X148526540Y-115126983D01*
X148362667Y-115059106D01*
X148362658Y-115059103D01*
X148188694Y-115024500D01*
X148188691Y-115024500D01*
X148011309Y-115024500D01*
X148011306Y-115024500D01*
X147837341Y-115059103D01*
X147837332Y-115059106D01*
X147673459Y-115126983D01*
X147673446Y-115126990D01*
X147525965Y-115225535D01*
X147525961Y-115225538D01*
X147488321Y-115263180D01*
X147426999Y-115296666D01*
X147400639Y-115299500D01*
X146903389Y-115299500D01*
X146842971Y-115311518D01*
X146799743Y-115320116D01*
X146782546Y-115323537D01*
X146668716Y-115370687D01*
X146668707Y-115370692D01*
X146566268Y-115439140D01*
X146522705Y-115482703D01*
X146479142Y-115526267D01*
X146479139Y-115526270D01*
X141427837Y-120577571D01*
X141366514Y-120611056D01*
X141301838Y-120607821D01*
X141294219Y-120605345D01*
X141286241Y-120602753D01*
X141115797Y-120575757D01*
X141076287Y-120569500D01*
X140863713Y-120569500D01*
X140815042Y-120577208D01*
X140653760Y-120602753D01*
X140451585Y-120668444D01*
X140262179Y-120764951D01*
X140090213Y-120889890D01*
X139939890Y-121040213D01*
X139814949Y-121212182D01*
X139810484Y-121220946D01*
X139762509Y-121271742D01*
X139694688Y-121288536D01*
X139628553Y-121265998D01*
X139589516Y-121220946D01*
X139585050Y-121212182D01*
X139460109Y-121040213D01*
X139309786Y-120889890D01*
X139137820Y-120764951D01*
X138948414Y-120668444D01*
X138948413Y-120668443D01*
X138948412Y-120668443D01*
X138746243Y-120602754D01*
X138746241Y-120602753D01*
X138746240Y-120602753D01*
X138584957Y-120577208D01*
X138536287Y-120569500D01*
X138323713Y-120569500D01*
X138275042Y-120577208D01*
X138113760Y-120602753D01*
X137911585Y-120668444D01*
X137722179Y-120764951D01*
X137550213Y-120889890D01*
X137399890Y-121040213D01*
X137274949Y-121212182D01*
X137270484Y-121220946D01*
X137222509Y-121271742D01*
X137154688Y-121288536D01*
X137088553Y-121265998D01*
X137049516Y-121220946D01*
X137045050Y-121212182D01*
X136920109Y-121040213D01*
X136769786Y-120889890D01*
X136597820Y-120764951D01*
X136408414Y-120668444D01*
X136408413Y-120668443D01*
X136408412Y-120668443D01*
X136206243Y-120602754D01*
X136206241Y-120602753D01*
X136206240Y-120602753D01*
X136044957Y-120577208D01*
X135996287Y-120569500D01*
X135783713Y-120569500D01*
X135735042Y-120577208D01*
X135573760Y-120602753D01*
X135371585Y-120668444D01*
X135182179Y-120764951D01*
X135010213Y-120889890D01*
X134859890Y-121040213D01*
X134734949Y-121212182D01*
X134730484Y-121220946D01*
X134682509Y-121271742D01*
X134614688Y-121288536D01*
X134548553Y-121265998D01*
X134509516Y-121220946D01*
X134505050Y-121212182D01*
X134380109Y-121040213D01*
X134229786Y-120889890D01*
X134057820Y-120764951D01*
X133868414Y-120668444D01*
X133868413Y-120668443D01*
X133868412Y-120668443D01*
X133666243Y-120602754D01*
X133666241Y-120602753D01*
X133666240Y-120602753D01*
X133504957Y-120577208D01*
X133456287Y-120569500D01*
X133243713Y-120569500D01*
X133195042Y-120577208D01*
X133033760Y-120602753D01*
X132831585Y-120668444D01*
X132642179Y-120764951D01*
X132470213Y-120889890D01*
X132319890Y-121040213D01*
X132194949Y-121212182D01*
X132190484Y-121220946D01*
X132142509Y-121271742D01*
X132074688Y-121288536D01*
X132008553Y-121265998D01*
X131969516Y-121220946D01*
X131965050Y-121212182D01*
X131840109Y-121040213D01*
X131689786Y-120889890D01*
X131517820Y-120764951D01*
X131328414Y-120668444D01*
X131328413Y-120668443D01*
X131328412Y-120668443D01*
X131126243Y-120602754D01*
X131126241Y-120602753D01*
X131126240Y-120602753D01*
X130964957Y-120577208D01*
X130916287Y-120569500D01*
X130703713Y-120569500D01*
X130655042Y-120577208D01*
X130493760Y-120602753D01*
X130291585Y-120668444D01*
X130102179Y-120764951D01*
X129930213Y-120889890D01*
X129779890Y-121040213D01*
X129654949Y-121212182D01*
X129650484Y-121220946D01*
X129602509Y-121271742D01*
X129534688Y-121288536D01*
X129468553Y-121265998D01*
X129429516Y-121220946D01*
X129425050Y-121212182D01*
X129300109Y-121040213D01*
X129149786Y-120889890D01*
X128977820Y-120764951D01*
X128788414Y-120668444D01*
X128788413Y-120668443D01*
X128788412Y-120668443D01*
X128586243Y-120602754D01*
X128586241Y-120602753D01*
X128586240Y-120602753D01*
X128424957Y-120577208D01*
X128376287Y-120569500D01*
X128163713Y-120569500D01*
X128115042Y-120577208D01*
X127953760Y-120602753D01*
X127751585Y-120668444D01*
X127562179Y-120764951D01*
X127390213Y-120889890D01*
X127239890Y-121040213D01*
X127114949Y-121212182D01*
X127110484Y-121220946D01*
X127062509Y-121271742D01*
X126994688Y-121288536D01*
X126928553Y-121265998D01*
X126889516Y-121220946D01*
X126885050Y-121212182D01*
X126760109Y-121040213D01*
X126609786Y-120889890D01*
X126437820Y-120764951D01*
X126248414Y-120668444D01*
X126248413Y-120668443D01*
X126248412Y-120668443D01*
X126046243Y-120602754D01*
X126046241Y-120602753D01*
X126046240Y-120602753D01*
X125884957Y-120577208D01*
X125836287Y-120569500D01*
X125623713Y-120569500D01*
X125575042Y-120577208D01*
X125413760Y-120602753D01*
X125211585Y-120668444D01*
X125022179Y-120764951D01*
X124850213Y-120889890D01*
X124699890Y-121040213D01*
X124574949Y-121212182D01*
X124570484Y-121220946D01*
X124522509Y-121271742D01*
X124454688Y-121288536D01*
X124388553Y-121265998D01*
X124349516Y-121220946D01*
X124345050Y-121212182D01*
X124220109Y-121040213D01*
X124069786Y-120889890D01*
X123897820Y-120764951D01*
X123708414Y-120668444D01*
X123708413Y-120668443D01*
X123708412Y-120668443D01*
X123506243Y-120602754D01*
X123506241Y-120602753D01*
X123506240Y-120602753D01*
X123344957Y-120577208D01*
X123296287Y-120569500D01*
X123083713Y-120569500D01*
X123035042Y-120577208D01*
X122873760Y-120602753D01*
X122671585Y-120668444D01*
X122482179Y-120764951D01*
X122310213Y-120889890D01*
X122159890Y-121040213D01*
X122034949Y-121212182D01*
X122030484Y-121220946D01*
X121982509Y-121271742D01*
X121914688Y-121288536D01*
X121848553Y-121265998D01*
X121809516Y-121220946D01*
X121805050Y-121212182D01*
X121680109Y-121040213D01*
X121529786Y-120889890D01*
X121357820Y-120764951D01*
X121168414Y-120668444D01*
X121168413Y-120668443D01*
X121168412Y-120668443D01*
X120966243Y-120602754D01*
X120966241Y-120602753D01*
X120966240Y-120602753D01*
X120804957Y-120577208D01*
X120756287Y-120569500D01*
X120543713Y-120569500D01*
X120495042Y-120577208D01*
X120333760Y-120602753D01*
X120131585Y-120668444D01*
X119942179Y-120764951D01*
X119770213Y-120889890D01*
X119619890Y-121040213D01*
X119494949Y-121212182D01*
X119490484Y-121220946D01*
X119442509Y-121271742D01*
X119374688Y-121288536D01*
X119308553Y-121265998D01*
X119269516Y-121220946D01*
X119265050Y-121212182D01*
X119140109Y-121040213D01*
X118989786Y-120889890D01*
X118817820Y-120764951D01*
X118628414Y-120668444D01*
X118628413Y-120668443D01*
X118628412Y-120668443D01*
X118426243Y-120602754D01*
X118426241Y-120602753D01*
X118426240Y-120602753D01*
X118264957Y-120577208D01*
X118216287Y-120569500D01*
X118003713Y-120569500D01*
X117955042Y-120577208D01*
X117793760Y-120602753D01*
X117591585Y-120668444D01*
X117402179Y-120764951D01*
X117230213Y-120889890D01*
X117079890Y-121040213D01*
X116954949Y-121212182D01*
X116950202Y-121221499D01*
X116902227Y-121272293D01*
X116834405Y-121289087D01*
X116768271Y-121266548D01*
X116729234Y-121221495D01*
X116724622Y-121212444D01*
X116599727Y-121040540D01*
X116599723Y-121040535D01*
X116449464Y-120890276D01*
X116449459Y-120890272D01*
X116277557Y-120765379D01*
X116088215Y-120668903D01*
X115886124Y-120603241D01*
X115820000Y-120592768D01*
X115820000Y-121486988D01*
X115762993Y-121454075D01*
X115635826Y-121420000D01*
X115504174Y-121420000D01*
X115377007Y-121454075D01*
X115320000Y-121486988D01*
X115320000Y-120592768D01*
X115319999Y-120592768D01*
X115253875Y-120603241D01*
X115051784Y-120668903D01*
X114862442Y-120765379D01*
X114690540Y-120890272D01*
X114690535Y-120890276D01*
X114540276Y-121040535D01*
X114540272Y-121040540D01*
X114415378Y-121212443D01*
X114410762Y-121221502D01*
X114362784Y-121272295D01*
X114294963Y-121289087D01*
X114228829Y-121266546D01*
X114189794Y-121221493D01*
X114185051Y-121212184D01*
X114185049Y-121212181D01*
X114185048Y-121212179D01*
X114060109Y-121040213D01*
X113909786Y-120889890D01*
X113737820Y-120764951D01*
X113548414Y-120668444D01*
X113548413Y-120668443D01*
X113548412Y-120668443D01*
X113346243Y-120602754D01*
X113346241Y-120602753D01*
X113346240Y-120602753D01*
X113184957Y-120577208D01*
X113136287Y-120569500D01*
X112923713Y-120569500D01*
X112875042Y-120577208D01*
X112713760Y-120602753D01*
X112511585Y-120668444D01*
X112322179Y-120764951D01*
X112150213Y-120889890D01*
X111999890Y-121040213D01*
X111874949Y-121212182D01*
X111870484Y-121220946D01*
X111822509Y-121271742D01*
X111754688Y-121288536D01*
X111688553Y-121265998D01*
X111649516Y-121220946D01*
X111645050Y-121212182D01*
X111520109Y-121040213D01*
X111369786Y-120889890D01*
X111197820Y-120764951D01*
X111008414Y-120668444D01*
X111008413Y-120668443D01*
X111008412Y-120668443D01*
X110806243Y-120602754D01*
X110806241Y-120602753D01*
X110806240Y-120602753D01*
X110644957Y-120577208D01*
X110596287Y-120569500D01*
X110383713Y-120569500D01*
X110335042Y-120577208D01*
X110173760Y-120602753D01*
X109971585Y-120668444D01*
X109782179Y-120764951D01*
X109610215Y-120889889D01*
X109496673Y-121003431D01*
X109435350Y-121036915D01*
X109365658Y-121031931D01*
X109309725Y-120990059D01*
X109292810Y-120959082D01*
X109243797Y-120827671D01*
X109243793Y-120827664D01*
X109157547Y-120712455D01*
X109157544Y-120712452D01*
X109042335Y-120626206D01*
X109042328Y-120626202D01*
X108907482Y-120575908D01*
X108907483Y-120575908D01*
X108847883Y-120569501D01*
X108847881Y-120569500D01*
X108847873Y-120569500D01*
X108847864Y-120569500D01*
X107052129Y-120569500D01*
X107052123Y-120569501D01*
X106992516Y-120575908D01*
X106857671Y-120626202D01*
X106857664Y-120626206D01*
X106742455Y-120712452D01*
X106742452Y-120712455D01*
X106656206Y-120827664D01*
X106656202Y-120827671D01*
X106605908Y-120962517D01*
X106599501Y-121022116D01*
X106599500Y-121022135D01*
X105664500Y-121022135D01*
X105664500Y-118808543D01*
X112699499Y-118808543D01*
X112737947Y-119001829D01*
X112737950Y-119001839D01*
X112813364Y-119183907D01*
X112813371Y-119183920D01*
X112922860Y-119347781D01*
X112922863Y-119347785D01*
X113062214Y-119487136D01*
X113062218Y-119487139D01*
X113226079Y-119596628D01*
X113226092Y-119596635D01*
X113408160Y-119672049D01*
X113408165Y-119672051D01*
X113408169Y-119672051D01*
X113408170Y-119672052D01*
X113601456Y-119710500D01*
X113601459Y-119710500D01*
X113798543Y-119710500D01*
X113928582Y-119684632D01*
X113991835Y-119672051D01*
X114081433Y-119634938D01*
X114128884Y-119625500D01*
X140598543Y-119625500D01*
X140641618Y-119616931D01*
X140743669Y-119596632D01*
X140791836Y-119587051D01*
X140845165Y-119564961D01*
X140973914Y-119511632D01*
X141137782Y-119402139D01*
X141277139Y-119262782D01*
X141277139Y-119262780D01*
X141287347Y-119252573D01*
X141287348Y-119252570D01*
X152277614Y-108262305D01*
X152338935Y-108228822D01*
X152408627Y-108233806D01*
X152464560Y-108275678D01*
X152468397Y-108281100D01*
X152472861Y-108287782D01*
X152612215Y-108427136D01*
X152612219Y-108427139D01*
X152776079Y-108536627D01*
X152776083Y-108536629D01*
X152776086Y-108536631D01*
X152958164Y-108612051D01*
X153151455Y-108650499D01*
X153151458Y-108650500D01*
X153151460Y-108650500D01*
X153348542Y-108650500D01*
X153348543Y-108650499D01*
X153541836Y-108612051D01*
X153723914Y-108536631D01*
X153887781Y-108427139D01*
X153927570Y-108387348D01*
X153927574Y-108387346D01*
X153937780Y-108377139D01*
X153937782Y-108377139D01*
X154077139Y-108237782D01*
X154086325Y-108224035D01*
X154186632Y-108073914D01*
X154262052Y-107891835D01*
X154300500Y-107698540D01*
X154300500Y-107610249D01*
X154320185Y-107543210D01*
X154372989Y-107497455D01*
X154377016Y-107495701D01*
X154398914Y-107486631D01*
X154562781Y-107377139D01*
X154702139Y-107237781D01*
X154811631Y-107073914D01*
X154887051Y-106891835D01*
X154925500Y-106698540D01*
X154925500Y-106501459D01*
X154925500Y-106501456D01*
X154925499Y-106501454D01*
X154908999Y-106418503D01*
X154887051Y-106308164D01*
X154811631Y-106126085D01*
X154811630Y-106126084D01*
X154811627Y-106126078D01*
X154702140Y-105962219D01*
X154702139Y-105962218D01*
X154624007Y-105884086D01*
X154537782Y-105797861D01*
X154537781Y-105797860D01*
X154537780Y-105797859D01*
X154373920Y-105688371D01*
X154373911Y-105688366D01*
X154301315Y-105658296D01*
X154245165Y-105635038D01*
X154191836Y-105612949D01*
X154191832Y-105612948D01*
X154191828Y-105612946D01*
X154095188Y-105593724D01*
X153998544Y-105574500D01*
X153998541Y-105574500D01*
X153398541Y-105574500D01*
X152648540Y-105574500D01*
X152451459Y-105574500D01*
X152451456Y-105574500D01*
X152258171Y-105612946D01*
X152258167Y-105612948D01*
X152258165Y-105612948D01*
X152258164Y-105612949D01*
X152182745Y-105644188D01*
X152182743Y-105644189D01*
X152076089Y-105688366D01*
X152076079Y-105688371D01*
X152007634Y-105734106D01*
X151912217Y-105797860D01*
X151912214Y-105797863D01*
X140121899Y-117588181D01*
X140060576Y-117621666D01*
X140034218Y-117624500D01*
X113601457Y-117624500D01*
X113408170Y-117662947D01*
X113408160Y-117662950D01*
X113226092Y-117738364D01*
X113226079Y-117738371D01*
X113062218Y-117847860D01*
X113062214Y-117847863D01*
X112922863Y-117987214D01*
X112922860Y-117987218D01*
X112813371Y-118151079D01*
X112813364Y-118151092D01*
X112737950Y-118333160D01*
X112737947Y-118333170D01*
X112699500Y-118526456D01*
X112699500Y-118526459D01*
X112699500Y-118808541D01*
X112699500Y-118808543D01*
X112699499Y-118808543D01*
X105664500Y-118808543D01*
X105664500Y-101493713D01*
X116759500Y-101493713D01*
X116759500Y-101706287D01*
X116792754Y-101916243D01*
X116849890Y-102092090D01*
X116858444Y-102118414D01*
X116954951Y-102307820D01*
X117079890Y-102479786D01*
X117230213Y-102630109D01*
X117402179Y-102755048D01*
X117402181Y-102755049D01*
X117402184Y-102755051D01*
X117591588Y-102851557D01*
X117793757Y-102917246D01*
X118003713Y-102950500D01*
X118003714Y-102950500D01*
X118216286Y-102950500D01*
X118216287Y-102950500D01*
X118426243Y-102917246D01*
X118628412Y-102851557D01*
X118817816Y-102755051D01*
X118897085Y-102697459D01*
X118989786Y-102630109D01*
X118989788Y-102630106D01*
X118989792Y-102630104D01*
X119140104Y-102479792D01*
X119140106Y-102479788D01*
X119140109Y-102479786D01*
X119265048Y-102307820D01*
X119265047Y-102307820D01*
X119265051Y-102307816D01*
X119269514Y-102299054D01*
X119317488Y-102248259D01*
X119385308Y-102231463D01*
X119451444Y-102253999D01*
X119490486Y-102299056D01*
X119494951Y-102307820D01*
X119619890Y-102479786D01*
X119770213Y-102630109D01*
X119942179Y-102755048D01*
X119942181Y-102755049D01*
X119942184Y-102755051D01*
X120131588Y-102851557D01*
X120333757Y-102917246D01*
X120543713Y-102950500D01*
X120543714Y-102950500D01*
X120756286Y-102950500D01*
X120756287Y-102950500D01*
X120966243Y-102917246D01*
X121168412Y-102851557D01*
X121357816Y-102755051D01*
X121437085Y-102697459D01*
X121529786Y-102630109D01*
X121529788Y-102630106D01*
X121529792Y-102630104D01*
X121680104Y-102479792D01*
X121680106Y-102479788D01*
X121680109Y-102479786D01*
X121805048Y-102307820D01*
X121805047Y-102307820D01*
X121805051Y-102307816D01*
X121809514Y-102299054D01*
X121857488Y-102248259D01*
X121925308Y-102231463D01*
X121991444Y-102253999D01*
X122030486Y-102299056D01*
X122034951Y-102307820D01*
X122159890Y-102479786D01*
X122310213Y-102630109D01*
X122482179Y-102755048D01*
X122482181Y-102755049D01*
X122482184Y-102755051D01*
X122671588Y-102851557D01*
X122873757Y-102917246D01*
X123083713Y-102950500D01*
X123083714Y-102950500D01*
X123296286Y-102950500D01*
X123296287Y-102950500D01*
X123506243Y-102917246D01*
X123708412Y-102851557D01*
X123897816Y-102755051D01*
X123977085Y-102697459D01*
X124069786Y-102630109D01*
X124069788Y-102630106D01*
X124069792Y-102630104D01*
X124220104Y-102479792D01*
X124220106Y-102479788D01*
X124220109Y-102479786D01*
X124345048Y-102307820D01*
X124345047Y-102307820D01*
X124345051Y-102307816D01*
X124349514Y-102299054D01*
X124397488Y-102248259D01*
X124465308Y-102231463D01*
X124531444Y-102253999D01*
X124570486Y-102299056D01*
X124574951Y-102307820D01*
X124699890Y-102479786D01*
X124850213Y-102630109D01*
X125022179Y-102755048D01*
X125022181Y-102755049D01*
X125022184Y-102755051D01*
X125211588Y-102851557D01*
X125413757Y-102917246D01*
X125623713Y-102950500D01*
X125623714Y-102950500D01*
X125836286Y-102950500D01*
X125836287Y-102950500D01*
X126046243Y-102917246D01*
X126248412Y-102851557D01*
X126437816Y-102755051D01*
X126517085Y-102697459D01*
X126609786Y-102630109D01*
X126609788Y-102630106D01*
X126609792Y-102630104D01*
X126760104Y-102479792D01*
X126760106Y-102479788D01*
X126760109Y-102479786D01*
X126885048Y-102307820D01*
X126885047Y-102307820D01*
X126885051Y-102307816D01*
X126889514Y-102299054D01*
X126937488Y-102248259D01*
X127005308Y-102231463D01*
X127071444Y-102253999D01*
X127110486Y-102299056D01*
X127114951Y-102307820D01*
X127239890Y-102479786D01*
X127390213Y-102630109D01*
X127562179Y-102755048D01*
X127562181Y-102755049D01*
X127562184Y-102755051D01*
X127751588Y-102851557D01*
X127953757Y-102917246D01*
X128163713Y-102950500D01*
X128163714Y-102950500D01*
X128376286Y-102950500D01*
X128376287Y-102950500D01*
X128586243Y-102917246D01*
X128788412Y-102851557D01*
X128977816Y-102755051D01*
X129057085Y-102697459D01*
X129149786Y-102630109D01*
X129149788Y-102630106D01*
X129149792Y-102630104D01*
X129300104Y-102479792D01*
X129300106Y-102479788D01*
X129300109Y-102479786D01*
X129425048Y-102307820D01*
X129425047Y-102307820D01*
X129425051Y-102307816D01*
X129429514Y-102299054D01*
X129477488Y-102248259D01*
X129545308Y-102231463D01*
X129611444Y-102253999D01*
X129650486Y-102299056D01*
X129654951Y-102307820D01*
X129779890Y-102479786D01*
X129930213Y-102630109D01*
X130102179Y-102755048D01*
X130102181Y-102755049D01*
X130102184Y-102755051D01*
X130291588Y-102851557D01*
X130493757Y-102917246D01*
X130703713Y-102950500D01*
X130703714Y-102950500D01*
X130916286Y-102950500D01*
X130916287Y-102950500D01*
X131126243Y-102917246D01*
X131328412Y-102851557D01*
X131517816Y-102755051D01*
X131597085Y-102697459D01*
X131689786Y-102630109D01*
X131689788Y-102630106D01*
X131689792Y-102630104D01*
X131840104Y-102479792D01*
X131840106Y-102479788D01*
X131840109Y-102479786D01*
X131965048Y-102307820D01*
X131965047Y-102307820D01*
X131965051Y-102307816D01*
X131969514Y-102299054D01*
X132017488Y-102248259D01*
X132085308Y-102231463D01*
X132151444Y-102253999D01*
X132190486Y-102299056D01*
X132194951Y-102307820D01*
X132319890Y-102479786D01*
X132470213Y-102630109D01*
X132642179Y-102755048D01*
X132642181Y-102755049D01*
X132642184Y-102755051D01*
X132831588Y-102851557D01*
X133033757Y-102917246D01*
X133243713Y-102950500D01*
X133243714Y-102950500D01*
X133456286Y-102950500D01*
X133456287Y-102950500D01*
X133666243Y-102917246D01*
X133681837Y-102912178D01*
X133751676Y-102910182D01*
X133807837Y-102942428D01*
X138793263Y-107927855D01*
X138793267Y-107927858D01*
X138895710Y-107996309D01*
X138895711Y-107996309D01*
X138895715Y-107996312D01*
X138962397Y-108023932D01*
X139009548Y-108043463D01*
X139029597Y-108047451D01*
X139094624Y-108060385D01*
X139130392Y-108067501D01*
X139130394Y-108067501D01*
X139259721Y-108067501D01*
X139259741Y-108067500D01*
X146797407Y-108067500D01*
X146857829Y-108055481D01*
X146918252Y-108043463D01*
X146951592Y-108029652D01*
X147032086Y-107996312D01*
X147113613Y-107941836D01*
X147134533Y-107927858D01*
X147221658Y-107840733D01*
X147221659Y-107840730D01*
X150777657Y-104284734D01*
X150846111Y-104182286D01*
X150893263Y-104068452D01*
X150917300Y-103947607D01*
X150917300Y-103824394D01*
X150917300Y-103770317D01*
X150936985Y-103703278D01*
X150938198Y-103701426D01*
X150975517Y-103645575D01*
X151039013Y-103550547D01*
X151106894Y-103386666D01*
X151115782Y-103341987D01*
X151141499Y-103212695D01*
X151141500Y-103212693D01*
X151141500Y-103035306D01*
X151141499Y-103035304D01*
X151106896Y-102861341D01*
X151106893Y-102861332D01*
X151039016Y-102697459D01*
X151039009Y-102697446D01*
X150940464Y-102549965D01*
X150940461Y-102549961D01*
X150815038Y-102424538D01*
X150815034Y-102424535D01*
X150667553Y-102325990D01*
X150667540Y-102325983D01*
X150503667Y-102258106D01*
X150503658Y-102258103D01*
X150329694Y-102223500D01*
X150329691Y-102223500D01*
X150152309Y-102223500D01*
X150152306Y-102223500D01*
X149978341Y-102258103D01*
X149978332Y-102258106D01*
X149814459Y-102325983D01*
X149814446Y-102325990D01*
X149666965Y-102424535D01*
X149666961Y-102424538D01*
X149541538Y-102549961D01*
X149541535Y-102549965D01*
X149442990Y-102697446D01*
X149442983Y-102697459D01*
X149375106Y-102861332D01*
X149375103Y-102861341D01*
X149340500Y-103035304D01*
X149340500Y-103212695D01*
X149375103Y-103386658D01*
X149375106Y-103386667D01*
X149442983Y-103550540D01*
X149442990Y-103550553D01*
X149506482Y-103645575D01*
X149527360Y-103712253D01*
X149508875Y-103779633D01*
X149491061Y-103802147D01*
X148934111Y-104359097D01*
X148872788Y-104392582D01*
X148803096Y-104387598D01*
X148747163Y-104345726D01*
X148722746Y-104280262D01*
X148724814Y-104247220D01*
X148728500Y-104228693D01*
X148728500Y-104051306D01*
X148728499Y-104051304D01*
X148693896Y-103877341D01*
X148693893Y-103877332D01*
X148626016Y-103713459D01*
X148626009Y-103713446D01*
X148527464Y-103565965D01*
X148527461Y-103565961D01*
X148402038Y-103440538D01*
X148402034Y-103440535D01*
X148254553Y-103341990D01*
X148254540Y-103341983D01*
X148090667Y-103274106D01*
X148090658Y-103274103D01*
X147916694Y-103239500D01*
X147916691Y-103239500D01*
X147739309Y-103239500D01*
X147739306Y-103239500D01*
X147565341Y-103274103D01*
X147565332Y-103274106D01*
X147401459Y-103341983D01*
X147401446Y-103341990D01*
X147253965Y-103440535D01*
X147253961Y-103440538D01*
X147128538Y-103565961D01*
X147128535Y-103565965D01*
X147029990Y-103713446D01*
X147029983Y-103713459D01*
X146962106Y-103877332D01*
X146962103Y-103877341D01*
X146927500Y-104051304D01*
X146927500Y-104228695D01*
X146961491Y-104399581D01*
X146955264Y-104469173D01*
X146927555Y-104511453D01*
X146513029Y-104925981D01*
X146451706Y-104959466D01*
X146425348Y-104962300D01*
X140188252Y-104962300D01*
X140121213Y-104942615D01*
X140100571Y-104925981D01*
X138336771Y-103162181D01*
X138303286Y-103100858D01*
X138308270Y-103031166D01*
X138350142Y-102975233D01*
X138415606Y-102950816D01*
X138424452Y-102950500D01*
X138536286Y-102950500D01*
X138536287Y-102950500D01*
X138746243Y-102917246D01*
X138948412Y-102851557D01*
X139137816Y-102755051D01*
X139217085Y-102697459D01*
X139309786Y-102630109D01*
X139309788Y-102630106D01*
X139309792Y-102630104D01*
X139460104Y-102479792D01*
X139460106Y-102479788D01*
X139460109Y-102479786D01*
X139585048Y-102307820D01*
X139585047Y-102307820D01*
X139585051Y-102307816D01*
X139589514Y-102299054D01*
X139637488Y-102248259D01*
X139705308Y-102231463D01*
X139771444Y-102253999D01*
X139810486Y-102299056D01*
X139814951Y-102307820D01*
X139939890Y-102479786D01*
X140090213Y-102630109D01*
X140262179Y-102755048D01*
X140262181Y-102755049D01*
X140262184Y-102755051D01*
X140451588Y-102851557D01*
X140653757Y-102917246D01*
X140863713Y-102950500D01*
X140863714Y-102950500D01*
X141076286Y-102950500D01*
X141076287Y-102950500D01*
X141286243Y-102917246D01*
X141488412Y-102851557D01*
X141677816Y-102755051D01*
X141757085Y-102697459D01*
X141849786Y-102630109D01*
X141849788Y-102630106D01*
X141849792Y-102630104D01*
X142000104Y-102479792D01*
X142000106Y-102479788D01*
X142000109Y-102479786D01*
X142125048Y-102307820D01*
X142125047Y-102307820D01*
X142125051Y-102307816D01*
X142129514Y-102299054D01*
X142177488Y-102248259D01*
X142245308Y-102231463D01*
X142311444Y-102253999D01*
X142350486Y-102299056D01*
X142354951Y-102307820D01*
X142479890Y-102479786D01*
X142630213Y-102630109D01*
X142802179Y-102755048D01*
X142802181Y-102755049D01*
X142802184Y-102755051D01*
X142991588Y-102851557D01*
X143193757Y-102917246D01*
X143403713Y-102950500D01*
X143403714Y-102950500D01*
X143616286Y-102950500D01*
X143616287Y-102950500D01*
X143826243Y-102917246D01*
X144028412Y-102851557D01*
X144217816Y-102755051D01*
X144304147Y-102692328D01*
X144389784Y-102630110D01*
X144389784Y-102630109D01*
X144389792Y-102630104D01*
X144503329Y-102516566D01*
X144564648Y-102483084D01*
X144634340Y-102488068D01*
X144690274Y-102529939D01*
X144707189Y-102560917D01*
X144756202Y-102692328D01*
X144756206Y-102692335D01*
X144842452Y-102807544D01*
X144842455Y-102807547D01*
X144957664Y-102893793D01*
X144957671Y-102893797D01*
X145092517Y-102944091D01*
X145092516Y-102944091D01*
X145099444Y-102944835D01*
X145152127Y-102950500D01*
X146947872Y-102950499D01*
X147007483Y-102944091D01*
X147142331Y-102893796D01*
X147257546Y-102807546D01*
X147343796Y-102692331D01*
X147394091Y-102557483D01*
X147400500Y-102497873D01*
X147400499Y-100702128D01*
X147394091Y-100642517D01*
X147392810Y-100639083D01*
X147343797Y-100507671D01*
X147343793Y-100507664D01*
X147257547Y-100392455D01*
X147257544Y-100392452D01*
X147142335Y-100306206D01*
X147142328Y-100306202D01*
X147007482Y-100255908D01*
X147007483Y-100255908D01*
X146947883Y-100249501D01*
X146947881Y-100249500D01*
X146947873Y-100249500D01*
X146947864Y-100249500D01*
X145152129Y-100249500D01*
X145152123Y-100249501D01*
X145092516Y-100255908D01*
X144957671Y-100306202D01*
X144957664Y-100306206D01*
X144842455Y-100392452D01*
X144842452Y-100392455D01*
X144756206Y-100507664D01*
X144756203Y-100507669D01*
X144707189Y-100639083D01*
X144665317Y-100695016D01*
X144599853Y-100719433D01*
X144531580Y-100704581D01*
X144503326Y-100683430D01*
X144389786Y-100569890D01*
X144217820Y-100444951D01*
X144028414Y-100348444D01*
X144028413Y-100348443D01*
X144028412Y-100348443D01*
X143826243Y-100282754D01*
X143826241Y-100282753D01*
X143826240Y-100282753D01*
X143664957Y-100257208D01*
X143616287Y-100249500D01*
X143403713Y-100249500D01*
X143355042Y-100257208D01*
X143193760Y-100282753D01*
X142991585Y-100348444D01*
X142802179Y-100444951D01*
X142630213Y-100569890D01*
X142479890Y-100720213D01*
X142354949Y-100892182D01*
X142350484Y-100900946D01*
X142302509Y-100951742D01*
X142234688Y-100968536D01*
X142168553Y-100945998D01*
X142129516Y-100900946D01*
X142125050Y-100892182D01*
X142000109Y-100720213D01*
X141849786Y-100569890D01*
X141677820Y-100444951D01*
X141488414Y-100348444D01*
X141488413Y-100348443D01*
X141488412Y-100348443D01*
X141286243Y-100282754D01*
X141286241Y-100282753D01*
X141286240Y-100282753D01*
X141124957Y-100257208D01*
X141076287Y-100249500D01*
X140863713Y-100249500D01*
X140815042Y-100257208D01*
X140653760Y-100282753D01*
X140451585Y-100348444D01*
X140262179Y-100444951D01*
X140090213Y-100569890D01*
X139939890Y-100720213D01*
X139814949Y-100892182D01*
X139810484Y-100900946D01*
X139762509Y-100951742D01*
X139694688Y-100968536D01*
X139628553Y-100945998D01*
X139589516Y-100900946D01*
X139585050Y-100892182D01*
X139460109Y-100720213D01*
X139309786Y-100569890D01*
X139137820Y-100444951D01*
X138948414Y-100348444D01*
X138948413Y-100348443D01*
X138948412Y-100348443D01*
X138746243Y-100282754D01*
X138746241Y-100282753D01*
X138746240Y-100282753D01*
X138584957Y-100257208D01*
X138536287Y-100249500D01*
X138323713Y-100249500D01*
X138275042Y-100257208D01*
X138113760Y-100282753D01*
X137911585Y-100348444D01*
X137722179Y-100444951D01*
X137550213Y-100569890D01*
X137399890Y-100720213D01*
X137274949Y-100892182D01*
X137270484Y-100900946D01*
X137222509Y-100951742D01*
X137154688Y-100968536D01*
X137088553Y-100945998D01*
X137049516Y-100900946D01*
X137045050Y-100892182D01*
X136920109Y-100720213D01*
X136769786Y-100569890D01*
X136597820Y-100444951D01*
X136408414Y-100348444D01*
X136408413Y-100348443D01*
X136408412Y-100348443D01*
X136206243Y-100282754D01*
X136206241Y-100282753D01*
X136206240Y-100282753D01*
X136044957Y-100257208D01*
X135996287Y-100249500D01*
X135783713Y-100249500D01*
X135735042Y-100257208D01*
X135573760Y-100282753D01*
X135371585Y-100348444D01*
X135182179Y-100444951D01*
X135010213Y-100569890D01*
X134859890Y-100720213D01*
X134734949Y-100892182D01*
X134730484Y-100900946D01*
X134682509Y-100951742D01*
X134614688Y-100968536D01*
X134548553Y-100945998D01*
X134509516Y-100900946D01*
X134505050Y-100892182D01*
X134380109Y-100720213D01*
X134229786Y-100569890D01*
X134057820Y-100444951D01*
X133868414Y-100348444D01*
X133868413Y-100348443D01*
X133868412Y-100348443D01*
X133666243Y-100282754D01*
X133666241Y-100282753D01*
X133666240Y-100282753D01*
X133504957Y-100257208D01*
X133456287Y-100249500D01*
X133243713Y-100249500D01*
X133195042Y-100257208D01*
X133033760Y-100282753D01*
X132831585Y-100348444D01*
X132642179Y-100444951D01*
X132470213Y-100569890D01*
X132319890Y-100720213D01*
X132194949Y-100892182D01*
X132190484Y-100900946D01*
X132142509Y-100951742D01*
X132074688Y-100968536D01*
X132008553Y-100945998D01*
X131969516Y-100900946D01*
X131965050Y-100892182D01*
X131840109Y-100720213D01*
X131689786Y-100569890D01*
X131517820Y-100444951D01*
X131328414Y-100348444D01*
X131328413Y-100348443D01*
X131328412Y-100348443D01*
X131126243Y-100282754D01*
X131126241Y-100282753D01*
X131126240Y-100282753D01*
X130964957Y-100257208D01*
X130916287Y-100249500D01*
X130703713Y-100249500D01*
X130655042Y-100257208D01*
X130493760Y-100282753D01*
X130291585Y-100348444D01*
X130102179Y-100444951D01*
X129930213Y-100569890D01*
X129779890Y-100720213D01*
X129654949Y-100892182D01*
X129650484Y-100900946D01*
X129602509Y-100951742D01*
X129534688Y-100968536D01*
X129468553Y-100945998D01*
X129429516Y-100900946D01*
X129425050Y-100892182D01*
X129300109Y-100720213D01*
X129149786Y-100569890D01*
X128977820Y-100444951D01*
X128788414Y-100348444D01*
X128788413Y-100348443D01*
X128788412Y-100348443D01*
X128586243Y-100282754D01*
X128586241Y-100282753D01*
X128586240Y-100282753D01*
X128424957Y-100257208D01*
X128376287Y-100249500D01*
X128163713Y-100249500D01*
X128115042Y-100257208D01*
X127953760Y-100282753D01*
X127751585Y-100348444D01*
X127562179Y-100444951D01*
X127390213Y-100569890D01*
X127239890Y-100720213D01*
X127114949Y-100892182D01*
X127110484Y-100900946D01*
X127062509Y-100951742D01*
X126994688Y-100968536D01*
X126928553Y-100945998D01*
X126889516Y-100900946D01*
X126885050Y-100892182D01*
X126760109Y-100720213D01*
X126609786Y-100569890D01*
X126437820Y-100444951D01*
X126248414Y-100348444D01*
X126248413Y-100348443D01*
X126248412Y-100348443D01*
X126046243Y-100282754D01*
X126046241Y-100282753D01*
X126046240Y-100282753D01*
X125884957Y-100257208D01*
X125836287Y-100249500D01*
X125623713Y-100249500D01*
X125575042Y-100257208D01*
X125413760Y-100282753D01*
X125211585Y-100348444D01*
X125022179Y-100444951D01*
X124850213Y-100569890D01*
X124699890Y-100720213D01*
X124574949Y-100892182D01*
X124570484Y-100900946D01*
X124522509Y-100951742D01*
X124454688Y-100968536D01*
X124388553Y-100945998D01*
X124349516Y-100900946D01*
X124345050Y-100892182D01*
X124220109Y-100720213D01*
X124069786Y-100569890D01*
X123897820Y-100444951D01*
X123708414Y-100348444D01*
X123708413Y-100348443D01*
X123708412Y-100348443D01*
X123506243Y-100282754D01*
X123506241Y-100282753D01*
X123506240Y-100282753D01*
X123344957Y-100257208D01*
X123296287Y-100249500D01*
X123184451Y-100249500D01*
X123117412Y-100229815D01*
X123071657Y-100177011D01*
X123061713Y-100107853D01*
X123090738Y-100044297D01*
X123096770Y-100037819D01*
X123697771Y-99436819D01*
X123759094Y-99403334D01*
X123785452Y-99400500D01*
X149010548Y-99400500D01*
X149077587Y-99420185D01*
X149098229Y-99436819D01*
X151717181Y-102055771D01*
X151750666Y-102117094D01*
X151753500Y-102143452D01*
X151753500Y-102196695D01*
X151788103Y-102370658D01*
X151788106Y-102370667D01*
X151855983Y-102534540D01*
X151855990Y-102534553D01*
X151954535Y-102682034D01*
X151954538Y-102682038D01*
X152079961Y-102807461D01*
X152079965Y-102807464D01*
X152227446Y-102906009D01*
X152227459Y-102906016D01*
X152319382Y-102944091D01*
X152391334Y-102973894D01*
X152391336Y-102973894D01*
X152391341Y-102973896D01*
X152565304Y-103008499D01*
X152565307Y-103008500D01*
X152565309Y-103008500D01*
X152742693Y-103008500D01*
X152742694Y-103008499D01*
X152800682Y-102996964D01*
X152916658Y-102973896D01*
X152916661Y-102973894D01*
X152916666Y-102973894D01*
X153070482Y-102910182D01*
X153080540Y-102906016D01*
X153080540Y-102906015D01*
X153080547Y-102906013D01*
X153228035Y-102807464D01*
X153353464Y-102682035D01*
X153452013Y-102534547D01*
X153519894Y-102370666D01*
X153528782Y-102325987D01*
X153554499Y-102196695D01*
X153554500Y-102196693D01*
X153554500Y-102019306D01*
X153554499Y-102019304D01*
X153519896Y-101845341D01*
X153519893Y-101845332D01*
X153452016Y-101681459D01*
X153452009Y-101681446D01*
X153353464Y-101533965D01*
X153353461Y-101533961D01*
X153228038Y-101408538D01*
X153228034Y-101408535D01*
X153080553Y-101309990D01*
X153080540Y-101309983D01*
X152916667Y-101242106D01*
X152916658Y-101242103D01*
X152742694Y-101207500D01*
X152742691Y-101207500D01*
X152689452Y-101207500D01*
X152622413Y-101187815D01*
X152601771Y-101171181D01*
X149814150Y-98383560D01*
X149806860Y-98376270D01*
X149806858Y-98376267D01*
X149719733Y-98289142D01*
X149668509Y-98254915D01*
X149617286Y-98220688D01*
X149617283Y-98220686D01*
X149617280Y-98220685D01*
X149543603Y-98190168D01*
X149543601Y-98190167D01*
X149536792Y-98187347D01*
X149503452Y-98173537D01*
X149443029Y-98161518D01*
X149438306Y-98160578D01*
X149438304Y-98160578D01*
X149382610Y-98149500D01*
X149382607Y-98149500D01*
X149382606Y-98149500D01*
X123536606Y-98149500D01*
X123413393Y-98149500D01*
X123413389Y-98149500D01*
X123357697Y-98160578D01*
X123352971Y-98161518D01*
X123309743Y-98170116D01*
X123292546Y-98173537D01*
X123178716Y-98220687D01*
X123178707Y-98220692D01*
X123076268Y-98289140D01*
X123045519Y-98319890D01*
X122989142Y-98376267D01*
X122989139Y-98376270D01*
X121107837Y-100257571D01*
X121046514Y-100291056D01*
X120981838Y-100287821D01*
X120974219Y-100285345D01*
X120966241Y-100282753D01*
X120795797Y-100255757D01*
X120756287Y-100249500D01*
X120543713Y-100249500D01*
X120495042Y-100257208D01*
X120333760Y-100282753D01*
X120131585Y-100348444D01*
X119942179Y-100444951D01*
X119770213Y-100569890D01*
X119619890Y-100720213D01*
X119494949Y-100892182D01*
X119490484Y-100900946D01*
X119442509Y-100951742D01*
X119374688Y-100968536D01*
X119308553Y-100945998D01*
X119269516Y-100900946D01*
X119265050Y-100892182D01*
X119140109Y-100720213D01*
X118989786Y-100569890D01*
X118817820Y-100444951D01*
X118628414Y-100348444D01*
X118628413Y-100348443D01*
X118628412Y-100348443D01*
X118426243Y-100282754D01*
X118426241Y-100282753D01*
X118426240Y-100282753D01*
X118264957Y-100257208D01*
X118216287Y-100249500D01*
X118003713Y-100249500D01*
X117955042Y-100257208D01*
X117793760Y-100282753D01*
X117591585Y-100348444D01*
X117402179Y-100444951D01*
X117230213Y-100569890D01*
X117079890Y-100720213D01*
X116954951Y-100892179D01*
X116858444Y-101081585D01*
X116792753Y-101283760D01*
X116788599Y-101309990D01*
X116759500Y-101493713D01*
X105664500Y-101493713D01*
X105664500Y-99243713D01*
X107399500Y-99243713D01*
X107399500Y-99456286D01*
X107432753Y-99666239D01*
X107498444Y-99868414D01*
X107594951Y-100057820D01*
X107719890Y-100229786D01*
X107870213Y-100380109D01*
X108042179Y-100505048D01*
X108042181Y-100505049D01*
X108042184Y-100505051D01*
X108231588Y-100601557D01*
X108433757Y-100667246D01*
X108643713Y-100700500D01*
X108643714Y-100700500D01*
X108856286Y-100700500D01*
X108856287Y-100700500D01*
X109066243Y-100667246D01*
X109268412Y-100601557D01*
X109457816Y-100505051D01*
X109540540Y-100444949D01*
X109629786Y-100380109D01*
X109629788Y-100380106D01*
X109629792Y-100380104D01*
X109780104Y-100229792D01*
X109780106Y-100229788D01*
X109780109Y-100229786D01*
X109905048Y-100057820D01*
X109905047Y-100057820D01*
X109905051Y-100057816D01*
X110001557Y-99868412D01*
X110067246Y-99666243D01*
X110100500Y-99456287D01*
X110100500Y-99243713D01*
X110067246Y-99033757D01*
X110001557Y-98831588D01*
X109905051Y-98642184D01*
X109905049Y-98642181D01*
X109905048Y-98642179D01*
X109780109Y-98470213D01*
X109629786Y-98319890D01*
X109457820Y-98194951D01*
X109268414Y-98098444D01*
X109268413Y-98098443D01*
X109268412Y-98098443D01*
X109066243Y-98032754D01*
X109066241Y-98032753D01*
X109066240Y-98032753D01*
X108904957Y-98007208D01*
X108856287Y-97999500D01*
X108643713Y-97999500D01*
X108595042Y-98007208D01*
X108433760Y-98032753D01*
X108231585Y-98098444D01*
X108042179Y-98194951D01*
X107870213Y-98319890D01*
X107719890Y-98470213D01*
X107594951Y-98642179D01*
X107498444Y-98831585D01*
X107432753Y-99033760D01*
X107399500Y-99243713D01*
X105664500Y-99243713D01*
X105664500Y-96390500D01*
X105684185Y-96323461D01*
X105736989Y-96277706D01*
X105788500Y-96266500D01*
X162003700Y-96266500D01*
X162070739Y-96286185D01*
G37*
%TD.AperFunction*%
%TD*%
M02*
