M48
; DRILL file KiCad 10.0.3 date 2026-06-20T10:17:37
; FORMAT={-:-/ absolute / metric / decimal}
; #@! TF.CreationDate,2026-06-20T10:17:37+01:00
; #@! TF.GenerationSoftware,Kicad,Pcbnew,10.0.3
; #@! TF.FileFunction,Plated,1,2,PTH
FMAT,2
METRIC
; #@! TA.AperFunction,Plated,PTH,ViaDrill
T1C0.400
; #@! TA.AperFunction,Plated,PTH,ComponentDrill
T2C1.000
%
G90
G05
T1
X113.85Y-118.625
X117.2Y-118.625
X121.2Y-118.625
X124.9Y-118.625
X147.828Y-104.14
X148.1Y-115.925
X150.241Y-103.124
X152.55Y-106.575
X152.654Y-102.108
X153.25Y-107.65
X153.925Y-106.6
X157.673Y-101.1
X161.285Y-114.392
T2
X107.95Y-121.92
X110.49Y-121.92
X113.03Y-121.92
X115.57Y-121.92
X118.11Y-101.6
X118.11Y-121.92
X120.65Y-101.6
X120.65Y-121.92
X123.19Y-101.6
X123.19Y-121.92
X125.73Y-101.6
X125.73Y-121.92
X128.27Y-101.6
X128.27Y-121.92
X130.81Y-101.6
X130.81Y-121.92
X133.35Y-101.6
X133.35Y-121.92
X135.89Y-101.6
X135.89Y-121.92
X138.43Y-101.6
X138.43Y-121.92
X140.97Y-101.6
X140.97Y-121.92
X143.51Y-101.6
X143.51Y-121.92
X146.05Y-101.6
X146.05Y-121.92
M30
