%TF.GenerationSoftware,KiCad,Pcbnew,10.0.3*%
%TF.CreationDate,2026-06-20T10:16:10+01:00*%
%TF.ProjectId,MRF-Pro-v8-breakout,4d52462d-5072-46f2-9d76-382d62726561,rev?*%
%TF.SameCoordinates,Original*%
%TF.FileFunction,Copper,L2,Bot*%
%TF.FilePolarity,Positive*%
%FSLAX46Y46*%
G04 Gerber Fmt 4.6, Leading zero omitted, Abs format (unit mm)*
G04 Created by KiCad (PCBNEW 10.0.3) date 2026-06-20 10:16:10*
%MOMM*%
%LPD*%
G01*
G04 APERTURE LIST*
%TA.AperFunction,ViaPad*%
%ADD10C,0.800000*%
%TD*%
%TA.AperFunction,Conductor*%
%ADD11C,0.350000*%
%TD*%
%TA.AperFunction,Conductor*%
%ADD12C,0.300000*%
%TD*%
G04 APERTURE END LIST*
D10*
%TO.N,/GND*%
X136925000Y-132450000D03*
X124580000Y-133750000D03*
X130425000Y-129725000D03*
X119925000Y-136775000D03*
X136475000Y-134300000D03*
X127812500Y-127062500D03*
X119925000Y-131525000D03*
%TO.N,Net-(J5-Pin_2)*%
X128425000Y-125250000D03*
X132750000Y-135775000D03*
%TO.N,Net-(J5-Pin_3)*%
X127100000Y-125350000D03*
X133750000Y-135025000D03*
%TO.N,Net-(J5-Pin_7)*%
X126450000Y-127100000D03*
X120975000Y-135250000D03*
%TO.N,Net-(J5-Pin_8)*%
X124850000Y-129175000D03*
X122900000Y-134425000D03*
%TD*%
%TO.N,Net-(J5-Pin_2)*%
D11*
X132750000Y-135775000D02*
X132775000Y-135800000D01*
X134525000Y-135346016D02*
X134525000Y-131350000D01*
X134525000Y-131350000D02*
X128425000Y-125250000D01*
X132775000Y-135800000D02*
X134071016Y-135800000D01*
X134071016Y-135800000D02*
X134525000Y-135346016D01*
%TO.N,Net-(J5-Pin_3)*%
X133750000Y-135025000D02*
X133750000Y-131900000D01*
X127200000Y-125350000D02*
X127100000Y-125350000D01*
X133750000Y-131900000D02*
X127200000Y-125350000D01*
%TO.N,Net-(J5-Pin_7)*%
D12*
X126450000Y-127100000D02*
X125864339Y-127100000D01*
X120975000Y-131989339D02*
X120975000Y-135250000D01*
X125864339Y-127100000D02*
X120975000Y-131989339D01*
%TO.N,Net-(J5-Pin_8)*%
X122900000Y-131125000D02*
X122900000Y-134425000D01*
X124850000Y-129175000D02*
X122900000Y-131125000D01*
%TD*%
%TA.AperFunction,Conductor*%
%TO.N,/GND*%
G36*
X138270939Y-122905385D02*
G01*
X138316694Y-122958189D01*
X138327900Y-123009700D01*
X138327900Y-138229300D01*
X138308215Y-138296339D01*
X138255411Y-138342094D01*
X138203900Y-138353300D01*
X117447100Y-138353300D01*
X117380061Y-138333615D01*
X117334306Y-138280811D01*
X117323100Y-138229300D01*
X117323100Y-135161304D01*
X120074500Y-135161304D01*
X120074500Y-135338695D01*
X120109103Y-135512658D01*
X120109106Y-135512667D01*
X120176983Y-135676540D01*
X120176990Y-135676553D01*
X120275535Y-135824034D01*
X120275538Y-135824038D01*
X120400961Y-135949461D01*
X120400965Y-135949464D01*
X120548446Y-136048009D01*
X120548459Y-136048016D01*
X120671363Y-136098923D01*
X120712334Y-136115894D01*
X120712336Y-136115894D01*
X120712341Y-136115896D01*
X120886304Y-136150499D01*
X120886307Y-136150500D01*
X120886309Y-136150500D01*
X121063693Y-136150500D01*
X121063694Y-136150499D01*
X121121682Y-136138964D01*
X121237658Y-136115896D01*
X121237661Y-136115894D01*
X121237666Y-136115894D01*
X121401547Y-136048013D01*
X121549035Y-135949464D01*
X121674464Y-135824035D01*
X121773013Y-135676547D01*
X121840894Y-135512666D01*
X121840961Y-135512332D01*
X121873558Y-135348453D01*
X121875500Y-135338691D01*
X121875500Y-135161309D01*
X121875500Y-135161306D01*
X121875499Y-135161304D01*
X121840896Y-134987341D01*
X121840893Y-134987332D01*
X121836606Y-134976983D01*
X121792781Y-134871177D01*
X121773016Y-134823459D01*
X121773009Y-134823446D01*
X121674464Y-134675965D01*
X121674461Y-134675961D01*
X121661819Y-134663319D01*
X121628334Y-134601996D01*
X121625500Y-134575638D01*
X121625500Y-132310147D01*
X121645185Y-132243108D01*
X121661819Y-132222466D01*
X122037819Y-131846466D01*
X122099142Y-131812981D01*
X122168834Y-131817965D01*
X122224767Y-131859837D01*
X122249184Y-131925301D01*
X122249500Y-131934147D01*
X122249500Y-133750638D01*
X122229815Y-133817677D01*
X122213181Y-133838319D01*
X122200538Y-133850961D01*
X122200535Y-133850965D01*
X122101990Y-133998446D01*
X122101983Y-133998459D01*
X122034106Y-134162332D01*
X122034103Y-134162341D01*
X121999500Y-134336304D01*
X121999500Y-134513695D01*
X122034103Y-134687658D01*
X122034106Y-134687667D01*
X122101983Y-134851540D01*
X122101990Y-134851553D01*
X122200535Y-134999034D01*
X122200538Y-134999038D01*
X122325961Y-135124461D01*
X122325965Y-135124464D01*
X122473446Y-135223009D01*
X122473459Y-135223016D01*
X122596363Y-135273923D01*
X122637334Y-135290894D01*
X122637336Y-135290894D01*
X122637341Y-135290896D01*
X122811304Y-135325499D01*
X122811307Y-135325500D01*
X122811309Y-135325500D01*
X122988693Y-135325500D01*
X122988694Y-135325499D01*
X123046682Y-135313964D01*
X123162658Y-135290896D01*
X123162661Y-135290894D01*
X123162666Y-135290894D01*
X123326547Y-135223013D01*
X123474035Y-135124464D01*
X123599464Y-134999035D01*
X123698013Y-134851547D01*
X123765894Y-134687666D01*
X123768222Y-134675965D01*
X123800499Y-134513695D01*
X123800500Y-134513693D01*
X123800500Y-134336306D01*
X123800499Y-134336304D01*
X123765896Y-134162341D01*
X123765893Y-134162332D01*
X123698016Y-133998459D01*
X123698009Y-133998446D01*
X123599464Y-133850965D01*
X123599461Y-133850961D01*
X123586819Y-133838319D01*
X123553334Y-133776996D01*
X123550500Y-133750638D01*
X123550500Y-131445808D01*
X123570185Y-131378769D01*
X123586819Y-131358127D01*
X124833127Y-130111819D01*
X124894450Y-130078334D01*
X124920808Y-130075500D01*
X124938693Y-130075500D01*
X124938694Y-130075499D01*
X124996682Y-130063964D01*
X125112658Y-130040896D01*
X125112661Y-130040894D01*
X125112666Y-130040894D01*
X125276547Y-129973013D01*
X125424035Y-129874464D01*
X125549464Y-129749035D01*
X125648013Y-129601547D01*
X125715894Y-129437666D01*
X125750500Y-129263691D01*
X125750500Y-129086309D01*
X125750500Y-129086306D01*
X125750499Y-129086304D01*
X125715896Y-128912341D01*
X125715893Y-128912332D01*
X125648016Y-128748459D01*
X125648009Y-128748446D01*
X125549464Y-128600965D01*
X125549461Y-128600961D01*
X125504073Y-128555574D01*
X125470587Y-128494251D01*
X125475571Y-128424560D01*
X125504070Y-128380213D01*
X125938576Y-127945707D01*
X125999897Y-127912224D01*
X126069589Y-127917208D01*
X126073707Y-127918829D01*
X126148949Y-127949994D01*
X126187334Y-127965894D01*
X126187336Y-127965894D01*
X126187341Y-127965896D01*
X126361304Y-128000499D01*
X126361307Y-128000500D01*
X126361309Y-128000500D01*
X126538693Y-128000500D01*
X126538694Y-128000499D01*
X126596682Y-127988964D01*
X126712658Y-127965896D01*
X126712661Y-127965894D01*
X126712666Y-127965894D01*
X126876547Y-127898013D01*
X127024035Y-127799464D01*
X127149464Y-127674035D01*
X127248013Y-127526547D01*
X127315894Y-127362666D01*
X127350500Y-127188691D01*
X127350500Y-127011309D01*
X127350500Y-127011306D01*
X127350499Y-127011304D01*
X127315896Y-126837341D01*
X127315893Y-126837332D01*
X127260201Y-126702877D01*
X127252732Y-126633408D01*
X127284008Y-126570929D01*
X127344097Y-126535277D01*
X127413922Y-126537771D01*
X127462443Y-126567744D01*
X133038181Y-132143482D01*
X133071666Y-132204805D01*
X133074500Y-132231163D01*
X133074500Y-134377484D01*
X133054815Y-134444523D01*
X133053602Y-134446375D01*
X132951990Y-134598446D01*
X132951983Y-134598459D01*
X132884107Y-134762329D01*
X132884105Y-134762335D01*
X132881647Y-134774695D01*
X132849260Y-134836605D01*
X132788543Y-134871177D01*
X132760030Y-134874500D01*
X132661306Y-134874500D01*
X132487341Y-134909103D01*
X132487332Y-134909106D01*
X132323459Y-134976983D01*
X132323446Y-134976990D01*
X132175965Y-135075535D01*
X132175961Y-135075538D01*
X132050538Y-135200961D01*
X132050535Y-135200965D01*
X131951990Y-135348446D01*
X131951983Y-135348459D01*
X131884106Y-135512332D01*
X131884103Y-135512341D01*
X131849500Y-135686304D01*
X131849500Y-135863695D01*
X131884103Y-136037658D01*
X131884106Y-136037667D01*
X131951983Y-136201540D01*
X131951990Y-136201553D01*
X132050535Y-136349034D01*
X132050538Y-136349038D01*
X132175961Y-136474461D01*
X132175965Y-136474464D01*
X132323446Y-136573009D01*
X132323459Y-136573016D01*
X132446363Y-136623923D01*
X132487334Y-136640894D01*
X132487336Y-136640894D01*
X132487341Y-136640896D01*
X132661304Y-136675499D01*
X132661307Y-136675500D01*
X132661309Y-136675500D01*
X132838693Y-136675500D01*
X132838694Y-136675499D01*
X132896682Y-136663964D01*
X133012658Y-136640896D01*
X133012661Y-136640894D01*
X133012666Y-136640894D01*
X133176547Y-136573013D01*
X133291209Y-136496397D01*
X133357886Y-136475520D01*
X133360100Y-136475500D01*
X134137548Y-136475500D01*
X134137549Y-136475499D01*
X134268052Y-136449541D01*
X134390985Y-136398620D01*
X134501622Y-136324695D01*
X135049695Y-135776622D01*
X135063957Y-135755277D01*
X135063958Y-135755277D01*
X135123613Y-135665995D01*
X135123620Y-135665985D01*
X135174540Y-135543052D01*
X135200500Y-135412547D01*
X135200500Y-131283469D01*
X135188770Y-131224500D01*
X135174541Y-131152964D01*
X135124183Y-131031392D01*
X135123846Y-131030368D01*
X135049698Y-130919398D01*
X135049697Y-130919397D01*
X135049695Y-130919394D01*
X134955606Y-130825305D01*
X129549014Y-125418713D01*
X134324500Y-125418713D01*
X134324500Y-125631286D01*
X134357753Y-125841239D01*
X134423444Y-126043414D01*
X134519951Y-126232820D01*
X134644890Y-126404786D01*
X134795213Y-126555109D01*
X134967179Y-126680048D01*
X134967181Y-126680049D01*
X134967184Y-126680051D01*
X135156588Y-126776557D01*
X135358757Y-126842246D01*
X135568713Y-126875500D01*
X135568714Y-126875500D01*
X135781286Y-126875500D01*
X135781287Y-126875500D01*
X135991243Y-126842246D01*
X136193412Y-126776557D01*
X136382816Y-126680051D01*
X136447015Y-126633408D01*
X136554786Y-126555109D01*
X136554788Y-126555106D01*
X136554792Y-126555104D01*
X136705104Y-126404792D01*
X136705106Y-126404788D01*
X136705109Y-126404786D01*
X136830048Y-126232820D01*
X136830047Y-126232820D01*
X136830051Y-126232816D01*
X136926557Y-126043412D01*
X136992246Y-125841243D01*
X137025500Y-125631287D01*
X137025500Y-125418713D01*
X136992246Y-125208757D01*
X136926557Y-125006588D01*
X136830051Y-124817184D01*
X136830049Y-124817181D01*
X136830048Y-124817179D01*
X136705109Y-124645213D01*
X136554786Y-124494890D01*
X136382820Y-124369951D01*
X136193414Y-124273444D01*
X136193413Y-124273443D01*
X136193412Y-124273443D01*
X135991243Y-124207754D01*
X135991241Y-124207753D01*
X135991240Y-124207753D01*
X135829957Y-124182208D01*
X135781287Y-124174500D01*
X135568713Y-124174500D01*
X135520042Y-124182208D01*
X135358760Y-124207753D01*
X135156585Y-124273444D01*
X134967179Y-124369951D01*
X134795213Y-124494890D01*
X134644890Y-124645213D01*
X134519951Y-124817179D01*
X134423444Y-125006585D01*
X134357753Y-125208760D01*
X134324500Y-125418713D01*
X129549014Y-125418713D01*
X129360513Y-125230212D01*
X129327028Y-125168889D01*
X129326577Y-125166722D01*
X129290896Y-124987341D01*
X129290893Y-124987332D01*
X129223016Y-124823459D01*
X129223009Y-124823446D01*
X129124464Y-124675965D01*
X129124461Y-124675961D01*
X128999038Y-124550538D01*
X128999034Y-124550535D01*
X128851553Y-124451990D01*
X128851540Y-124451983D01*
X128687667Y-124384106D01*
X128687658Y-124384103D01*
X128513694Y-124349500D01*
X128513691Y-124349500D01*
X128336309Y-124349500D01*
X128336306Y-124349500D01*
X128162341Y-124384103D01*
X128162332Y-124384106D01*
X127998459Y-124451983D01*
X127998446Y-124451990D01*
X127850965Y-124550535D01*
X127850961Y-124550538D01*
X127792109Y-124609391D01*
X127730786Y-124642876D01*
X127661094Y-124637892D01*
X127635537Y-124624812D01*
X127526552Y-124551990D01*
X127526540Y-124551983D01*
X127362667Y-124484106D01*
X127362658Y-124484103D01*
X127188694Y-124449500D01*
X127188691Y-124449500D01*
X127011309Y-124449500D01*
X127011306Y-124449500D01*
X126837341Y-124484103D01*
X126837332Y-124484106D01*
X126673459Y-124551983D01*
X126673446Y-124551990D01*
X126525965Y-124650535D01*
X126525961Y-124650538D01*
X126400538Y-124775961D01*
X126400535Y-124775965D01*
X126301990Y-124923446D01*
X126301983Y-124923459D01*
X126234106Y-125087332D01*
X126234103Y-125087341D01*
X126199500Y-125261304D01*
X126199500Y-125438695D01*
X126234103Y-125612658D01*
X126234106Y-125612667D01*
X126301983Y-125776540D01*
X126301990Y-125776553D01*
X126400535Y-125924034D01*
X126400538Y-125924038D01*
X126464319Y-125987819D01*
X126497804Y-126049142D01*
X126492820Y-126118834D01*
X126450948Y-126174767D01*
X126385484Y-126199184D01*
X126376638Y-126199500D01*
X126361306Y-126199500D01*
X126187341Y-126234103D01*
X126187332Y-126234106D01*
X126023459Y-126301983D01*
X126023446Y-126301990D01*
X125875965Y-126400535D01*
X125875961Y-126400538D01*
X125860236Y-126416264D01*
X125846261Y-126424313D01*
X125836871Y-126434599D01*
X125810809Y-126444732D01*
X125804398Y-126448425D01*
X125800352Y-126449500D01*
X125800270Y-126449500D01*
X125674595Y-126474499D01*
X125625560Y-126494810D01*
X125617934Y-126497968D01*
X125617925Y-126497971D01*
X125556220Y-126523530D01*
X125556202Y-126523540D01*
X125449671Y-126594721D01*
X125449664Y-126594727D01*
X120469726Y-131574665D01*
X120469723Y-131574670D01*
X120406047Y-131669969D01*
X120406045Y-131669972D01*
X120398538Y-131681205D01*
X120398534Y-131681212D01*
X120349499Y-131799594D01*
X120349497Y-131799600D01*
X120324500Y-131925267D01*
X120324500Y-134575638D01*
X120304815Y-134642677D01*
X120288181Y-134663319D01*
X120275538Y-134675961D01*
X120275535Y-134675965D01*
X120176990Y-134823446D01*
X120176983Y-134823459D01*
X120109106Y-134987332D01*
X120109103Y-134987341D01*
X120074500Y-135161304D01*
X117323100Y-135161304D01*
X117323100Y-125418713D01*
X118624500Y-125418713D01*
X118624500Y-125631286D01*
X118657753Y-125841239D01*
X118723444Y-126043414D01*
X118819951Y-126232820D01*
X118944890Y-126404786D01*
X119095213Y-126555109D01*
X119267179Y-126680048D01*
X119267181Y-126680049D01*
X119267184Y-126680051D01*
X119456588Y-126776557D01*
X119658757Y-126842246D01*
X119868713Y-126875500D01*
X119868714Y-126875500D01*
X120081286Y-126875500D01*
X120081287Y-126875500D01*
X120291243Y-126842246D01*
X120493412Y-126776557D01*
X120682816Y-126680051D01*
X120747015Y-126633408D01*
X120854786Y-126555109D01*
X120854788Y-126555106D01*
X120854792Y-126555104D01*
X121005104Y-126404792D01*
X121005106Y-126404788D01*
X121005109Y-126404786D01*
X121130048Y-126232820D01*
X121130047Y-126232820D01*
X121130051Y-126232816D01*
X121226557Y-126043412D01*
X121292246Y-125841243D01*
X121325500Y-125631287D01*
X121325500Y-125418713D01*
X121292246Y-125208757D01*
X121226557Y-125006588D01*
X121130051Y-124817184D01*
X121130049Y-124817181D01*
X121130048Y-124817179D01*
X121005109Y-124645213D01*
X120854786Y-124494890D01*
X120682820Y-124369951D01*
X120493414Y-124273444D01*
X120493413Y-124273443D01*
X120493412Y-124273443D01*
X120291243Y-124207754D01*
X120291241Y-124207753D01*
X120291240Y-124207753D01*
X120129957Y-124182208D01*
X120081287Y-124174500D01*
X119868713Y-124174500D01*
X119820042Y-124182208D01*
X119658760Y-124207753D01*
X119456585Y-124273444D01*
X119267179Y-124369951D01*
X119095213Y-124494890D01*
X118944890Y-124645213D01*
X118819951Y-124817179D01*
X118723444Y-125006585D01*
X118657753Y-125208760D01*
X118624500Y-125418713D01*
X117323100Y-125418713D01*
X117323100Y-123009700D01*
X117342785Y-122942661D01*
X117395589Y-122896906D01*
X117447100Y-122885700D01*
X138203900Y-122885700D01*
X138270939Y-122905385D01*
G37*
%TD.AperFunction*%
%TD*%
M02*
