%TF.GenerationSoftware,KiCad,Pcbnew,10.0.3*%
%TF.CreationDate,2026-06-20T10:16:10+01:00*%
%TF.ProjectId,MRF-Pro-v8-breakout,4d52462d-5072-46f2-9d76-382d62726561,rev?*%
%TF.SameCoordinates,Original*%
%TF.FileFunction,Paste,Top*%
%TF.FilePolarity,Positive*%
%FSLAX46Y46*%
G04 Gerber Fmt 4.6, Leading zero omitted, Abs format (unit mm)*
G04 Created by KiCad (PCBNEW 10.0.3) date 2026-06-20 10:16:10*
%MOMM*%
%LPD*%
G01*
G04 APERTURE LIST*
G04 Aperture macros list*
%AMRoundRect*
0 Rectangle with rounded corners*
0 $1 Rounding radius*
0 $2 $3 $4 $5 $6 $7 $8 $9 X,Y pos of 4 corners*
0 Add a 4 corners polygon primitive as box body*
4,1,4,$2,$3,$4,$5,$6,$7,$8,$9,$2,$3,0*
0 Add four circle primitives for the rounded corners*
1,1,$1+$1,$2,$3*
1,1,$1+$1,$4,$5*
1,1,$1+$1,$6,$7*
1,1,$1+$1,$8,$9*
0 Add four rect primitives between the rounded corners*
20,1,$1+$1,$2,$3,$4,$5,0*
20,1,$1+$1,$4,$5,$6,$7,0*
20,1,$1+$1,$6,$7,$8,$9,0*
20,1,$1+$1,$8,$9,$2,$3,0*%
G04 Aperture macros list end*
%ADD10RoundRect,0.140000X0.170000X-0.140000X0.170000X0.140000X-0.170000X0.140000X-0.170000X-0.140000X0*%
%ADD11RoundRect,0.140000X0.140000X0.170000X-0.140000X0.170000X-0.140000X-0.170000X0.140000X-0.170000X0*%
%ADD12RoundRect,0.150000X-0.150000X-0.625000X0.150000X-0.625000X0.150000X0.625000X-0.150000X0.625000X0*%
%ADD13RoundRect,0.250000X-0.350000X-0.650000X0.350000X-0.650000X0.350000X0.650000X-0.350000X0.650000X0*%
%ADD14RoundRect,0.150000X-0.150000X0.512500X-0.150000X-0.512500X0.150000X-0.512500X0.150000X0.512500X0*%
%ADD15RoundRect,0.250000X0.250000X0.475000X-0.250000X0.475000X-0.250000X-0.475000X0.250000X-0.475000X0*%
%ADD16RoundRect,0.135000X-0.185000X0.135000X-0.185000X-0.135000X0.185000X-0.135000X0.185000X0.135000X0*%
%ADD17RoundRect,0.250000X-0.325000X-0.650000X0.325000X-0.650000X0.325000X0.650000X-0.325000X0.650000X0*%
%ADD18RoundRect,0.218750X-0.381250X0.218750X-0.381250X-0.218750X0.381250X-0.218750X0.381250X0.218750X0*%
%ADD19R,0.300000X1.100000*%
%ADD20R,2.300000X3.100000*%
%ADD21RoundRect,0.225000X-0.225000X-0.250000X0.225000X-0.250000X0.225000X0.250000X-0.225000X0.250000X0*%
G04 APERTURE END LIST*
D10*
%TO.C,C3*%
X132375000Y-131185000D03*
X132375000Y-130225000D03*
%TD*%
D11*
%TO.C,Cin1*%
X121775000Y-130475000D03*
X120815000Y-130475000D03*
%TD*%
D12*
%TO.C,J7*%
X130750000Y-132925000D03*
X131750000Y-132925000D03*
X132750000Y-132925000D03*
X133750000Y-132925000D03*
X134750000Y-132925000D03*
X135750000Y-132925000D03*
D13*
X129450000Y-136800000D03*
X137050000Y-136800000D03*
%TD*%
D14*
%TO.C,U1*%
X127800000Y-130750000D03*
X126850000Y-130750000D03*
X125900000Y-130750000D03*
X125900000Y-133025000D03*
X127800000Y-133025000D03*
%TD*%
D15*
%TO.C,Cin2*%
X121775000Y-128975000D03*
X119875000Y-128975000D03*
%TD*%
D16*
%TO.C,R1*%
X124580000Y-131220000D03*
X124580000Y-132240000D03*
%TD*%
D17*
%TO.C,C1*%
X133975000Y-130325000D03*
X136925000Y-130325000D03*
%TD*%
D18*
%TO.C,FB1*%
X127375000Y-134700000D03*
X127375000Y-136825000D03*
%TD*%
D12*
%TO.C,J6*%
X119900000Y-132900000D03*
X120900000Y-132900000D03*
X121900000Y-132900000D03*
X122900000Y-132900000D03*
D13*
X118600000Y-136775000D03*
X124200000Y-136775000D03*
%TD*%
D19*
%TO.C,J5*%
X129575000Y-128645000D03*
X129075000Y-128645000D03*
X128575000Y-128645000D03*
X128075000Y-128645000D03*
X127575000Y-128645000D03*
X127075000Y-128645000D03*
X126575000Y-128645000D03*
X126075000Y-128645000D03*
D20*
X131245000Y-126945000D03*
X124405000Y-126945000D03*
%TD*%
D21*
%TO.C,C2*%
X129500000Y-130825000D03*
X131050000Y-130825000D03*
%TD*%
M02*
