%TF.GenerationSoftware,KiCad,Pcbnew,10.0.3*%
%TF.CreationDate,2026-06-19T22:45:07+01:00*%
%TF.ProjectId,MRF-Pro-v8-breakout,4d52462d-5072-46f2-9d76-382d62726561,rev?*%
%TF.SameCoordinates,Original*%
%TF.FileFunction,Legend,Top*%
%TF.FilePolarity,Positive*%
%FSLAX46Y46*%
G04 Gerber Fmt 4.6, Leading zero omitted, Abs format (unit mm)*
G04 Created by KiCad (PCBNEW 10.0.3) date 2026-06-19 22:45:07*
%MOMM*%
%LPD*%
G01*
G04 APERTURE LIST*
%ADD10C,0.080000*%
%ADD11C,0.125000*%
%ADD12C,0.120000*%
G04 APERTURE END LIST*
D10*
X131091666Y-129179530D02*
X131067857Y-129203340D01*
X131067857Y-129203340D02*
X130996428Y-129227149D01*
X130996428Y-129227149D02*
X130948809Y-129227149D01*
X130948809Y-129227149D02*
X130877381Y-129203340D01*
X130877381Y-129203340D02*
X130829762Y-129155720D01*
X130829762Y-129155720D02*
X130805952Y-129108101D01*
X130805952Y-129108101D02*
X130782143Y-129012863D01*
X130782143Y-129012863D02*
X130782143Y-128941435D01*
X130782143Y-128941435D02*
X130805952Y-128846197D01*
X130805952Y-128846197D02*
X130829762Y-128798578D01*
X130829762Y-128798578D02*
X130877381Y-128750959D01*
X130877381Y-128750959D02*
X130948809Y-128727149D01*
X130948809Y-128727149D02*
X130996428Y-128727149D01*
X130996428Y-128727149D02*
X131067857Y-128750959D01*
X131067857Y-128750959D02*
X131091666Y-128774768D01*
X131258333Y-128727149D02*
X131567857Y-128727149D01*
X131567857Y-128727149D02*
X131401190Y-128917625D01*
X131401190Y-128917625D02*
X131472619Y-128917625D01*
X131472619Y-128917625D02*
X131520238Y-128941435D01*
X131520238Y-128941435D02*
X131544047Y-128965244D01*
X131544047Y-128965244D02*
X131567857Y-129012863D01*
X131567857Y-129012863D02*
X131567857Y-129131911D01*
X131567857Y-129131911D02*
X131544047Y-129179530D01*
X131544047Y-129179530D02*
X131520238Y-129203340D01*
X131520238Y-129203340D02*
X131472619Y-129227149D01*
X131472619Y-129227149D02*
X131329762Y-129227149D01*
X131329762Y-129227149D02*
X131282143Y-129203340D01*
X131282143Y-129203340D02*
X131258333Y-129179530D01*
X127854530Y-129353571D02*
X127878340Y-129377380D01*
X127878340Y-129377380D02*
X127902149Y-129448809D01*
X127902149Y-129448809D02*
X127902149Y-129496428D01*
X127902149Y-129496428D02*
X127878340Y-129567856D01*
X127878340Y-129567856D02*
X127830720Y-129615475D01*
X127830720Y-129615475D02*
X127783101Y-129639285D01*
X127783101Y-129639285D02*
X127687863Y-129663094D01*
X127687863Y-129663094D02*
X127616435Y-129663094D01*
X127616435Y-129663094D02*
X127521197Y-129639285D01*
X127521197Y-129639285D02*
X127473578Y-129615475D01*
X127473578Y-129615475D02*
X127425959Y-129567856D01*
X127425959Y-129567856D02*
X127402149Y-129496428D01*
X127402149Y-129496428D02*
X127402149Y-129448809D01*
X127402149Y-129448809D02*
X127425959Y-129377380D01*
X127425959Y-129377380D02*
X127449768Y-129353571D01*
X127902149Y-129139285D02*
X127568816Y-129139285D01*
X127402149Y-129139285D02*
X127425959Y-129163094D01*
X127425959Y-129163094D02*
X127449768Y-129139285D01*
X127449768Y-129139285D02*
X127425959Y-129115475D01*
X127425959Y-129115475D02*
X127402149Y-129139285D01*
X127402149Y-129139285D02*
X127449768Y-129139285D01*
X127568816Y-128901190D02*
X127902149Y-128901190D01*
X127616435Y-128901190D02*
X127592625Y-128877380D01*
X127592625Y-128877380D02*
X127568816Y-128829761D01*
X127568816Y-128829761D02*
X127568816Y-128758333D01*
X127568816Y-128758333D02*
X127592625Y-128710714D01*
X127592625Y-128710714D02*
X127640244Y-128686904D01*
X127640244Y-128686904D02*
X127902149Y-128686904D01*
X127902149Y-128186904D02*
X127902149Y-128472618D01*
X127902149Y-128329761D02*
X127402149Y-128329761D01*
X127402149Y-128329761D02*
X127473578Y-128377380D01*
X127473578Y-128377380D02*
X127521197Y-128424999D01*
X127521197Y-128424999D02*
X127545006Y-128472618D01*
X133258333Y-136027149D02*
X133258333Y-136384292D01*
X133258333Y-136384292D02*
X133234524Y-136455720D01*
X133234524Y-136455720D02*
X133186905Y-136503340D01*
X133186905Y-136503340D02*
X133115476Y-136527149D01*
X133115476Y-136527149D02*
X133067857Y-136527149D01*
X133448809Y-136027149D02*
X133782142Y-136027149D01*
X133782142Y-136027149D02*
X133567857Y-136527149D01*
X128977149Y-132268452D02*
X129381911Y-132268452D01*
X129381911Y-132268452D02*
X129429530Y-132244642D01*
X129429530Y-132244642D02*
X129453340Y-132220833D01*
X129453340Y-132220833D02*
X129477149Y-132173214D01*
X129477149Y-132173214D02*
X129477149Y-132077976D01*
X129477149Y-132077976D02*
X129453340Y-132030357D01*
X129453340Y-132030357D02*
X129429530Y-132006547D01*
X129429530Y-132006547D02*
X129381911Y-131982738D01*
X129381911Y-131982738D02*
X128977149Y-131982738D01*
X129477149Y-131482737D02*
X129477149Y-131768451D01*
X129477149Y-131625594D02*
X128977149Y-131625594D01*
X128977149Y-131625594D02*
X129048578Y-131673213D01*
X129048578Y-131673213D02*
X129096197Y-131720832D01*
X129096197Y-131720832D02*
X129120006Y-131768451D01*
X128604530Y-126503571D02*
X128628340Y-126527380D01*
X128628340Y-126527380D02*
X128652149Y-126598809D01*
X128652149Y-126598809D02*
X128652149Y-126646428D01*
X128652149Y-126646428D02*
X128628340Y-126717856D01*
X128628340Y-126717856D02*
X128580720Y-126765475D01*
X128580720Y-126765475D02*
X128533101Y-126789285D01*
X128533101Y-126789285D02*
X128437863Y-126813094D01*
X128437863Y-126813094D02*
X128366435Y-126813094D01*
X128366435Y-126813094D02*
X128271197Y-126789285D01*
X128271197Y-126789285D02*
X128223578Y-126765475D01*
X128223578Y-126765475D02*
X128175959Y-126717856D01*
X128175959Y-126717856D02*
X128152149Y-126646428D01*
X128152149Y-126646428D02*
X128152149Y-126598809D01*
X128152149Y-126598809D02*
X128175959Y-126527380D01*
X128175959Y-126527380D02*
X128199768Y-126503571D01*
X128652149Y-126289285D02*
X128318816Y-126289285D01*
X128152149Y-126289285D02*
X128175959Y-126313094D01*
X128175959Y-126313094D02*
X128199768Y-126289285D01*
X128199768Y-126289285D02*
X128175959Y-126265475D01*
X128175959Y-126265475D02*
X128152149Y-126289285D01*
X128152149Y-126289285D02*
X128199768Y-126289285D01*
X128318816Y-126051190D02*
X128652149Y-126051190D01*
X128366435Y-126051190D02*
X128342625Y-126027380D01*
X128342625Y-126027380D02*
X128318816Y-125979761D01*
X128318816Y-125979761D02*
X128318816Y-125908333D01*
X128318816Y-125908333D02*
X128342625Y-125860714D01*
X128342625Y-125860714D02*
X128390244Y-125836904D01*
X128390244Y-125836904D02*
X128652149Y-125836904D01*
X128199768Y-125622618D02*
X128175959Y-125598809D01*
X128175959Y-125598809D02*
X128152149Y-125551190D01*
X128152149Y-125551190D02*
X128152149Y-125432142D01*
X128152149Y-125432142D02*
X128175959Y-125384523D01*
X128175959Y-125384523D02*
X128199768Y-125360714D01*
X128199768Y-125360714D02*
X128247387Y-125336904D01*
X128247387Y-125336904D02*
X128295006Y-125336904D01*
X128295006Y-125336904D02*
X128366435Y-125360714D01*
X128366435Y-125360714D02*
X128652149Y-125646428D01*
X128652149Y-125646428D02*
X128652149Y-125336904D01*
D11*
X123899809Y-131183333D02*
X123661714Y-131349999D01*
X123899809Y-131469047D02*
X123399809Y-131469047D01*
X123399809Y-131469047D02*
X123399809Y-131278571D01*
X123399809Y-131278571D02*
X123423619Y-131230952D01*
X123423619Y-131230952D02*
X123447428Y-131207142D01*
X123447428Y-131207142D02*
X123495047Y-131183333D01*
X123495047Y-131183333D02*
X123566476Y-131183333D01*
X123566476Y-131183333D02*
X123614095Y-131207142D01*
X123614095Y-131207142D02*
X123637904Y-131230952D01*
X123637904Y-131230952D02*
X123661714Y-131278571D01*
X123661714Y-131278571D02*
X123661714Y-131469047D01*
X123899809Y-130707142D02*
X123899809Y-130992856D01*
X123899809Y-130849999D02*
X123399809Y-130849999D01*
X123399809Y-130849999D02*
X123471238Y-130897618D01*
X123471238Y-130897618D02*
X123518857Y-130945237D01*
X123518857Y-130945237D02*
X123542666Y-130992856D01*
D10*
X134166666Y-131979530D02*
X134142857Y-132003340D01*
X134142857Y-132003340D02*
X134071428Y-132027149D01*
X134071428Y-132027149D02*
X134023809Y-132027149D01*
X134023809Y-132027149D02*
X133952381Y-132003340D01*
X133952381Y-132003340D02*
X133904762Y-131955720D01*
X133904762Y-131955720D02*
X133880952Y-131908101D01*
X133880952Y-131908101D02*
X133857143Y-131812863D01*
X133857143Y-131812863D02*
X133857143Y-131741435D01*
X133857143Y-131741435D02*
X133880952Y-131646197D01*
X133880952Y-131646197D02*
X133904762Y-131598578D01*
X133904762Y-131598578D02*
X133952381Y-131550959D01*
X133952381Y-131550959D02*
X134023809Y-131527149D01*
X134023809Y-131527149D02*
X134071428Y-131527149D01*
X134071428Y-131527149D02*
X134142857Y-131550959D01*
X134142857Y-131550959D02*
X134166666Y-131574768D01*
X134642857Y-132027149D02*
X134357143Y-132027149D01*
X134500000Y-132027149D02*
X134500000Y-131527149D01*
X134500000Y-131527149D02*
X134452381Y-131598578D01*
X134452381Y-131598578D02*
X134404762Y-131646197D01*
X134404762Y-131646197D02*
X134357143Y-131670006D01*
X126140244Y-136391665D02*
X126140244Y-136558332D01*
X126402149Y-136558332D02*
X125902149Y-136558332D01*
X125902149Y-136558332D02*
X125902149Y-136320237D01*
X126140244Y-135963094D02*
X126164054Y-135891666D01*
X126164054Y-135891666D02*
X126187863Y-135867856D01*
X126187863Y-135867856D02*
X126235482Y-135844047D01*
X126235482Y-135844047D02*
X126306911Y-135844047D01*
X126306911Y-135844047D02*
X126354530Y-135867856D01*
X126354530Y-135867856D02*
X126378340Y-135891666D01*
X126378340Y-135891666D02*
X126402149Y-135939285D01*
X126402149Y-135939285D02*
X126402149Y-136129761D01*
X126402149Y-136129761D02*
X125902149Y-136129761D01*
X125902149Y-136129761D02*
X125902149Y-135963094D01*
X125902149Y-135963094D02*
X125925959Y-135915475D01*
X125925959Y-135915475D02*
X125949768Y-135891666D01*
X125949768Y-135891666D02*
X125997387Y-135867856D01*
X125997387Y-135867856D02*
X126045006Y-135867856D01*
X126045006Y-135867856D02*
X126092625Y-135891666D01*
X126092625Y-135891666D02*
X126116435Y-135915475D01*
X126116435Y-135915475D02*
X126140244Y-135963094D01*
X126140244Y-135963094D02*
X126140244Y-136129761D01*
X126402149Y-135367856D02*
X126402149Y-135653570D01*
X126402149Y-135510713D02*
X125902149Y-135510713D01*
X125902149Y-135510713D02*
X125973578Y-135558332D01*
X125973578Y-135558332D02*
X126021197Y-135605951D01*
X126021197Y-135605951D02*
X126045006Y-135653570D01*
X121233333Y-130647149D02*
X121233333Y-131004292D01*
X121233333Y-131004292D02*
X121209524Y-131075720D01*
X121209524Y-131075720D02*
X121161905Y-131123340D01*
X121161905Y-131123340D02*
X121090476Y-131147149D01*
X121090476Y-131147149D02*
X121042857Y-131147149D01*
X121685714Y-130647149D02*
X121590476Y-130647149D01*
X121590476Y-130647149D02*
X121542857Y-130670959D01*
X121542857Y-130670959D02*
X121519047Y-130694768D01*
X121519047Y-130694768D02*
X121471428Y-130766197D01*
X121471428Y-130766197D02*
X121447619Y-130861435D01*
X121447619Y-130861435D02*
X121447619Y-131051911D01*
X121447619Y-131051911D02*
X121471428Y-131099530D01*
X121471428Y-131099530D02*
X121495238Y-131123340D01*
X121495238Y-131123340D02*
X121542857Y-131147149D01*
X121542857Y-131147149D02*
X121638095Y-131147149D01*
X121638095Y-131147149D02*
X121685714Y-131123340D01*
X121685714Y-131123340D02*
X121709523Y-131099530D01*
X121709523Y-131099530D02*
X121733333Y-131051911D01*
X121733333Y-131051911D02*
X121733333Y-130932863D01*
X121733333Y-130932863D02*
X121709523Y-130885244D01*
X121709523Y-130885244D02*
X121685714Y-130861435D01*
X121685714Y-130861435D02*
X121638095Y-130837625D01*
X121638095Y-130837625D02*
X121542857Y-130837625D01*
X121542857Y-130837625D02*
X121495238Y-130861435D01*
X121495238Y-130861435D02*
X121471428Y-130885244D01*
X121471428Y-130885244D02*
X121447619Y-130932863D01*
X119658333Y-129452149D02*
X119658333Y-129809292D01*
X119658333Y-129809292D02*
X119634524Y-129880720D01*
X119634524Y-129880720D02*
X119586905Y-129928340D01*
X119586905Y-129928340D02*
X119515476Y-129952149D01*
X119515476Y-129952149D02*
X119467857Y-129952149D01*
X120134523Y-129452149D02*
X119896428Y-129452149D01*
X119896428Y-129452149D02*
X119872619Y-129690244D01*
X119872619Y-129690244D02*
X119896428Y-129666435D01*
X119896428Y-129666435D02*
X119944047Y-129642625D01*
X119944047Y-129642625D02*
X120063095Y-129642625D01*
X120063095Y-129642625D02*
X120110714Y-129666435D01*
X120110714Y-129666435D02*
X120134523Y-129690244D01*
X120134523Y-129690244D02*
X120158333Y-129737863D01*
X120158333Y-129737863D02*
X120158333Y-129856911D01*
X120158333Y-129856911D02*
X120134523Y-129904530D01*
X120134523Y-129904530D02*
X120110714Y-129928340D01*
X120110714Y-129928340D02*
X120063095Y-129952149D01*
X120063095Y-129952149D02*
X119944047Y-129952149D01*
X119944047Y-129952149D02*
X119896428Y-129928340D01*
X119896428Y-129928340D02*
X119872619Y-129904530D01*
X130616666Y-131954530D02*
X130592857Y-131978340D01*
X130592857Y-131978340D02*
X130521428Y-132002149D01*
X130521428Y-132002149D02*
X130473809Y-132002149D01*
X130473809Y-132002149D02*
X130402381Y-131978340D01*
X130402381Y-131978340D02*
X130354762Y-131930720D01*
X130354762Y-131930720D02*
X130330952Y-131883101D01*
X130330952Y-131883101D02*
X130307143Y-131787863D01*
X130307143Y-131787863D02*
X130307143Y-131716435D01*
X130307143Y-131716435D02*
X130330952Y-131621197D01*
X130330952Y-131621197D02*
X130354762Y-131573578D01*
X130354762Y-131573578D02*
X130402381Y-131525959D01*
X130402381Y-131525959D02*
X130473809Y-131502149D01*
X130473809Y-131502149D02*
X130521428Y-131502149D01*
X130521428Y-131502149D02*
X130592857Y-131525959D01*
X130592857Y-131525959D02*
X130616666Y-131549768D01*
X130807143Y-131549768D02*
X130830952Y-131525959D01*
X130830952Y-131525959D02*
X130878571Y-131502149D01*
X130878571Y-131502149D02*
X130997619Y-131502149D01*
X130997619Y-131502149D02*
X131045238Y-131525959D01*
X131045238Y-131525959D02*
X131069047Y-131549768D01*
X131069047Y-131549768D02*
X131092857Y-131597387D01*
X131092857Y-131597387D02*
X131092857Y-131645006D01*
X131092857Y-131645006D02*
X131069047Y-131716435D01*
X131069047Y-131716435D02*
X130783333Y-132002149D01*
X130783333Y-132002149D02*
X131092857Y-132002149D01*
%TO.C,C3*%
D12*
X129737164Y-129240000D02*
X129952836Y-129240000D01*
X129737164Y-129960000D02*
X129952836Y-129960000D01*
%TO.C,Cin1*%
X128065000Y-128837836D02*
X128065000Y-128622164D01*
X128785000Y-128837836D02*
X128785000Y-128622164D01*
%TO.C,J7*%
X129140000Y-133140000D02*
X130190000Y-133140000D01*
X129140000Y-135640000D02*
X129140000Y-133140000D01*
X130190000Y-133140000D02*
X130190000Y-132150000D01*
X130310000Y-137610000D02*
X136190000Y-137610000D01*
X137360000Y-133140000D02*
X136310000Y-133140000D01*
X137360000Y-135640000D02*
X137360000Y-133140000D01*
%TO.C,U1*%
X125290000Y-130977500D02*
X125340000Y-130977500D01*
X125290000Y-132797500D02*
X125290000Y-130977500D01*
X125340000Y-132797500D02*
X125290000Y-132797500D01*
X127240000Y-132797500D02*
X126460000Y-132797500D01*
X128360000Y-130977500D02*
X128410000Y-130977500D01*
X128410000Y-130977500D02*
X128410000Y-132797500D01*
X128410000Y-132797500D02*
X128360000Y-132797500D01*
X128360000Y-130437500D02*
X128690000Y-130197500D01*
X128690000Y-130677500D01*
X128360000Y-130437500D01*
G36*
X128690000Y-130677500D02*
G01*
X128360000Y-130437500D01*
X128690000Y-130197500D01*
X128690000Y-130677500D01*
G37*
%TO.C,Cin2*%
X129190000Y-127586252D02*
X129190000Y-127063748D01*
X130660000Y-127586252D02*
X130660000Y-127063748D01*
%TO.C,R1*%
X124200000Y-131576359D02*
X124200000Y-131883641D01*
X124960000Y-131576359D02*
X124960000Y-131883641D01*
%TO.C,C1*%
X133463748Y-129515000D02*
X134886252Y-129515000D01*
X133463748Y-131335000D02*
X134886252Y-131335000D01*
%TO.C,FB1*%
X126790000Y-135412878D02*
X126790000Y-136212122D01*
X127910000Y-135412878D02*
X127910000Y-136212122D01*
%TO.C,J6*%
X118290000Y-133115000D02*
X119340000Y-133115000D01*
X118290000Y-135615000D02*
X118290000Y-133115000D01*
X119340000Y-133115000D02*
X119340000Y-132125000D01*
X119460000Y-137585000D02*
X123340000Y-137585000D01*
X124510000Y-133115000D02*
X123460000Y-133115000D01*
X124510000Y-135615000D02*
X124510000Y-133115000D01*
%TO.C,J5*%
X117830000Y-127440000D02*
X117830000Y-128040000D01*
X117940000Y-127440000D02*
X117830000Y-127440000D01*
X120705000Y-124850000D02*
X120905000Y-125250000D01*
X120905000Y-125250000D02*
X121105000Y-124850000D01*
X121105000Y-124850000D02*
X120705000Y-124850000D01*
X127370000Y-127440000D02*
X127480000Y-127440000D01*
X127480000Y-127440000D02*
X127480000Y-128040000D01*
%TO.C,C2*%
X130134420Y-130315000D02*
X130415580Y-130315000D01*
X130134420Y-131335000D02*
X130415580Y-131335000D01*
%TD*%
M02*
