%TF.GenerationSoftware,KiCad,Pcbnew,10.0.3*%
%TF.CreationDate,2026-06-19T22:45:07+01:00*%
%TF.ProjectId,MRF-Pro-v8-breakout,4d52462d-5072-46f2-9d76-382d62726561,rev?*%
%TF.SameCoordinates,Original*%
%TF.FileFunction,Copper,L1,Top*%
%TF.FilePolarity,Positive*%
%FSLAX46Y46*%
G04 Gerber Fmt 4.6, Leading zero omitted, Abs format (unit mm)*
G04 Created by KiCad (PCBNEW 10.0.3) date 2026-06-19 22:45:07*
%MOMM*%
%LPD*%
G01*
G04 APERTURE LIST*
G04 Aperture macros list*
%AMRoundRect*
0 Rectangle with rounded corners*
0 $1 Rounding radius*
0 $2 $3 $4 $5 $6 $7 $8 $9 X,Y pos of 4 corners*
0 Add a 4 corners polygon primitive as box body*
4,1,4,$2,$3,$4,$5,$6,$7,$8,$9,$2,$3,0*
0 Add four circle primitives for the rounded corners*
1,1,$1+$1,$2,$3*
1,1,$1+$1,$4,$5*
1,1,$1+$1,$6,$7*
1,1,$1+$1,$8,$9*
0 Add four rect primitives between the rounded corners*
20,1,$1+$1,$2,$3,$4,$5,0*
20,1,$1+$1,$4,$5,$6,$7,0*
20,1,$1+$1,$6,$7,$8,$9,0*
20,1,$1+$1,$8,$9,$2,$3,0*%
G04 Aperture macros list end*
%TA.AperFunction,SMDPad,CuDef*%
%ADD10RoundRect,0.140000X-0.140000X-0.170000X0.140000X-0.170000X0.140000X0.170000X-0.140000X0.170000X0*%
%TD*%
%TA.AperFunction,SMDPad,CuDef*%
%ADD11RoundRect,0.140000X0.170000X-0.140000X0.170000X0.140000X-0.170000X0.140000X-0.170000X-0.140000X0*%
%TD*%
%TA.AperFunction,SMDPad,CuDef*%
%ADD12RoundRect,0.150000X-0.150000X-0.625000X0.150000X-0.625000X0.150000X0.625000X-0.150000X0.625000X0*%
%TD*%
%TA.AperFunction,SMDPad,CuDef*%
%ADD13RoundRect,0.250000X-0.350000X-0.650000X0.350000X-0.650000X0.350000X0.650000X-0.350000X0.650000X0*%
%TD*%
%TA.AperFunction,SMDPad,CuDef*%
%ADD14RoundRect,0.150000X-0.150000X0.512500X-0.150000X-0.512500X0.150000X-0.512500X0.150000X0.512500X0*%
%TD*%
%TA.AperFunction,SMDPad,CuDef*%
%ADD15RoundRect,0.250000X0.475000X-0.250000X0.475000X0.250000X-0.475000X0.250000X-0.475000X-0.250000X0*%
%TD*%
%TA.AperFunction,SMDPad,CuDef*%
%ADD16RoundRect,0.135000X-0.185000X0.135000X-0.185000X-0.135000X0.185000X-0.135000X0.185000X0.135000X0*%
%TD*%
%TA.AperFunction,SMDPad,CuDef*%
%ADD17RoundRect,0.250000X-0.325000X-0.650000X0.325000X-0.650000X0.325000X0.650000X-0.325000X0.650000X0*%
%TD*%
%TA.AperFunction,SMDPad,CuDef*%
%ADD18RoundRect,0.218750X-0.381250X0.218750X-0.381250X-0.218750X0.381250X-0.218750X0.381250X0.218750X0*%
%TD*%
%TA.AperFunction,SMDPad,CuDef*%
%ADD19R,0.300000X1.100000*%
%TD*%
%TA.AperFunction,SMDPad,CuDef*%
%ADD20R,2.300000X3.100000*%
%TD*%
%TA.AperFunction,SMDPad,CuDef*%
%ADD21RoundRect,0.225000X-0.225000X-0.250000X0.225000X-0.250000X0.225000X0.250000X-0.225000X0.250000X0*%
%TD*%
%TA.AperFunction,ViaPad*%
%ADD22C,0.800000*%
%TD*%
%TA.AperFunction,Conductor*%
%ADD23C,0.500000*%
%TD*%
%TA.AperFunction,Conductor*%
%ADD24C,0.300000*%
%TD*%
%TA.AperFunction,Conductor*%
%ADD25C,0.250000*%
%TD*%
%TA.AperFunction,Conductor*%
%ADD26C,0.400000*%
%TD*%
G04 APERTURE END LIST*
D10*
%TO.P,C3,1*%
%TO.N,/3V3_LIDAR*%
X129365000Y-129600000D03*
%TO.P,C3,2*%
%TO.N,/GND*%
X130325000Y-129600000D03*
%TD*%
D11*
%TO.P,Cin1,1*%
%TO.N,/VBAT*%
X128425000Y-129210000D03*
%TO.P,Cin1,2*%
%TO.N,/GND*%
X128425000Y-128250000D03*
%TD*%
D12*
%TO.P,J7,1,Pin_1_1*%
%TO.N,/3V3_LASER*%
X130750000Y-132925000D03*
%TO.P,J7,2,Pin_2_2*%
%TO.N,/3V3_LIDAR*%
X131750000Y-132925000D03*
%TO.P,J7,3,Pin_3_3*%
%TO.N,Net-(J5-Pin_2)*%
X132750000Y-132925000D03*
%TO.P,J7,4,Pin_4_4*%
%TO.N,Net-(J5-Pin_3)*%
X133750000Y-132925000D03*
%TO.P,J7,5,Pin_5_5*%
%TO.N,/GND*%
X134750000Y-132925000D03*
%TO.P,J7,6,Pin_6_6*%
X135750000Y-132925000D03*
D13*
%TO.P,J7,MP*%
%TO.N,N/C*%
X129450000Y-136800000D03*
X137050000Y-136800000D03*
%TD*%
D14*
%TO.P,U1,1,IN_1*%
%TO.N,/VBAT*%
X127800000Y-130750000D03*
%TO.P,U1,2,GND_2*%
%TO.N,/GND*%
X126850000Y-130750000D03*
%TO.P,U1,3,EN_3*%
%TO.N,/3.3V*%
X125900000Y-130750000D03*
%TO.P,U1,4,NC_4*%
%TO.N,unconnected-(U1-NC-Pad4)*%
X125900000Y-133025000D03*
%TO.P,U1,5,OUT_5*%
%TO.N,/3V3_LIDAR*%
X127800000Y-133025000D03*
%TD*%
D15*
%TO.P,Cin2,1*%
%TO.N,/VBAT*%
X129925000Y-128275000D03*
%TO.P,Cin2,2*%
%TO.N,/GND*%
X129925000Y-126375000D03*
%TD*%
D16*
%TO.P,R1,1*%
%TO.N,/3.3V*%
X124580000Y-131220000D03*
%TO.P,R1,2*%
%TO.N,/GND*%
X124580000Y-132240000D03*
%TD*%
D17*
%TO.P,C1,1*%
%TO.N,/3V3_LASER*%
X132700000Y-130425000D03*
%TO.P,C1,2*%
%TO.N,/GND*%
X135650000Y-130425000D03*
%TD*%
D18*
%TO.P,FB1,1*%
%TO.N,/3V3_LIDAR*%
X127350000Y-134750000D03*
%TO.P,FB1,2*%
%TO.N,/3V3_LASER*%
X127350000Y-136875000D03*
%TD*%
D12*
%TO.P,J6,1,Pin_1_1*%
%TO.N,/GND*%
X119900000Y-132900000D03*
%TO.P,J6,2,Pin_2_2*%
%TO.N,/3.3V*%
X120900000Y-132900000D03*
%TO.P,J6,3,Pin_3_3*%
%TO.N,Net-(J5-Pin_7)*%
X121900000Y-132900000D03*
%TO.P,J6,4,Pin_4_4*%
%TO.N,Net-(J5-Pin_8)*%
X122900000Y-132900000D03*
D13*
%TO.P,J6,MP*%
%TO.N,N/C*%
X118600000Y-136775000D03*
X124200000Y-136775000D03*
%TD*%
D19*
%TO.P,J5,1,Pin_1_1*%
%TO.N,/3.3V*%
X120905000Y-124050000D03*
%TO.P,J5,2,Pin_2_2*%
%TO.N,Net-(J5-Pin_2)*%
X121405000Y-124050000D03*
%TO.P,J5,3,Pin_3_3*%
%TO.N,Net-(J5-Pin_3)*%
X121905000Y-124050000D03*
%TO.P,J5,4,Pin_4_4*%
%TO.N,/GND*%
X122405000Y-124050000D03*
%TO.P,J5,5,Pin_5_5*%
X122905000Y-124050000D03*
%TO.P,J5,6,Pin_6_6*%
%TO.N,/VBAT*%
X123405000Y-124050000D03*
%TO.P,J5,7,Pin_7_7*%
%TO.N,Net-(J5-Pin_7)*%
X123905000Y-124050000D03*
%TO.P,J5,8,Pin_8_8*%
%TO.N,Net-(J5-Pin_8)*%
X124405000Y-124050000D03*
D20*
%TO.P,J5,MP*%
%TO.N,N/C*%
X119235000Y-125750000D03*
X126075000Y-125750000D03*
%TD*%
D21*
%TO.P,C2,1*%
%TO.N,/3V3_LIDAR*%
X129500000Y-130825000D03*
%TO.P,C2,2*%
%TO.N,/GND*%
X131050000Y-130825000D03*
%TD*%
D22*
%TO.N,/3V3_LIDAR*%
X130300000Y-134950000D03*
X126100000Y-134750000D03*
%TO.N,/GND*%
X119925000Y-134600000D03*
X128425000Y-127275000D03*
X131350000Y-129600000D03*
X131600000Y-125500000D03*
X135225000Y-134400000D03*
X122675000Y-125450000D03*
X126875000Y-132125000D03*
X129825000Y-125050000D03*
%TO.N,Net-(J5-Pin_2)*%
X132500000Y-135025000D03*
X122725000Y-127850000D03*
%TO.N,Net-(J5-Pin_3)*%
X122657170Y-126492830D03*
X133725000Y-135150000D03*
%TO.N,Net-(J5-Pin_8)*%
X128200000Y-123475000D03*
X123075000Y-134775000D03*
%TD*%
%TO.N,/3V3_LIDAR*%
D23*
X129365000Y-129600000D02*
X129365000Y-130690000D01*
X130700000Y-134550000D02*
X130300000Y-134950000D01*
X131750000Y-132925000D02*
X131750000Y-133975000D01*
X131750000Y-133975000D02*
X131175000Y-134550000D01*
X127350000Y-134750000D02*
X127350000Y-133475000D01*
D24*
X129500000Y-130825000D02*
X129500000Y-131325000D01*
D23*
X127350000Y-133475000D02*
X127800000Y-133025000D01*
X127350000Y-134750000D02*
X126100000Y-134750000D01*
X129500000Y-131325000D02*
X127800000Y-133025000D01*
X131175000Y-134550000D02*
X130700000Y-134550000D01*
D24*
X129365000Y-130690000D02*
X129500000Y-130825000D01*
%TO.N,/GND*%
X126850000Y-132100000D02*
X126875000Y-132125000D01*
X131350000Y-129600000D02*
X130325000Y-129600000D01*
X119900000Y-134575000D02*
X119925000Y-134600000D01*
X135750000Y-133875000D02*
X135225000Y-134400000D01*
X135750000Y-130525000D02*
X135650000Y-130425000D01*
D25*
X126787500Y-132037500D02*
X126875000Y-132125000D01*
D24*
X134750000Y-133925000D02*
X135225000Y-134400000D01*
X128425000Y-128250000D02*
X128425000Y-127275000D01*
X129925000Y-125150000D02*
X129825000Y-125050000D01*
X129925000Y-126375000D02*
X129925000Y-125150000D01*
D25*
X124580000Y-132240000D02*
X124782500Y-132037500D01*
D24*
X135750000Y-132925000D02*
X135750000Y-133875000D01*
D25*
X124782500Y-132037500D02*
X126787500Y-132037500D01*
D24*
X131350000Y-130525000D02*
X131350000Y-129600000D01*
X131350000Y-129600000D02*
X131350000Y-129450000D01*
X128425000Y-127275000D02*
X128425000Y-125800000D01*
X134750000Y-132925000D02*
X134750000Y-133925000D01*
X134750000Y-131325000D02*
X135650000Y-130425000D01*
X131050000Y-130825000D02*
X131350000Y-130525000D01*
X119900000Y-132900000D02*
X119900000Y-134575000D01*
X129825000Y-125050000D02*
X131150000Y-125050000D01*
X126850000Y-130750000D02*
X126850000Y-132100000D01*
X122675000Y-124050000D02*
X122675000Y-125450000D01*
X122675000Y-124050000D02*
X122905000Y-124050000D01*
X129175000Y-125050000D02*
X129825000Y-125050000D01*
X131150000Y-125050000D02*
X131600000Y-125500000D01*
X135750000Y-132925000D02*
X135750000Y-130525000D01*
X134750000Y-132925000D02*
X134750000Y-131325000D01*
X122405000Y-124050000D02*
X122675000Y-124050000D01*
X128425000Y-125800000D02*
X129175000Y-125050000D01*
%TO.N,/VBAT*%
X123405000Y-125280000D02*
X123925000Y-125800000D01*
D26*
X129925000Y-128275000D02*
X129550000Y-128275000D01*
X128615000Y-129210000D02*
X128425000Y-129210000D01*
X129550000Y-128275000D02*
X128615000Y-129210000D01*
D24*
X125735000Y-129210000D02*
X128425000Y-129210000D01*
X123925000Y-125800000D02*
X123925000Y-127400000D01*
X128425000Y-130125000D02*
X128425000Y-129210000D01*
X127800000Y-130750000D02*
X128425000Y-130125000D01*
X123405000Y-124050000D02*
X123405000Y-125280000D01*
X123925000Y-127400000D02*
X125735000Y-129210000D01*
%TO.N,/3V3_LASER*%
D26*
X132350000Y-131725000D02*
X132700000Y-131375000D01*
X130750000Y-132150001D02*
X131175001Y-131725000D01*
D25*
X130750000Y-132925000D02*
X130750000Y-132150001D01*
D26*
X131175001Y-131725000D02*
X132350000Y-131725000D01*
X132700000Y-131375000D02*
X132700000Y-130425000D01*
D24*
X130750000Y-132425000D02*
X130750000Y-132925000D01*
D23*
X127350000Y-136875000D02*
X127350000Y-136325000D01*
X127350000Y-136325000D02*
X130750000Y-132925000D01*
%TO.N,Net-(J5-Pin_2)*%
D24*
X132750000Y-134775000D02*
X132500000Y-135025000D01*
X121405000Y-124050000D02*
X121405000Y-126530000D01*
X121405000Y-126530000D02*
X122725000Y-127850000D01*
X132750000Y-132925000D02*
X132750000Y-134775000D01*
%TO.N,Net-(J5-Pin_3)*%
X121905000Y-124050000D02*
X121905000Y-125740661D01*
X121905000Y-125740661D02*
X122657170Y-126492830D01*
X133750000Y-132925000D02*
X133750000Y-135125000D01*
X122657170Y-126492830D02*
X122707170Y-126542830D01*
X133750000Y-135125000D02*
X133725000Y-135150000D01*
%TO.N,/3.3V*%
X121950000Y-130425000D02*
X121675000Y-130150000D01*
X120905000Y-125755000D02*
X120905000Y-124050000D01*
X125900000Y-130750000D02*
X125575000Y-130425000D01*
X120905000Y-125755000D02*
X120900000Y-125760000D01*
X120900000Y-125760000D02*
X120900000Y-129375000D01*
X120900000Y-129375000D02*
X120900000Y-132900000D01*
D25*
X125430000Y-131220000D02*
X125900000Y-130750000D01*
D24*
X121675000Y-130150000D02*
X120900000Y-129375000D01*
D25*
X124580000Y-131220000D02*
X125430000Y-131220000D01*
D24*
X125575000Y-130425000D02*
X121950000Y-130425000D01*
%TO.N,Net-(J5-Pin_7)*%
X123905000Y-123200000D02*
X123855000Y-123150000D01*
X118435000Y-123150000D02*
X117735000Y-123850000D01*
X117735000Y-123850000D02*
X117735000Y-133470661D01*
X117735000Y-133470661D02*
X119614339Y-135350000D01*
X123855000Y-123150000D02*
X118435000Y-123150000D01*
X120636262Y-135350000D02*
X121900000Y-134086262D01*
X119614339Y-135350000D02*
X120636262Y-135350000D01*
X121900000Y-134086262D02*
X121900000Y-132900000D01*
X123905000Y-124050000D02*
X123905000Y-123200000D01*
%TO.N,Net-(J5-Pin_8)*%
X124405000Y-124050000D02*
X124980000Y-123475000D01*
X122900000Y-132900000D02*
X122900000Y-134600000D01*
X128200000Y-123475000D02*
X128250000Y-123475000D01*
X124980000Y-123475000D02*
X128200000Y-123475000D01*
X122900000Y-134600000D02*
X123075000Y-134775000D01*
%TD*%
M02*
