%TF.GenerationSoftware,KiCad,Pcbnew,10.0.3*%
%TF.CreationDate,2026-06-20T10:16:10+01:00*%
%TF.ProjectId,MRF-Pro-v8-breakout,4d52462d-5072-46f2-9d76-382d62726561,rev?*%
%TF.SameCoordinates,Original*%
%TF.FileFunction,Copper,L1,Top*%
%TF.FilePolarity,Positive*%
%FSLAX46Y46*%
G04 Gerber Fmt 4.6, Leading zero omitted, Abs format (unit mm)*
G04 Created by KiCad (PCBNEW 10.0.3) date 2026-06-20 10:16:10*
%MOMM*%
%LPD*%
G01*
G04 APERTURE LIST*
G04 Aperture macros list*
%AMRoundRect*
0 Rectangle with rounded corners*
0 $1 Rounding radius*
0 $2 $3 $4 $5 $6 $7 $8 $9 X,Y pos of 4 corners*
0 Add a 4 corners polygon primitive as box body*
4,1,4,$2,$3,$4,$5,$6,$7,$8,$9,$2,$3,0*
0 Add four circle primitives for the rounded corners*
1,1,$1+$1,$2,$3*
1,1,$1+$1,$4,$5*
1,1,$1+$1,$6,$7*
1,1,$1+$1,$8,$9*
0 Add four rect primitives between the rounded corners*
20,1,$1+$1,$2,$3,$4,$5,0*
20,1,$1+$1,$4,$5,$6,$7,0*
20,1,$1+$1,$6,$7,$8,$9,0*
20,1,$1+$1,$8,$9,$2,$3,0*%
G04 Aperture macros list end*
%TA.AperFunction,SMDPad,CuDef*%
%ADD10RoundRect,0.140000X0.170000X-0.140000X0.170000X0.140000X-0.170000X0.140000X-0.170000X-0.140000X0*%
%TD*%
%TA.AperFunction,SMDPad,CuDef*%
%ADD11RoundRect,0.140000X0.140000X0.170000X-0.140000X0.170000X-0.140000X-0.170000X0.140000X-0.170000X0*%
%TD*%
%TA.AperFunction,SMDPad,CuDef*%
%ADD12RoundRect,0.150000X-0.150000X-0.625000X0.150000X-0.625000X0.150000X0.625000X-0.150000X0.625000X0*%
%TD*%
%TA.AperFunction,SMDPad,CuDef*%
%ADD13RoundRect,0.250000X-0.350000X-0.650000X0.350000X-0.650000X0.350000X0.650000X-0.350000X0.650000X0*%
%TD*%
%TA.AperFunction,SMDPad,CuDef*%
%ADD14RoundRect,0.150000X-0.150000X0.512500X-0.150000X-0.512500X0.150000X-0.512500X0.150000X0.512500X0*%
%TD*%
%TA.AperFunction,SMDPad,CuDef*%
%ADD15RoundRect,0.250000X0.250000X0.475000X-0.250000X0.475000X-0.250000X-0.475000X0.250000X-0.475000X0*%
%TD*%
%TA.AperFunction,SMDPad,CuDef*%
%ADD16RoundRect,0.135000X-0.185000X0.135000X-0.185000X-0.135000X0.185000X-0.135000X0.185000X0.135000X0*%
%TD*%
%TA.AperFunction,SMDPad,CuDef*%
%ADD17RoundRect,0.250000X-0.325000X-0.650000X0.325000X-0.650000X0.325000X0.650000X-0.325000X0.650000X0*%
%TD*%
%TA.AperFunction,SMDPad,CuDef*%
%ADD18RoundRect,0.218750X-0.381250X0.218750X-0.381250X-0.218750X0.381250X-0.218750X0.381250X0.218750X0*%
%TD*%
%TA.AperFunction,SMDPad,CuDef*%
%ADD19R,0.300000X1.100000*%
%TD*%
%TA.AperFunction,SMDPad,CuDef*%
%ADD20R,2.300000X3.100000*%
%TD*%
%TA.AperFunction,SMDPad,CuDef*%
%ADD21RoundRect,0.225000X-0.225000X-0.250000X0.225000X-0.250000X0.225000X0.250000X-0.225000X0.250000X0*%
%TD*%
%TA.AperFunction,ViaPad*%
%ADD22C,0.800000*%
%TD*%
%TA.AperFunction,Conductor*%
%ADD23C,0.300000*%
%TD*%
%TA.AperFunction,Conductor*%
%ADD24C,0.200000*%
%TD*%
%TA.AperFunction,Conductor*%
%ADD25C,0.350000*%
%TD*%
G04 APERTURE END LIST*
D10*
%TO.P,C3,1*%
%TO.N,/3V3_LIDAR*%
X132375000Y-131185000D03*
%TO.P,C3,2*%
%TO.N,/GND*%
X132375000Y-130225000D03*
%TD*%
D11*
%TO.P,Cin1,1*%
%TO.N,/VBAT*%
X121775000Y-130475000D03*
%TO.P,Cin1,2*%
%TO.N,/GND*%
X120815000Y-130475000D03*
%TD*%
D12*
%TO.P,J7,1,Pin_1_1*%
%TO.N,/3V3_LASER*%
X130750000Y-132925000D03*
%TO.P,J7,2,Pin_2_2*%
%TO.N,/3V3_LIDAR*%
X131750000Y-132925000D03*
%TO.P,J7,3,Pin_3_3*%
%TO.N,Net-(J5-Pin_2)*%
X132750000Y-132925000D03*
%TO.P,J7,4,Pin_4_4*%
%TO.N,Net-(J5-Pin_3)*%
X133750000Y-132925000D03*
%TO.P,J7,5,Pin_5_5*%
%TO.N,/GND*%
X134750000Y-132925000D03*
%TO.P,J7,6,Pin_6_6*%
X135750000Y-132925000D03*
D13*
%TO.P,J7,MP*%
%TO.N,N/C*%
X129450000Y-136800000D03*
X137050000Y-136800000D03*
%TD*%
D14*
%TO.P,U1,1,IN_1*%
%TO.N,/VBAT*%
X127800000Y-130750000D03*
%TO.P,U1,2,GND_2*%
%TO.N,/GND*%
X126850000Y-130750000D03*
%TO.P,U1,3,EN_3*%
%TO.N,/3.3V*%
X125900000Y-130750000D03*
%TO.P,U1,4,NC_4*%
%TO.N,unconnected-(U1-NC-Pad4)*%
X125900000Y-133025000D03*
%TO.P,U1,5,OUT_5*%
%TO.N,/3V3_LIDAR*%
X127800000Y-133025000D03*
%TD*%
D15*
%TO.P,Cin2,1*%
%TO.N,/VBAT*%
X121775000Y-128975000D03*
%TO.P,Cin2,2*%
%TO.N,/GND*%
X119875000Y-128975000D03*
%TD*%
D16*
%TO.P,R1,1*%
%TO.N,/3.3V*%
X124580000Y-131220000D03*
%TO.P,R1,2*%
%TO.N,/GND*%
X124580000Y-132240000D03*
%TD*%
D17*
%TO.P,C1,1*%
%TO.N,/3V3_LASER*%
X133975000Y-130325000D03*
%TO.P,C1,2*%
%TO.N,/GND*%
X136925000Y-130325000D03*
%TD*%
D18*
%TO.P,FB1,1*%
%TO.N,/3V3_LIDAR*%
X127375000Y-134700000D03*
%TO.P,FB1,2*%
%TO.N,/3V3_LASER*%
X127375000Y-136825000D03*
%TD*%
D12*
%TO.P,J6,1,Pin_1_1*%
%TO.N,/GND*%
X119900000Y-132900000D03*
%TO.P,J6,2,Pin_2_2*%
%TO.N,/3.3V*%
X120900000Y-132900000D03*
%TO.P,J6,3,Pin_3_3*%
%TO.N,Net-(J5-Pin_7)*%
X121900000Y-132900000D03*
%TO.P,J6,4,Pin_4_4*%
%TO.N,Net-(J5-Pin_8)*%
X122900000Y-132900000D03*
D13*
%TO.P,J6,MP*%
%TO.N,N/C*%
X118600000Y-136775000D03*
X124200000Y-136775000D03*
%TD*%
D19*
%TO.P,J5,1,Pin_1_1*%
%TO.N,/VBAT*%
X129575000Y-128645000D03*
%TO.P,J5,2,Pin_2_2*%
%TO.N,Net-(J5-Pin_2)*%
X129075000Y-128645000D03*
%TO.P,J5,3,Pin_3_3*%
%TO.N,Net-(J5-Pin_3)*%
X128575000Y-128645000D03*
%TO.P,J5,4,Pin_4_4*%
%TO.N,/GND*%
X128075000Y-128645000D03*
%TO.P,J5,5,Pin_5_5*%
X127575000Y-128645000D03*
%TO.P,J5,6,Pin_6_6*%
%TO.N,/3.3V*%
X127075000Y-128645000D03*
%TO.P,J5,7,Pin_7_7*%
%TO.N,Net-(J5-Pin_7)*%
X126575000Y-128645000D03*
%TO.P,J5,8,Pin_8_8*%
%TO.N,Net-(J5-Pin_8)*%
X126075000Y-128645000D03*
D20*
%TO.P,J5,MP*%
%TO.N,N/C*%
X131245000Y-126945000D03*
X124405000Y-126945000D03*
%TD*%
D21*
%TO.P,C2,1*%
%TO.N,/3V3_LIDAR*%
X129500000Y-130825000D03*
%TO.P,C2,2*%
%TO.N,/GND*%
X131050000Y-130825000D03*
%TD*%
D22*
%TO.N,/GND*%
X136925000Y-132450000D03*
X124580000Y-133750000D03*
X130425000Y-129725000D03*
X119925000Y-136775000D03*
X136475000Y-134300000D03*
X127812500Y-127062500D03*
X119925000Y-131525000D03*
%TO.N,Net-(J5-Pin_2)*%
X128425000Y-125250000D03*
X132750000Y-135775000D03*
%TO.N,Net-(J5-Pin_3)*%
X127100000Y-125350000D03*
X133750000Y-135025000D03*
%TO.N,Net-(J5-Pin_7)*%
X126450000Y-127100000D03*
X120975000Y-135250000D03*
%TO.N,Net-(J5-Pin_8)*%
X124850000Y-129175000D03*
X122900000Y-134425000D03*
%TD*%
%TO.N,/3V3_LIDAR*%
D23*
X127800000Y-133850000D02*
X127800000Y-133025000D01*
X131750000Y-131810000D02*
X131750000Y-132925000D01*
X129500000Y-130825000D02*
X130475000Y-131800000D01*
X129500000Y-131950000D02*
X129500000Y-130825000D01*
X127375000Y-134700000D02*
X127675000Y-134400000D01*
X127675000Y-134400000D02*
X127675000Y-133975000D01*
X127800000Y-133025000D02*
X128425000Y-133025000D01*
X132375000Y-131185000D02*
X131750000Y-131810000D01*
X128425000Y-133025000D02*
X129500000Y-131950000D01*
X130475000Y-131800000D02*
X131740000Y-131800000D01*
X127675000Y-133975000D02*
X127800000Y-133850000D01*
X131740000Y-131800000D02*
X131750000Y-131810000D01*
%TO.N,/GND*%
X126850000Y-131412499D02*
X126249999Y-132012500D01*
X123250000Y-135869544D02*
X123594544Y-135525000D01*
X137325000Y-133450000D02*
X136475000Y-134300000D01*
X136925000Y-132450000D02*
X136925000Y-130325000D01*
X133050000Y-131230456D02*
X133619544Y-131800000D01*
X119925000Y-136775000D02*
X119900000Y-136750000D01*
X119875000Y-128975000D02*
X119875000Y-129535000D01*
X119875000Y-128975000D02*
X119875000Y-131475000D01*
X135750000Y-132925000D02*
X135750000Y-133575000D01*
X123250000Y-136775000D02*
X123250000Y-135869544D01*
X124580000Y-133750000D02*
X124580000Y-132240000D01*
X127812500Y-127062500D02*
X127575000Y-127300000D01*
X136925000Y-132450000D02*
X137325000Y-132850000D01*
X132684999Y-130225000D02*
X133050000Y-130590001D01*
X137325000Y-132850000D02*
X137325000Y-133450000D01*
X120815000Y-130635000D02*
X119925000Y-131525000D01*
X133619544Y-131800000D02*
X134399999Y-131800000D01*
X124807500Y-132012500D02*
X124580000Y-132240000D01*
X134399999Y-131800000D02*
X134750000Y-132150001D01*
X123594544Y-135525000D02*
X124500000Y-135525000D01*
X119875000Y-131475000D02*
X119925000Y-131525000D01*
X135825000Y-134950000D02*
X136475000Y-134300000D01*
X134750000Y-134450000D02*
X135300000Y-135000000D01*
X124580000Y-135445000D02*
X124580000Y-133750000D01*
X133050000Y-130590001D02*
X133050000Y-131230456D01*
X124500000Y-135525000D02*
X124580000Y-135445000D01*
X126850000Y-130750000D02*
X126850000Y-131412499D01*
X127812500Y-127062500D02*
X128075000Y-127325000D01*
X120815000Y-130475000D02*
X120815000Y-130635000D01*
X130425000Y-130200000D02*
X131050000Y-130825000D01*
X130425000Y-129725000D02*
X130425000Y-130200000D01*
X132375000Y-130225000D02*
X132684999Y-130225000D01*
X119900000Y-136750000D02*
X119900000Y-132900000D01*
X119925000Y-132875000D02*
X119900000Y-132900000D01*
X127575000Y-127300000D02*
X127575000Y-128645000D01*
X119875000Y-129535000D02*
X120815000Y-130475000D01*
X119925000Y-131525000D02*
X119925000Y-132875000D01*
X131650000Y-130225000D02*
X132375000Y-130225000D01*
X135300000Y-135000000D02*
X135825000Y-135000000D01*
X135825000Y-135000000D02*
X135825000Y-134950000D01*
X134750000Y-132925000D02*
X134750000Y-134450000D01*
X135750000Y-133575000D02*
X136475000Y-134300000D01*
X131050000Y-130825000D02*
X131650000Y-130225000D01*
X134750000Y-132150001D02*
X134750000Y-132925000D01*
X128075000Y-127325000D02*
X128075000Y-128645000D01*
X126249999Y-132012500D02*
X124807500Y-132012500D01*
X119925000Y-136775000D02*
X123250000Y-136775000D01*
%TO.N,/VBAT*%
X121775000Y-128975000D02*
X121775000Y-130475000D01*
X129575000Y-129495000D02*
X129575000Y-128645000D01*
X127800000Y-130750000D02*
X129005000Y-129545000D01*
X128746016Y-124475000D02*
X123275000Y-124475000D01*
X123275000Y-124475000D02*
X121775000Y-125975000D01*
X129575000Y-125303984D02*
X128746016Y-124475000D01*
X129575000Y-128645000D02*
X129575000Y-125303984D01*
X129525000Y-129545000D02*
X129575000Y-129495000D01*
X121775000Y-125975000D02*
X121775000Y-128975000D01*
X129005000Y-129545000D02*
X129525000Y-129545000D01*
%TO.N,/3V3_LASER*%
X127375000Y-136300000D02*
X130750000Y-132925000D01*
X130750000Y-134835661D02*
X130750000Y-132925000D01*
X127375000Y-136825000D02*
X127375000Y-136300000D01*
X127375000Y-136825000D02*
X128600000Y-138050000D01*
X137505456Y-129075000D02*
X137975000Y-129544544D01*
X130625000Y-138050000D02*
X132294670Y-136380330D01*
X137975000Y-129544544D02*
X137975000Y-133860661D01*
X132439339Y-136525000D02*
X132294670Y-136380330D01*
X137975000Y-133860661D02*
X135310661Y-136525000D01*
X132294670Y-136380330D02*
X130750000Y-134835661D01*
X128600000Y-138050000D02*
X130625000Y-138050000D01*
X135310661Y-136525000D02*
X132439339Y-136525000D01*
X133975000Y-130325000D02*
X135225000Y-129075000D01*
X135225000Y-129075000D02*
X137505456Y-129075000D01*
%TO.N,Net-(J5-Pin_2)*%
D24*
X129075000Y-125900000D02*
X128425000Y-125250000D01*
D25*
X132750000Y-132925000D02*
X132750000Y-135775000D01*
D24*
X128425000Y-125250000D02*
X128350000Y-125175000D01*
X129075000Y-128645000D02*
X129075000Y-125900000D01*
%TO.N,Net-(J5-Pin_3)*%
X127100000Y-125350000D02*
X127075000Y-125350000D01*
X128575000Y-128645000D02*
X128575000Y-126825000D01*
D25*
X133750000Y-132925000D02*
X133750000Y-135025000D01*
D24*
X128575000Y-126825000D02*
X127100000Y-125350000D01*
%TO.N,/3.3V*%
D23*
X126912500Y-129737500D02*
X126250001Y-129737500D01*
X120900000Y-131772316D02*
X120900000Y-132900000D01*
X127075000Y-128645000D02*
X127075000Y-129575000D01*
X124260001Y-131220000D02*
X123805001Y-131675000D01*
X120997316Y-131675000D02*
X120900000Y-131772316D01*
X125050000Y-130750000D02*
X124580000Y-131220000D01*
X124580000Y-131220000D02*
X124260001Y-131220000D01*
X123805001Y-131675000D02*
X120997316Y-131675000D01*
X126250001Y-129737500D02*
X125900000Y-130087501D01*
X125900000Y-130750000D02*
X125050000Y-130750000D01*
X127075000Y-129575000D02*
X126912500Y-129737500D01*
X125900000Y-130087501D02*
X125900000Y-130750000D01*
%TO.N,Net-(J5-Pin_7)*%
X126575000Y-127225000D02*
X126450000Y-127100000D01*
X126575000Y-128645000D02*
X126575000Y-127225000D01*
X126450000Y-127100000D02*
X126425000Y-127075000D01*
X121900000Y-132900000D02*
X121900000Y-134325000D01*
X121900000Y-134325000D02*
X120975000Y-135250000D01*
%TO.N,Net-(J5-Pin_8)*%
X126075000Y-128645000D02*
X125545000Y-129175000D01*
X125545000Y-129175000D02*
X124850000Y-129175000D01*
X122900000Y-132900000D02*
X122900000Y-134425000D01*
%TD*%
M02*
