%TF.GenerationSoftware,KiCad,Pcbnew,10.0.3*%
%TF.CreationDate,2026-06-19T23:38:08+01:00*%
%TF.ProjectId,MRF-Pro-v8-breakout,4d52462d-5072-46f2-9d76-382d62726561,rev?*%
%TF.SameCoordinates,Original*%
%TF.FileFunction,Drillmap*%
%TF.FilePolarity,Positive*%
%FSLAX45Y45*%
G04 Gerber Fmt 4.5, Leading zero omitted, Abs format (unit mm)*
G04 Created by KiCad (PCBNEW 10.0.3) date 2026-06-19 23:38:08*
%MOMM*%
%LPD*%
G01*
G04 APERTURE LIST*
%ADD10C,0.200000*%
%ADD11C,0.100000*%
G04 APERTURE END LIST*
D10*
X11732260Y-12288520D02*
X13832840Y-12288520D01*
X13832840Y-13835380D01*
X11732260Y-13835380D01*
X11732260Y-12288520D01*
D11*
X11972500Y-13440000D02*
X12012500Y-13480000D01*
X12012500Y-13440000D02*
X11972500Y-13480000D01*
X12220000Y-12622500D02*
X12260000Y-12662500D01*
X12260000Y-12622500D02*
X12220000Y-12662500D01*
X12342500Y-12560000D02*
X12382500Y-12600000D01*
X12382500Y-12560000D02*
X12342500Y-12600000D01*
X12397500Y-12657500D02*
X12437500Y-12697500D01*
X12437500Y-12657500D02*
X12397500Y-12697500D01*
X12590000Y-13455000D02*
X12630000Y-13495000D01*
X12630000Y-13455000D02*
X12590000Y-13495000D01*
X12667500Y-13192500D02*
X12707500Y-13232500D01*
X12707500Y-13192500D02*
X12667500Y-13232500D01*
X12822500Y-12707500D02*
X12862500Y-12747500D01*
X12862500Y-12707500D02*
X12822500Y-12747500D01*
X12962500Y-12485000D02*
X13002500Y-12525000D01*
X13002500Y-12485000D02*
X12962500Y-12525000D01*
X13010000Y-13475000D02*
X13050000Y-13515000D01*
X13050000Y-13475000D02*
X13010000Y-13515000D01*
X13115000Y-12940000D02*
X13155000Y-12980000D01*
X13155000Y-12940000D02*
X13115000Y-12980000D01*
X13140000Y-12530000D02*
X13180000Y-12570000D01*
X13180000Y-12530000D02*
X13140000Y-12570000D01*
X13230000Y-13482500D02*
X13270000Y-13522500D01*
X13270000Y-13482500D02*
X13230000Y-13522500D01*
X13352500Y-13495000D02*
X13392500Y-13535000D01*
X13392500Y-13495000D02*
X13352500Y-13535000D01*
X13502500Y-13420000D02*
X13542500Y-13460000D01*
X13542500Y-13420000D02*
X13502500Y-13460000D01*
D10*
X11983037Y-14156864D02*
X11983037Y-13956864D01*
X11983037Y-13956864D02*
X12030656Y-13956864D01*
X12030656Y-13956864D02*
X12059227Y-13966388D01*
X12059227Y-13966388D02*
X12078275Y-13985435D01*
X12078275Y-13985435D02*
X12087799Y-14004483D01*
X12087799Y-14004483D02*
X12097322Y-14042578D01*
X12097322Y-14042578D02*
X12097322Y-14071149D01*
X12097322Y-14071149D02*
X12087799Y-14109245D01*
X12087799Y-14109245D02*
X12078275Y-14128292D01*
X12078275Y-14128292D02*
X12059227Y-14147340D01*
X12059227Y-14147340D02*
X12030656Y-14156864D01*
X12030656Y-14156864D02*
X11983037Y-14156864D01*
X12183037Y-14156864D02*
X12183037Y-14023530D01*
X12183037Y-14061626D02*
X12192561Y-14042578D01*
X12192561Y-14042578D02*
X12202084Y-14033054D01*
X12202084Y-14033054D02*
X12221132Y-14023530D01*
X12221132Y-14023530D02*
X12240180Y-14023530D01*
X12306846Y-14156864D02*
X12306846Y-14023530D01*
X12306846Y-13956864D02*
X12297322Y-13966388D01*
X12297322Y-13966388D02*
X12306846Y-13975911D01*
X12306846Y-13975911D02*
X12316370Y-13966388D01*
X12316370Y-13966388D02*
X12306846Y-13956864D01*
X12306846Y-13956864D02*
X12306846Y-13975911D01*
X12430656Y-14156864D02*
X12411608Y-14147340D01*
X12411608Y-14147340D02*
X12402084Y-14128292D01*
X12402084Y-14128292D02*
X12402084Y-13956864D01*
X12535418Y-14156864D02*
X12516370Y-14147340D01*
X12516370Y-14147340D02*
X12506846Y-14128292D01*
X12506846Y-14128292D02*
X12506846Y-13956864D01*
X12763989Y-14156864D02*
X12763989Y-13956864D01*
X12763989Y-13956864D02*
X12830656Y-14099721D01*
X12830656Y-14099721D02*
X12897322Y-13956864D01*
X12897322Y-13956864D02*
X12897322Y-14156864D01*
X13078275Y-14156864D02*
X13078275Y-14052102D01*
X13078275Y-14052102D02*
X13068751Y-14033054D01*
X13068751Y-14033054D02*
X13049703Y-14023530D01*
X13049703Y-14023530D02*
X13011608Y-14023530D01*
X13011608Y-14023530D02*
X12992561Y-14033054D01*
X13078275Y-14147340D02*
X13059227Y-14156864D01*
X13059227Y-14156864D02*
X13011608Y-14156864D01*
X13011608Y-14156864D02*
X12992561Y-14147340D01*
X12992561Y-14147340D02*
X12983037Y-14128292D01*
X12983037Y-14128292D02*
X12983037Y-14109245D01*
X12983037Y-14109245D02*
X12992561Y-14090197D01*
X12992561Y-14090197D02*
X13011608Y-14080673D01*
X13011608Y-14080673D02*
X13059227Y-14080673D01*
X13059227Y-14080673D02*
X13078275Y-14071149D01*
X13173513Y-14023530D02*
X13173513Y-14223530D01*
X13173513Y-14033054D02*
X13192561Y-14023530D01*
X13192561Y-14023530D02*
X13230656Y-14023530D01*
X13230656Y-14023530D02*
X13249703Y-14033054D01*
X13249703Y-14033054D02*
X13259227Y-14042578D01*
X13259227Y-14042578D02*
X13268751Y-14061626D01*
X13268751Y-14061626D02*
X13268751Y-14118768D01*
X13268751Y-14118768D02*
X13259227Y-14137816D01*
X13259227Y-14137816D02*
X13249703Y-14147340D01*
X13249703Y-14147340D02*
X13230656Y-14156864D01*
X13230656Y-14156864D02*
X13192561Y-14156864D01*
X13192561Y-14156864D02*
X13173513Y-14147340D01*
X13354465Y-14137816D02*
X13363989Y-14147340D01*
X13363989Y-14147340D02*
X13354465Y-14156864D01*
X13354465Y-14156864D02*
X13344942Y-14147340D01*
X13344942Y-14147340D02*
X13354465Y-14137816D01*
X13354465Y-14137816D02*
X13354465Y-14156864D01*
X13354465Y-14033054D02*
X13363989Y-14042578D01*
X13363989Y-14042578D02*
X13354465Y-14052102D01*
X13354465Y-14052102D02*
X13344942Y-14042578D01*
X13344942Y-14042578D02*
X13354465Y-14033054D01*
X13354465Y-14033054D02*
X13354465Y-14052102D01*
D11*
X11682260Y-14465380D02*
X11722260Y-14505380D01*
X11722260Y-14465380D02*
X11682260Y-14505380D01*
D10*
X12021132Y-14376864D02*
X12040180Y-14376864D01*
X12040180Y-14376864D02*
X12059227Y-14386388D01*
X12059227Y-14386388D02*
X12068751Y-14395911D01*
X12068751Y-14395911D02*
X12078275Y-14414959D01*
X12078275Y-14414959D02*
X12087799Y-14453054D01*
X12087799Y-14453054D02*
X12087799Y-14500673D01*
X12087799Y-14500673D02*
X12078275Y-14538768D01*
X12078275Y-14538768D02*
X12068751Y-14557816D01*
X12068751Y-14557816D02*
X12059227Y-14567340D01*
X12059227Y-14567340D02*
X12040180Y-14576864D01*
X12040180Y-14576864D02*
X12021132Y-14576864D01*
X12021132Y-14576864D02*
X12002084Y-14567340D01*
X12002084Y-14567340D02*
X11992561Y-14557816D01*
X11992561Y-14557816D02*
X11983037Y-14538768D01*
X11983037Y-14538768D02*
X11973513Y-14500673D01*
X11973513Y-14500673D02*
X11973513Y-14453054D01*
X11973513Y-14453054D02*
X11983037Y-14414959D01*
X11983037Y-14414959D02*
X11992561Y-14395911D01*
X11992561Y-14395911D02*
X12002084Y-14386388D01*
X12002084Y-14386388D02*
X12021132Y-14376864D01*
X12173513Y-14557816D02*
X12183037Y-14567340D01*
X12183037Y-14567340D02*
X12173513Y-14576864D01*
X12173513Y-14576864D02*
X12163989Y-14567340D01*
X12163989Y-14567340D02*
X12173513Y-14557816D01*
X12173513Y-14557816D02*
X12173513Y-14576864D01*
X12354465Y-14443530D02*
X12354465Y-14576864D01*
X12306846Y-14367340D02*
X12259227Y-14510197D01*
X12259227Y-14510197D02*
X12383037Y-14510197D01*
X12497322Y-14376864D02*
X12516370Y-14376864D01*
X12516370Y-14376864D02*
X12535418Y-14386388D01*
X12535418Y-14386388D02*
X12544942Y-14395911D01*
X12544942Y-14395911D02*
X12554465Y-14414959D01*
X12554465Y-14414959D02*
X12563989Y-14453054D01*
X12563989Y-14453054D02*
X12563989Y-14500673D01*
X12563989Y-14500673D02*
X12554465Y-14538768D01*
X12554465Y-14538768D02*
X12544942Y-14557816D01*
X12544942Y-14557816D02*
X12535418Y-14567340D01*
X12535418Y-14567340D02*
X12516370Y-14576864D01*
X12516370Y-14576864D02*
X12497322Y-14576864D01*
X12497322Y-14576864D02*
X12478275Y-14567340D01*
X12478275Y-14567340D02*
X12468751Y-14557816D01*
X12468751Y-14557816D02*
X12459227Y-14538768D01*
X12459227Y-14538768D02*
X12449703Y-14500673D01*
X12449703Y-14500673D02*
X12449703Y-14453054D01*
X12449703Y-14453054D02*
X12459227Y-14414959D01*
X12459227Y-14414959D02*
X12468751Y-14395911D01*
X12468751Y-14395911D02*
X12478275Y-14386388D01*
X12478275Y-14386388D02*
X12497322Y-14376864D01*
X12687799Y-14376864D02*
X12706846Y-14376864D01*
X12706846Y-14376864D02*
X12725894Y-14386388D01*
X12725894Y-14386388D02*
X12735418Y-14395911D01*
X12735418Y-14395911D02*
X12744942Y-14414959D01*
X12744942Y-14414959D02*
X12754465Y-14453054D01*
X12754465Y-14453054D02*
X12754465Y-14500673D01*
X12754465Y-14500673D02*
X12744942Y-14538768D01*
X12744942Y-14538768D02*
X12735418Y-14557816D01*
X12735418Y-14557816D02*
X12725894Y-14567340D01*
X12725894Y-14567340D02*
X12706846Y-14576864D01*
X12706846Y-14576864D02*
X12687799Y-14576864D01*
X12687799Y-14576864D02*
X12668751Y-14567340D01*
X12668751Y-14567340D02*
X12659227Y-14557816D01*
X12659227Y-14557816D02*
X12649703Y-14538768D01*
X12649703Y-14538768D02*
X12640180Y-14500673D01*
X12640180Y-14500673D02*
X12640180Y-14453054D01*
X12640180Y-14453054D02*
X12649703Y-14414959D01*
X12649703Y-14414959D02*
X12659227Y-14395911D01*
X12659227Y-14395911D02*
X12668751Y-14386388D01*
X12668751Y-14386388D02*
X12687799Y-14376864D01*
X12840180Y-14576864D02*
X12840180Y-14443530D01*
X12840180Y-14462578D02*
X12849703Y-14453054D01*
X12849703Y-14453054D02*
X12868751Y-14443530D01*
X12868751Y-14443530D02*
X12897323Y-14443530D01*
X12897323Y-14443530D02*
X12916370Y-14453054D01*
X12916370Y-14453054D02*
X12925894Y-14472102D01*
X12925894Y-14472102D02*
X12925894Y-14576864D01*
X12925894Y-14472102D02*
X12935418Y-14453054D01*
X12935418Y-14453054D02*
X12954465Y-14443530D01*
X12954465Y-14443530D02*
X12983037Y-14443530D01*
X12983037Y-14443530D02*
X13002084Y-14453054D01*
X13002084Y-14453054D02*
X13011608Y-14472102D01*
X13011608Y-14472102D02*
X13011608Y-14576864D01*
X13106846Y-14576864D02*
X13106846Y-14443530D01*
X13106846Y-14462578D02*
X13116370Y-14453054D01*
X13116370Y-14453054D02*
X13135418Y-14443530D01*
X13135418Y-14443530D02*
X13163989Y-14443530D01*
X13163989Y-14443530D02*
X13183037Y-14453054D01*
X13183037Y-14453054D02*
X13192561Y-14472102D01*
X13192561Y-14472102D02*
X13192561Y-14576864D01*
X13192561Y-14472102D02*
X13202084Y-14453054D01*
X13202084Y-14453054D02*
X13221132Y-14443530D01*
X13221132Y-14443530D02*
X13249703Y-14443530D01*
X13249703Y-14443530D02*
X13268751Y-14453054D01*
X13268751Y-14453054D02*
X13278275Y-14472102D01*
X13278275Y-14472102D02*
X13278275Y-14576864D01*
X13668751Y-14367340D02*
X13497323Y-14624483D01*
X13925894Y-14376864D02*
X13944942Y-14376864D01*
X13944942Y-14376864D02*
X13963989Y-14386388D01*
X13963989Y-14386388D02*
X13973513Y-14395911D01*
X13973513Y-14395911D02*
X13983037Y-14414959D01*
X13983037Y-14414959D02*
X13992561Y-14453054D01*
X13992561Y-14453054D02*
X13992561Y-14500673D01*
X13992561Y-14500673D02*
X13983037Y-14538768D01*
X13983037Y-14538768D02*
X13973513Y-14557816D01*
X13973513Y-14557816D02*
X13963989Y-14567340D01*
X13963989Y-14567340D02*
X13944942Y-14576864D01*
X13944942Y-14576864D02*
X13925894Y-14576864D01*
X13925894Y-14576864D02*
X13906846Y-14567340D01*
X13906846Y-14567340D02*
X13897323Y-14557816D01*
X13897323Y-14557816D02*
X13887799Y-14538768D01*
X13887799Y-14538768D02*
X13878275Y-14500673D01*
X13878275Y-14500673D02*
X13878275Y-14453054D01*
X13878275Y-14453054D02*
X13887799Y-14414959D01*
X13887799Y-14414959D02*
X13897323Y-14395911D01*
X13897323Y-14395911D02*
X13906846Y-14386388D01*
X13906846Y-14386388D02*
X13925894Y-14376864D01*
X14078275Y-14557816D02*
X14087799Y-14567340D01*
X14087799Y-14567340D02*
X14078275Y-14576864D01*
X14078275Y-14576864D02*
X14068751Y-14567340D01*
X14068751Y-14567340D02*
X14078275Y-14557816D01*
X14078275Y-14557816D02*
X14078275Y-14576864D01*
X14211608Y-14376864D02*
X14230656Y-14376864D01*
X14230656Y-14376864D02*
X14249704Y-14386388D01*
X14249704Y-14386388D02*
X14259227Y-14395911D01*
X14259227Y-14395911D02*
X14268751Y-14414959D01*
X14268751Y-14414959D02*
X14278275Y-14453054D01*
X14278275Y-14453054D02*
X14278275Y-14500673D01*
X14278275Y-14500673D02*
X14268751Y-14538768D01*
X14268751Y-14538768D02*
X14259227Y-14557816D01*
X14259227Y-14557816D02*
X14249704Y-14567340D01*
X14249704Y-14567340D02*
X14230656Y-14576864D01*
X14230656Y-14576864D02*
X14211608Y-14576864D01*
X14211608Y-14576864D02*
X14192561Y-14567340D01*
X14192561Y-14567340D02*
X14183037Y-14557816D01*
X14183037Y-14557816D02*
X14173513Y-14538768D01*
X14173513Y-14538768D02*
X14163989Y-14500673D01*
X14163989Y-14500673D02*
X14163989Y-14453054D01*
X14163989Y-14453054D02*
X14173513Y-14414959D01*
X14173513Y-14414959D02*
X14183037Y-14395911D01*
X14183037Y-14395911D02*
X14192561Y-14386388D01*
X14192561Y-14386388D02*
X14211608Y-14376864D01*
X14468751Y-14576864D02*
X14354466Y-14576864D01*
X14411608Y-14576864D02*
X14411608Y-14376864D01*
X14411608Y-14376864D02*
X14392561Y-14405435D01*
X14392561Y-14405435D02*
X14373513Y-14424483D01*
X14373513Y-14424483D02*
X14354466Y-14434007D01*
X14649704Y-14376864D02*
X14554466Y-14376864D01*
X14554466Y-14376864D02*
X14544942Y-14472102D01*
X14544942Y-14472102D02*
X14554466Y-14462578D01*
X14554466Y-14462578D02*
X14573513Y-14453054D01*
X14573513Y-14453054D02*
X14621132Y-14453054D01*
X14621132Y-14453054D02*
X14640180Y-14462578D01*
X14640180Y-14462578D02*
X14649704Y-14472102D01*
X14649704Y-14472102D02*
X14659227Y-14491149D01*
X14659227Y-14491149D02*
X14659227Y-14538768D01*
X14659227Y-14538768D02*
X14649704Y-14557816D01*
X14649704Y-14557816D02*
X14640180Y-14567340D01*
X14640180Y-14567340D02*
X14621132Y-14576864D01*
X14621132Y-14576864D02*
X14573513Y-14576864D01*
X14573513Y-14576864D02*
X14554466Y-14567340D01*
X14554466Y-14567340D02*
X14544942Y-14557816D01*
X14725894Y-14376864D02*
X14859227Y-14376864D01*
X14859227Y-14376864D02*
X14773513Y-14576864D01*
X14925894Y-14376864D02*
X14925894Y-14414959D01*
X15002085Y-14376864D02*
X15002085Y-14414959D01*
X15297323Y-14653054D02*
X15287799Y-14643530D01*
X15287799Y-14643530D02*
X15268751Y-14614959D01*
X15268751Y-14614959D02*
X15259228Y-14595911D01*
X15259228Y-14595911D02*
X15249704Y-14567340D01*
X15249704Y-14567340D02*
X15240180Y-14519721D01*
X15240180Y-14519721D02*
X15240180Y-14481626D01*
X15240180Y-14481626D02*
X15249704Y-14434007D01*
X15249704Y-14434007D02*
X15259228Y-14405435D01*
X15259228Y-14405435D02*
X15268751Y-14386388D01*
X15268751Y-14386388D02*
X15287799Y-14357816D01*
X15287799Y-14357816D02*
X15297323Y-14348292D01*
X15478275Y-14576864D02*
X15363989Y-14576864D01*
X15421132Y-14576864D02*
X15421132Y-14376864D01*
X15421132Y-14376864D02*
X15402085Y-14405435D01*
X15402085Y-14405435D02*
X15383037Y-14424483D01*
X15383037Y-14424483D02*
X15363989Y-14434007D01*
X15649704Y-14443530D02*
X15649704Y-14576864D01*
X15602085Y-14367340D02*
X15554466Y-14510197D01*
X15554466Y-14510197D02*
X15678275Y-14510197D01*
X15906847Y-14576864D02*
X15906847Y-14376864D01*
X15992561Y-14576864D02*
X15992561Y-14472102D01*
X15992561Y-14472102D02*
X15983037Y-14453054D01*
X15983037Y-14453054D02*
X15963990Y-14443530D01*
X15963990Y-14443530D02*
X15935418Y-14443530D01*
X15935418Y-14443530D02*
X15916370Y-14453054D01*
X15916370Y-14453054D02*
X15906847Y-14462578D01*
X16116370Y-14576864D02*
X16097323Y-14567340D01*
X16097323Y-14567340D02*
X16087799Y-14557816D01*
X16087799Y-14557816D02*
X16078275Y-14538768D01*
X16078275Y-14538768D02*
X16078275Y-14481626D01*
X16078275Y-14481626D02*
X16087799Y-14462578D01*
X16087799Y-14462578D02*
X16097323Y-14453054D01*
X16097323Y-14453054D02*
X16116370Y-14443530D01*
X16116370Y-14443530D02*
X16144942Y-14443530D01*
X16144942Y-14443530D02*
X16163990Y-14453054D01*
X16163990Y-14453054D02*
X16173513Y-14462578D01*
X16173513Y-14462578D02*
X16183037Y-14481626D01*
X16183037Y-14481626D02*
X16183037Y-14538768D01*
X16183037Y-14538768D02*
X16173513Y-14557816D01*
X16173513Y-14557816D02*
X16163990Y-14567340D01*
X16163990Y-14567340D02*
X16144942Y-14576864D01*
X16144942Y-14576864D02*
X16116370Y-14576864D01*
X16297323Y-14576864D02*
X16278275Y-14567340D01*
X16278275Y-14567340D02*
X16268751Y-14548292D01*
X16268751Y-14548292D02*
X16268751Y-14376864D01*
X16449704Y-14567340D02*
X16430656Y-14576864D01*
X16430656Y-14576864D02*
X16392561Y-14576864D01*
X16392561Y-14576864D02*
X16373513Y-14567340D01*
X16373513Y-14567340D02*
X16363990Y-14548292D01*
X16363990Y-14548292D02*
X16363990Y-14472102D01*
X16363990Y-14472102D02*
X16373513Y-14453054D01*
X16373513Y-14453054D02*
X16392561Y-14443530D01*
X16392561Y-14443530D02*
X16430656Y-14443530D01*
X16430656Y-14443530D02*
X16449704Y-14453054D01*
X16449704Y-14453054D02*
X16459228Y-14472102D01*
X16459228Y-14472102D02*
X16459228Y-14491149D01*
X16459228Y-14491149D02*
X16363990Y-14510197D01*
X16535418Y-14567340D02*
X16554466Y-14576864D01*
X16554466Y-14576864D02*
X16592561Y-14576864D01*
X16592561Y-14576864D02*
X16611609Y-14567340D01*
X16611609Y-14567340D02*
X16621132Y-14548292D01*
X16621132Y-14548292D02*
X16621132Y-14538768D01*
X16621132Y-14538768D02*
X16611609Y-14519721D01*
X16611609Y-14519721D02*
X16592561Y-14510197D01*
X16592561Y-14510197D02*
X16563990Y-14510197D01*
X16563990Y-14510197D02*
X16544942Y-14500673D01*
X16544942Y-14500673D02*
X16535418Y-14481626D01*
X16535418Y-14481626D02*
X16535418Y-14472102D01*
X16535418Y-14472102D02*
X16544942Y-14453054D01*
X16544942Y-14453054D02*
X16563990Y-14443530D01*
X16563990Y-14443530D02*
X16592561Y-14443530D01*
X16592561Y-14443530D02*
X16611609Y-14453054D01*
X16687799Y-14653054D02*
X16697323Y-14643530D01*
X16697323Y-14643530D02*
X16716371Y-14614959D01*
X16716371Y-14614959D02*
X16725894Y-14595911D01*
X16725894Y-14595911D02*
X16735418Y-14567340D01*
X16735418Y-14567340D02*
X16744942Y-14519721D01*
X16744942Y-14519721D02*
X16744942Y-14481626D01*
X16744942Y-14481626D02*
X16735418Y-14434007D01*
X16735418Y-14434007D02*
X16725894Y-14405435D01*
X16725894Y-14405435D02*
X16716371Y-14386388D01*
X16716371Y-14386388D02*
X16697323Y-14357816D01*
X16697323Y-14357816D02*
X16687799Y-14348292D01*
M02*
