%TF.GenerationSoftware,KiCad,Pcbnew,10.0.3*%
%TF.CreationDate,2026-06-19T23:38:08+01:00*%
%TF.ProjectId,MRF-Pro-v8-breakout,4d52462d-5072-46f2-9d76-382d62726561,rev?*%
%TF.SameCoordinates,Original*%
%TF.FileFunction,Copper,L2,Bot*%
%TF.FilePolarity,Positive*%
%FSLAX46Y46*%
G04 Gerber Fmt 4.6, Leading zero omitted, Abs format (unit mm)*
G04 Created by KiCad (PCBNEW 10.0.3) date 2026-06-19 23:38:08*
%MOMM*%
%LPD*%
G01*
G04 APERTURE LIST*
%TA.AperFunction,ViaPad*%
%ADD10C,0.800000*%
%TD*%
%TA.AperFunction,Conductor*%
%ADD11C,0.500000*%
%TD*%
%TA.AperFunction,Conductor*%
%ADD12C,0.250000*%
%TD*%
G04 APERTURE END LIST*
D10*
%TO.N,/3V3_LIDAR*%
X130300000Y-134950000D03*
X126100000Y-134750000D03*
%TO.N,/GND*%
X119925000Y-134600000D03*
X128425000Y-127275000D03*
X131350000Y-129600000D03*
X131600000Y-125500000D03*
X122400000Y-126425000D03*
X135225000Y-134400000D03*
X126875000Y-132125000D03*
X129825000Y-125050000D03*
%TO.N,Net-(J5-Pin_2)*%
X132500000Y-135025000D03*
X124175000Y-126775000D03*
%TO.N,Net-(J5-Pin_3)*%
X123625000Y-125800000D03*
X133725000Y-135150000D03*
%TD*%
%TO.N,/3V3_LIDAR*%
D11*
X126100000Y-134750000D02*
X130100000Y-134750000D01*
X130100000Y-134750000D02*
X130300000Y-134950000D01*
%TO.N,Net-(J5-Pin_2)*%
D12*
X124500000Y-127100000D02*
X124575000Y-127100000D01*
X124575000Y-127100000D02*
X132500000Y-135025000D01*
X124175000Y-126775000D02*
X124500000Y-127100000D01*
%TO.N,Net-(J5-Pin_3)*%
X123625000Y-125800000D02*
X124375000Y-125800000D01*
X124375000Y-125800000D02*
X133725000Y-135150000D01*
%TD*%
%TA.AperFunction,Conductor*%
%TO.N,/GND*%
G36*
X138270939Y-122905385D02*
G01*
X138316694Y-122958189D01*
X138327900Y-123009700D01*
X138327900Y-138229300D01*
X138308215Y-138296339D01*
X138255411Y-138342094D01*
X138203900Y-138353300D01*
X117447100Y-138353300D01*
X117380061Y-138333615D01*
X117334306Y-138280811D01*
X117323100Y-138229300D01*
X117323100Y-125711304D01*
X122724500Y-125711304D01*
X122724500Y-125888695D01*
X122759103Y-126062658D01*
X122759106Y-126062667D01*
X122826983Y-126226540D01*
X122826990Y-126226553D01*
X122925535Y-126374034D01*
X122925538Y-126374038D01*
X123050961Y-126499461D01*
X123050965Y-126499464D01*
X123198449Y-126598011D01*
X123203819Y-126600881D01*
X123203200Y-126602038D01*
X123252348Y-126641635D01*
X123274420Y-126707926D01*
X123274500Y-126712366D01*
X123274500Y-126863695D01*
X123309103Y-127037658D01*
X123309106Y-127037667D01*
X123376983Y-127201540D01*
X123376990Y-127201553D01*
X123475535Y-127349034D01*
X123475538Y-127349038D01*
X123600961Y-127474461D01*
X123600965Y-127474464D01*
X123748446Y-127573009D01*
X123748459Y-127573016D01*
X123871363Y-127623923D01*
X123912334Y-127640894D01*
X123912336Y-127640894D01*
X123912341Y-127640896D01*
X124086304Y-127675499D01*
X124086307Y-127675500D01*
X124086309Y-127675500D01*
X124214548Y-127675500D01*
X124281587Y-127695185D01*
X124302229Y-127711819D01*
X130404155Y-133813746D01*
X130437640Y-133875069D01*
X130432656Y-133944761D01*
X130390784Y-134000694D01*
X130325320Y-134025111D01*
X130292282Y-134023044D01*
X130173920Y-133999500D01*
X130173918Y-133999500D01*
X126635270Y-133999500D01*
X126568231Y-133979815D01*
X126566378Y-133978601D01*
X126526552Y-133951989D01*
X126526547Y-133951987D01*
X126362667Y-133884106D01*
X126362658Y-133884103D01*
X126188694Y-133849500D01*
X126188691Y-133849500D01*
X126011309Y-133849500D01*
X126011306Y-133849500D01*
X125837341Y-133884103D01*
X125837332Y-133884106D01*
X125673459Y-133951983D01*
X125673446Y-133951990D01*
X125525965Y-134050535D01*
X125525961Y-134050538D01*
X125400538Y-134175961D01*
X125400535Y-134175965D01*
X125301990Y-134323446D01*
X125301983Y-134323459D01*
X125234106Y-134487332D01*
X125234103Y-134487341D01*
X125199500Y-134661304D01*
X125199500Y-134838695D01*
X125234103Y-135012658D01*
X125234106Y-135012667D01*
X125301983Y-135176540D01*
X125301990Y-135176553D01*
X125400535Y-135324034D01*
X125400538Y-135324038D01*
X125525961Y-135449461D01*
X125525965Y-135449464D01*
X125673446Y-135548009D01*
X125673459Y-135548016D01*
X125742355Y-135576553D01*
X125837334Y-135615894D01*
X125837336Y-135615894D01*
X125837341Y-135615896D01*
X126011304Y-135650499D01*
X126011307Y-135650500D01*
X126011309Y-135650500D01*
X126188693Y-135650500D01*
X126188694Y-135650499D01*
X126246682Y-135638964D01*
X126362658Y-135615896D01*
X126362661Y-135615894D01*
X126362666Y-135615894D01*
X126526547Y-135548013D01*
X126526550Y-135548010D01*
X126526552Y-135548010D01*
X126566378Y-135521399D01*
X126633055Y-135500520D01*
X126635270Y-135500500D01*
X129525639Y-135500500D01*
X129592678Y-135520185D01*
X129613315Y-135536814D01*
X129675535Y-135599034D01*
X129725966Y-135649465D01*
X129873446Y-135748009D01*
X129873459Y-135748016D01*
X129949173Y-135779377D01*
X130037334Y-135815894D01*
X130037336Y-135815894D01*
X130037341Y-135815896D01*
X130211304Y-135850499D01*
X130211307Y-135850500D01*
X130211309Y-135850500D01*
X130388693Y-135850500D01*
X130388694Y-135850499D01*
X130446682Y-135838964D01*
X130562658Y-135815896D01*
X130562661Y-135815894D01*
X130562666Y-135815894D01*
X130726547Y-135748013D01*
X130874035Y-135649464D01*
X130999464Y-135524035D01*
X131098013Y-135376547D01*
X131165894Y-135212666D01*
X131173078Y-135176553D01*
X131196001Y-135061309D01*
X131200500Y-135038691D01*
X131200500Y-134909452D01*
X131206738Y-134888206D01*
X131208318Y-134866118D01*
X131216390Y-134855334D01*
X131220185Y-134842413D01*
X131236918Y-134827913D01*
X131250190Y-134810185D01*
X131262810Y-134805477D01*
X131272989Y-134796658D01*
X131294906Y-134793506D01*
X131315654Y-134785768D01*
X131328814Y-134788630D01*
X131342147Y-134786714D01*
X131362290Y-134795913D01*
X131383927Y-134800620D01*
X131401652Y-134813888D01*
X131405703Y-134815739D01*
X131412181Y-134821771D01*
X131563181Y-134972771D01*
X131596666Y-135034094D01*
X131599500Y-135060452D01*
X131599500Y-135113695D01*
X131634103Y-135287658D01*
X131634106Y-135287667D01*
X131701983Y-135451540D01*
X131701990Y-135451553D01*
X131800535Y-135599034D01*
X131800538Y-135599038D01*
X131925961Y-135724461D01*
X131925965Y-135724464D01*
X132073446Y-135823009D01*
X132073459Y-135823016D01*
X132139813Y-135850500D01*
X132237334Y-135890894D01*
X132237336Y-135890894D01*
X132237341Y-135890896D01*
X132411304Y-135925499D01*
X132411307Y-135925500D01*
X132411309Y-135925500D01*
X132588693Y-135925500D01*
X132588694Y-135925499D01*
X132646682Y-135913964D01*
X132762658Y-135890896D01*
X132762661Y-135890894D01*
X132762666Y-135890894D01*
X132926547Y-135823013D01*
X132960605Y-135800255D01*
X133027281Y-135779377D01*
X133094661Y-135797861D01*
X133117178Y-135815677D01*
X133150961Y-135849461D01*
X133150965Y-135849464D01*
X133298446Y-135948009D01*
X133298459Y-135948016D01*
X133421363Y-135998923D01*
X133462334Y-136015894D01*
X133462336Y-136015894D01*
X133462341Y-136015896D01*
X133636304Y-136050499D01*
X133636307Y-136050500D01*
X133636309Y-136050500D01*
X133813693Y-136050500D01*
X133813694Y-136050499D01*
X133871682Y-136038964D01*
X133987658Y-136015896D01*
X133987661Y-136015894D01*
X133987666Y-136015894D01*
X134151547Y-135948013D01*
X134299035Y-135849464D01*
X134424464Y-135724035D01*
X134523013Y-135576547D01*
X134590894Y-135412666D01*
X134598078Y-135376553D01*
X134625499Y-135238695D01*
X134625500Y-135238693D01*
X134625500Y-135061306D01*
X134625499Y-135061304D01*
X134590896Y-134887341D01*
X134590893Y-134887332D01*
X134523016Y-134723459D01*
X134523009Y-134723446D01*
X134424464Y-134575965D01*
X134424461Y-134575961D01*
X134299038Y-134450538D01*
X134299034Y-134450535D01*
X134151553Y-134351990D01*
X134151540Y-134351983D01*
X133987667Y-134284106D01*
X133987658Y-134284103D01*
X133813694Y-134249500D01*
X133813691Y-134249500D01*
X133760452Y-134249500D01*
X133693413Y-134229815D01*
X133672771Y-134213181D01*
X124865198Y-125405608D01*
X124865178Y-125405586D01*
X124828305Y-125368713D01*
X134374500Y-125368713D01*
X134374500Y-125581286D01*
X134395093Y-125711309D01*
X134407754Y-125791243D01*
X134439418Y-125888695D01*
X134473444Y-125993414D01*
X134569951Y-126182820D01*
X134694890Y-126354786D01*
X134845213Y-126505109D01*
X135017179Y-126630048D01*
X135017181Y-126630049D01*
X135017184Y-126630051D01*
X135206588Y-126726557D01*
X135408757Y-126792246D01*
X135618713Y-126825500D01*
X135618714Y-126825500D01*
X135831286Y-126825500D01*
X135831287Y-126825500D01*
X136041243Y-126792246D01*
X136243412Y-126726557D01*
X136432816Y-126630051D01*
X136476916Y-126598011D01*
X136604786Y-126505109D01*
X136604788Y-126505106D01*
X136604792Y-126505104D01*
X136755104Y-126354792D01*
X136755106Y-126354788D01*
X136755109Y-126354786D01*
X136880048Y-126182820D01*
X136880047Y-126182820D01*
X136880051Y-126182816D01*
X136976557Y-125993412D01*
X137042246Y-125791243D01*
X137075500Y-125581287D01*
X137075500Y-125368713D01*
X137042246Y-125158757D01*
X136976557Y-124956588D01*
X136880051Y-124767184D01*
X136880049Y-124767181D01*
X136880048Y-124767179D01*
X136755109Y-124595213D01*
X136604786Y-124444890D01*
X136432820Y-124319951D01*
X136243414Y-124223444D01*
X136243413Y-124223443D01*
X136243412Y-124223443D01*
X136041243Y-124157754D01*
X136041241Y-124157753D01*
X136041240Y-124157753D01*
X135879957Y-124132208D01*
X135831287Y-124124500D01*
X135618713Y-124124500D01*
X135570042Y-124132208D01*
X135408760Y-124157753D01*
X135206585Y-124223444D01*
X135017179Y-124319951D01*
X134845213Y-124444890D01*
X134694890Y-124595213D01*
X134569951Y-124767179D01*
X134473444Y-124956585D01*
X134407753Y-125158760D01*
X134374500Y-125368713D01*
X124828305Y-125368713D01*
X124773733Y-125314141D01*
X124728325Y-125283801D01*
X124728324Y-125283800D01*
X124722509Y-125279915D01*
X124671286Y-125245688D01*
X124590792Y-125212347D01*
X124575457Y-125205995D01*
X124557453Y-125198537D01*
X124547427Y-125196543D01*
X124497029Y-125186518D01*
X124436610Y-125174500D01*
X124436607Y-125174500D01*
X124436606Y-125174500D01*
X124324361Y-125174500D01*
X124257322Y-125154815D01*
X124236679Y-125138180D01*
X124199038Y-125100538D01*
X124199034Y-125100535D01*
X124051553Y-125001990D01*
X124051540Y-125001983D01*
X123887667Y-124934106D01*
X123887658Y-124934103D01*
X123713694Y-124899500D01*
X123713691Y-124899500D01*
X123536309Y-124899500D01*
X123536306Y-124899500D01*
X123362341Y-124934103D01*
X123362332Y-124934106D01*
X123198459Y-125001983D01*
X123198446Y-125001990D01*
X123050965Y-125100535D01*
X123050961Y-125100538D01*
X122925538Y-125225961D01*
X122925535Y-125225965D01*
X122826990Y-125373446D01*
X122826983Y-125373459D01*
X122759106Y-125537332D01*
X122759103Y-125537341D01*
X122724500Y-125711304D01*
X117323100Y-125711304D01*
X117323100Y-123009700D01*
X117342785Y-122942661D01*
X117395589Y-122896906D01*
X117447100Y-122885700D01*
X138203900Y-122885700D01*
X138270939Y-122905385D01*
G37*
%TD.AperFunction*%
%TD*%
M02*
