%TF.GenerationSoftware,KiCad,Pcbnew,10.0.3*%
%TF.CreationDate,2026-06-20T10:16:10+01:00*%
%TF.ProjectId,MRF-Pro-v8-breakout,4d52462d-5072-46f2-9d76-382d62726561,rev?*%
%TF.SameCoordinates,Original*%
%TF.FileFunction,Legend,Bot*%
%TF.FilePolarity,Positive*%
%FSLAX46Y46*%
G04 Gerber Fmt 4.6, Leading zero omitted, Abs format (unit mm)*
G04 Created by KiCad (PCBNEW 10.0.3) date 2026-06-20 10:16:10*
%MOMM*%
%LPD*%
G01*
G04 APERTURE LIST*
%ADD10C,0.080000*%
%ADD11C,0.250000*%
G04 APERTURE END LIST*
D10*
X119943543Y-132258583D02*
X119919733Y-132210964D01*
X119919733Y-132210964D02*
X119919733Y-132139535D01*
X119919733Y-132139535D02*
X119943543Y-132068107D01*
X119943543Y-132068107D02*
X119991162Y-132020488D01*
X119991162Y-132020488D02*
X120038781Y-131996678D01*
X120038781Y-131996678D02*
X120134019Y-131972869D01*
X120134019Y-131972869D02*
X120205447Y-131972869D01*
X120205447Y-131972869D02*
X120300685Y-131996678D01*
X120300685Y-131996678D02*
X120348304Y-132020488D01*
X120348304Y-132020488D02*
X120395924Y-132068107D01*
X120395924Y-132068107D02*
X120419733Y-132139535D01*
X120419733Y-132139535D02*
X120419733Y-132187154D01*
X120419733Y-132187154D02*
X120395924Y-132258583D01*
X120395924Y-132258583D02*
X120372114Y-132282392D01*
X120372114Y-132282392D02*
X120205447Y-132282392D01*
X120205447Y-132282392D02*
X120205447Y-132187154D01*
X120419733Y-132496678D02*
X119919733Y-132496678D01*
X119919733Y-132496678D02*
X120419733Y-132782392D01*
X120419733Y-132782392D02*
X119919733Y-132782392D01*
X120419733Y-133020488D02*
X119919733Y-133020488D01*
X119919733Y-133020488D02*
X119919733Y-133139536D01*
X119919733Y-133139536D02*
X119943543Y-133210964D01*
X119943543Y-133210964D02*
X119991162Y-133258583D01*
X119991162Y-133258583D02*
X120038781Y-133282393D01*
X120038781Y-133282393D02*
X120134019Y-133306202D01*
X120134019Y-133306202D02*
X120205447Y-133306202D01*
X120205447Y-133306202D02*
X120300685Y-133282393D01*
X120300685Y-133282393D02*
X120348304Y-133258583D01*
X120348304Y-133258583D02*
X120395924Y-133210964D01*
X120395924Y-133210964D02*
X120419733Y-133139536D01*
X120419733Y-133139536D02*
X120419733Y-133020488D01*
X120724705Y-131949059D02*
X120724705Y-132258583D01*
X120724705Y-132258583D02*
X120915181Y-132091916D01*
X120915181Y-132091916D02*
X120915181Y-132163345D01*
X120915181Y-132163345D02*
X120938991Y-132210964D01*
X120938991Y-132210964D02*
X120962800Y-132234773D01*
X120962800Y-132234773D02*
X121010419Y-132258583D01*
X121010419Y-132258583D02*
X121129467Y-132258583D01*
X121129467Y-132258583D02*
X121177086Y-132234773D01*
X121177086Y-132234773D02*
X121200896Y-132210964D01*
X121200896Y-132210964D02*
X121224705Y-132163345D01*
X121224705Y-132163345D02*
X121224705Y-132020488D01*
X121224705Y-132020488D02*
X121200896Y-131972869D01*
X121200896Y-131972869D02*
X121177086Y-131949059D01*
X121177086Y-132472868D02*
X121200896Y-132496678D01*
X121200896Y-132496678D02*
X121224705Y-132472868D01*
X121224705Y-132472868D02*
X121200896Y-132449059D01*
X121200896Y-132449059D02*
X121177086Y-132472868D01*
X121177086Y-132472868D02*
X121224705Y-132472868D01*
X120724705Y-132663344D02*
X120724705Y-132972868D01*
X120724705Y-132972868D02*
X120915181Y-132806201D01*
X120915181Y-132806201D02*
X120915181Y-132877630D01*
X120915181Y-132877630D02*
X120938991Y-132925249D01*
X120938991Y-132925249D02*
X120962800Y-132949058D01*
X120962800Y-132949058D02*
X121010419Y-132972868D01*
X121010419Y-132972868D02*
X121129467Y-132972868D01*
X121129467Y-132972868D02*
X121177086Y-132949058D01*
X121177086Y-132949058D02*
X121200896Y-132925249D01*
X121200896Y-132925249D02*
X121224705Y-132877630D01*
X121224705Y-132877630D02*
X121224705Y-132734773D01*
X121224705Y-132734773D02*
X121200896Y-132687154D01*
X121200896Y-132687154D02*
X121177086Y-132663344D01*
X120724705Y-133115725D02*
X121224705Y-133282391D01*
X121224705Y-133282391D02*
X120724705Y-133449058D01*
X122005868Y-131972869D02*
X122029677Y-132044297D01*
X122029677Y-132044297D02*
X122029677Y-132163345D01*
X122029677Y-132163345D02*
X122005868Y-132210964D01*
X122005868Y-132210964D02*
X121982058Y-132234773D01*
X121982058Y-132234773D02*
X121934439Y-132258583D01*
X121934439Y-132258583D02*
X121886820Y-132258583D01*
X121886820Y-132258583D02*
X121839201Y-132234773D01*
X121839201Y-132234773D02*
X121815391Y-132210964D01*
X121815391Y-132210964D02*
X121791582Y-132163345D01*
X121791582Y-132163345D02*
X121767772Y-132068107D01*
X121767772Y-132068107D02*
X121743963Y-132020488D01*
X121743963Y-132020488D02*
X121720153Y-131996678D01*
X121720153Y-131996678D02*
X121672534Y-131972869D01*
X121672534Y-131972869D02*
X121624915Y-131972869D01*
X121624915Y-131972869D02*
X121577296Y-131996678D01*
X121577296Y-131996678D02*
X121553487Y-132020488D01*
X121553487Y-132020488D02*
X121529677Y-132068107D01*
X121529677Y-132068107D02*
X121529677Y-132187154D01*
X121529677Y-132187154D02*
X121553487Y-132258583D01*
X122029677Y-132472868D02*
X121529677Y-132472868D01*
X121529677Y-132472868D02*
X121529677Y-132591916D01*
X121529677Y-132591916D02*
X121553487Y-132663344D01*
X121553487Y-132663344D02*
X121601106Y-132710963D01*
X121601106Y-132710963D02*
X121648725Y-132734773D01*
X121648725Y-132734773D02*
X121743963Y-132758582D01*
X121743963Y-132758582D02*
X121815391Y-132758582D01*
X121815391Y-132758582D02*
X121910629Y-132734773D01*
X121910629Y-132734773D02*
X121958248Y-132710963D01*
X121958248Y-132710963D02*
X122005868Y-132663344D01*
X122005868Y-132663344D02*
X122029677Y-132591916D01*
X122029677Y-132591916D02*
X122029677Y-132472868D01*
X121886820Y-132949059D02*
X121886820Y-133187154D01*
X122029677Y-132901440D02*
X121529677Y-133068106D01*
X121529677Y-133068106D02*
X122029677Y-133234773D01*
X122810840Y-131972869D02*
X122834649Y-132044297D01*
X122834649Y-132044297D02*
X122834649Y-132163345D01*
X122834649Y-132163345D02*
X122810840Y-132210964D01*
X122810840Y-132210964D02*
X122787030Y-132234773D01*
X122787030Y-132234773D02*
X122739411Y-132258583D01*
X122739411Y-132258583D02*
X122691792Y-132258583D01*
X122691792Y-132258583D02*
X122644173Y-132234773D01*
X122644173Y-132234773D02*
X122620363Y-132210964D01*
X122620363Y-132210964D02*
X122596554Y-132163345D01*
X122596554Y-132163345D02*
X122572744Y-132068107D01*
X122572744Y-132068107D02*
X122548935Y-132020488D01*
X122548935Y-132020488D02*
X122525125Y-131996678D01*
X122525125Y-131996678D02*
X122477506Y-131972869D01*
X122477506Y-131972869D02*
X122429887Y-131972869D01*
X122429887Y-131972869D02*
X122382268Y-131996678D01*
X122382268Y-131996678D02*
X122358459Y-132020488D01*
X122358459Y-132020488D02*
X122334649Y-132068107D01*
X122334649Y-132068107D02*
X122334649Y-132187154D01*
X122334649Y-132187154D02*
X122358459Y-132258583D01*
X122787030Y-132758582D02*
X122810840Y-132734773D01*
X122810840Y-132734773D02*
X122834649Y-132663344D01*
X122834649Y-132663344D02*
X122834649Y-132615725D01*
X122834649Y-132615725D02*
X122810840Y-132544297D01*
X122810840Y-132544297D02*
X122763220Y-132496678D01*
X122763220Y-132496678D02*
X122715601Y-132472868D01*
X122715601Y-132472868D02*
X122620363Y-132449059D01*
X122620363Y-132449059D02*
X122548935Y-132449059D01*
X122548935Y-132449059D02*
X122453697Y-132472868D01*
X122453697Y-132472868D02*
X122406078Y-132496678D01*
X122406078Y-132496678D02*
X122358459Y-132544297D01*
X122358459Y-132544297D02*
X122334649Y-132615725D01*
X122334649Y-132615725D02*
X122334649Y-132663344D01*
X122334649Y-132663344D02*
X122358459Y-132734773D01*
X122358459Y-132734773D02*
X122382268Y-132758582D01*
X122834649Y-133210963D02*
X122834649Y-132972868D01*
X122834649Y-132972868D02*
X122334649Y-132972868D01*
X131009789Y-132299059D02*
X131009789Y-132608583D01*
X131009789Y-132608583D02*
X131200265Y-132441916D01*
X131200265Y-132441916D02*
X131200265Y-132513345D01*
X131200265Y-132513345D02*
X131224075Y-132560964D01*
X131224075Y-132560964D02*
X131247884Y-132584773D01*
X131247884Y-132584773D02*
X131295503Y-132608583D01*
X131295503Y-132608583D02*
X131414551Y-132608583D01*
X131414551Y-132608583D02*
X131462170Y-132584773D01*
X131462170Y-132584773D02*
X131485980Y-132560964D01*
X131485980Y-132560964D02*
X131509789Y-132513345D01*
X131509789Y-132513345D02*
X131509789Y-132370488D01*
X131509789Y-132370488D02*
X131485980Y-132322869D01*
X131485980Y-132322869D02*
X131462170Y-132299059D01*
X131462170Y-132822868D02*
X131485980Y-132846678D01*
X131485980Y-132846678D02*
X131509789Y-132822868D01*
X131509789Y-132822868D02*
X131485980Y-132799059D01*
X131485980Y-132799059D02*
X131462170Y-132822868D01*
X131462170Y-132822868D02*
X131509789Y-132822868D01*
X131009789Y-133013344D02*
X131009789Y-133322868D01*
X131009789Y-133322868D02*
X131200265Y-133156201D01*
X131200265Y-133156201D02*
X131200265Y-133227630D01*
X131200265Y-133227630D02*
X131224075Y-133275249D01*
X131224075Y-133275249D02*
X131247884Y-133299058D01*
X131247884Y-133299058D02*
X131295503Y-133322868D01*
X131295503Y-133322868D02*
X131414551Y-133322868D01*
X131414551Y-133322868D02*
X131462170Y-133299058D01*
X131462170Y-133299058D02*
X131485980Y-133275249D01*
X131485980Y-133275249D02*
X131509789Y-133227630D01*
X131509789Y-133227630D02*
X131509789Y-133084773D01*
X131509789Y-133084773D02*
X131485980Y-133037154D01*
X131485980Y-133037154D02*
X131462170Y-133013344D01*
X131009789Y-133465725D02*
X131509789Y-133632391D01*
X131509789Y-133632391D02*
X131009789Y-133799058D01*
X131509789Y-134584771D02*
X131509789Y-134346676D01*
X131509789Y-134346676D02*
X131009789Y-134346676D01*
X131366932Y-134727629D02*
X131366932Y-134965724D01*
X131509789Y-134680010D02*
X131009789Y-134846676D01*
X131009789Y-134846676D02*
X131509789Y-135013343D01*
X131485980Y-135156200D02*
X131509789Y-135227628D01*
X131509789Y-135227628D02*
X131509789Y-135346676D01*
X131509789Y-135346676D02*
X131485980Y-135394295D01*
X131485980Y-135394295D02*
X131462170Y-135418104D01*
X131462170Y-135418104D02*
X131414551Y-135441914D01*
X131414551Y-135441914D02*
X131366932Y-135441914D01*
X131366932Y-135441914D02*
X131319313Y-135418104D01*
X131319313Y-135418104D02*
X131295503Y-135394295D01*
X131295503Y-135394295D02*
X131271694Y-135346676D01*
X131271694Y-135346676D02*
X131247884Y-135251438D01*
X131247884Y-135251438D02*
X131224075Y-135203819D01*
X131224075Y-135203819D02*
X131200265Y-135180009D01*
X131200265Y-135180009D02*
X131152646Y-135156200D01*
X131152646Y-135156200D02*
X131105027Y-135156200D01*
X131105027Y-135156200D02*
X131057408Y-135180009D01*
X131057408Y-135180009D02*
X131033599Y-135203819D01*
X131033599Y-135203819D02*
X131009789Y-135251438D01*
X131009789Y-135251438D02*
X131009789Y-135370485D01*
X131009789Y-135370485D02*
X131033599Y-135441914D01*
X131247884Y-135656199D02*
X131247884Y-135822866D01*
X131509789Y-135894294D02*
X131509789Y-135656199D01*
X131509789Y-135656199D02*
X131009789Y-135656199D01*
X131009789Y-135656199D02*
X131009789Y-135894294D01*
X131509789Y-136394294D02*
X131271694Y-136227628D01*
X131509789Y-136108580D02*
X131009789Y-136108580D01*
X131009789Y-136108580D02*
X131009789Y-136299056D01*
X131009789Y-136299056D02*
X131033599Y-136346675D01*
X131033599Y-136346675D02*
X131057408Y-136370485D01*
X131057408Y-136370485D02*
X131105027Y-136394294D01*
X131105027Y-136394294D02*
X131176456Y-136394294D01*
X131176456Y-136394294D02*
X131224075Y-136370485D01*
X131224075Y-136370485D02*
X131247884Y-136346675D01*
X131247884Y-136346675D02*
X131271694Y-136299056D01*
X131271694Y-136299056D02*
X131271694Y-136108580D01*
X131814761Y-132299059D02*
X131814761Y-132608583D01*
X131814761Y-132608583D02*
X132005237Y-132441916D01*
X132005237Y-132441916D02*
X132005237Y-132513345D01*
X132005237Y-132513345D02*
X132029047Y-132560964D01*
X132029047Y-132560964D02*
X132052856Y-132584773D01*
X132052856Y-132584773D02*
X132100475Y-132608583D01*
X132100475Y-132608583D02*
X132219523Y-132608583D01*
X132219523Y-132608583D02*
X132267142Y-132584773D01*
X132267142Y-132584773D02*
X132290952Y-132560964D01*
X132290952Y-132560964D02*
X132314761Y-132513345D01*
X132314761Y-132513345D02*
X132314761Y-132370488D01*
X132314761Y-132370488D02*
X132290952Y-132322869D01*
X132290952Y-132322869D02*
X132267142Y-132299059D01*
X132267142Y-132822868D02*
X132290952Y-132846678D01*
X132290952Y-132846678D02*
X132314761Y-132822868D01*
X132314761Y-132822868D02*
X132290952Y-132799059D01*
X132290952Y-132799059D02*
X132267142Y-132822868D01*
X132267142Y-132822868D02*
X132314761Y-132822868D01*
X131814761Y-133013344D02*
X131814761Y-133322868D01*
X131814761Y-133322868D02*
X132005237Y-133156201D01*
X132005237Y-133156201D02*
X132005237Y-133227630D01*
X132005237Y-133227630D02*
X132029047Y-133275249D01*
X132029047Y-133275249D02*
X132052856Y-133299058D01*
X132052856Y-133299058D02*
X132100475Y-133322868D01*
X132100475Y-133322868D02*
X132219523Y-133322868D01*
X132219523Y-133322868D02*
X132267142Y-133299058D01*
X132267142Y-133299058D02*
X132290952Y-133275249D01*
X132290952Y-133275249D02*
X132314761Y-133227630D01*
X132314761Y-133227630D02*
X132314761Y-133084773D01*
X132314761Y-133084773D02*
X132290952Y-133037154D01*
X132290952Y-133037154D02*
X132267142Y-133013344D01*
X131981428Y-133489534D02*
X132314761Y-133608582D01*
X132314761Y-133608582D02*
X131981428Y-133727629D01*
X132314761Y-134537152D02*
X132314761Y-134299057D01*
X132314761Y-134299057D02*
X131814761Y-134299057D01*
X132314761Y-134703819D02*
X131814761Y-134703819D01*
X132314761Y-134941914D02*
X131814761Y-134941914D01*
X131814761Y-134941914D02*
X131814761Y-135060962D01*
X131814761Y-135060962D02*
X131838571Y-135132390D01*
X131838571Y-135132390D02*
X131886190Y-135180009D01*
X131886190Y-135180009D02*
X131933809Y-135203819D01*
X131933809Y-135203819D02*
X132029047Y-135227628D01*
X132029047Y-135227628D02*
X132100475Y-135227628D01*
X132100475Y-135227628D02*
X132195713Y-135203819D01*
X132195713Y-135203819D02*
X132243332Y-135180009D01*
X132243332Y-135180009D02*
X132290952Y-135132390D01*
X132290952Y-135132390D02*
X132314761Y-135060962D01*
X132314761Y-135060962D02*
X132314761Y-134941914D01*
X132171904Y-135418105D02*
X132171904Y-135656200D01*
X132314761Y-135370486D02*
X131814761Y-135537152D01*
X131814761Y-135537152D02*
X132314761Y-135703819D01*
X132314761Y-136156199D02*
X132076666Y-135989533D01*
X132314761Y-135870485D02*
X131814761Y-135870485D01*
X131814761Y-135870485D02*
X131814761Y-136060961D01*
X131814761Y-136060961D02*
X131838571Y-136108580D01*
X131838571Y-136108580D02*
X131862380Y-136132390D01*
X131862380Y-136132390D02*
X131909999Y-136156199D01*
X131909999Y-136156199D02*
X131981428Y-136156199D01*
X131981428Y-136156199D02*
X132029047Y-136132390D01*
X132029047Y-136132390D02*
X132052856Y-136108580D01*
X132052856Y-136108580D02*
X132076666Y-136060961D01*
X132076666Y-136060961D02*
X132076666Y-135870485D01*
X133119733Y-132632392D02*
X132881638Y-132465726D01*
X133119733Y-132346678D02*
X132619733Y-132346678D01*
X132619733Y-132346678D02*
X132619733Y-132537154D01*
X132619733Y-132537154D02*
X132643543Y-132584773D01*
X132643543Y-132584773D02*
X132667352Y-132608583D01*
X132667352Y-132608583D02*
X132714971Y-132632392D01*
X132714971Y-132632392D02*
X132786400Y-132632392D01*
X132786400Y-132632392D02*
X132834019Y-132608583D01*
X132834019Y-132608583D02*
X132857828Y-132584773D01*
X132857828Y-132584773D02*
X132881638Y-132537154D01*
X132881638Y-132537154D02*
X132881638Y-132346678D01*
X132619733Y-132799059D02*
X133119733Y-133132392D01*
X132619733Y-133132392D02*
X133119733Y-132799059D01*
X133424705Y-132275250D02*
X133424705Y-132560964D01*
X133924705Y-132418107D02*
X133424705Y-132418107D01*
X133424705Y-132680011D02*
X133924705Y-133013344D01*
X133424705Y-133013344D02*
X133924705Y-132680011D01*
X134253487Y-132608583D02*
X134229677Y-132560964D01*
X134229677Y-132560964D02*
X134229677Y-132489535D01*
X134229677Y-132489535D02*
X134253487Y-132418107D01*
X134253487Y-132418107D02*
X134301106Y-132370488D01*
X134301106Y-132370488D02*
X134348725Y-132346678D01*
X134348725Y-132346678D02*
X134443963Y-132322869D01*
X134443963Y-132322869D02*
X134515391Y-132322869D01*
X134515391Y-132322869D02*
X134610629Y-132346678D01*
X134610629Y-132346678D02*
X134658248Y-132370488D01*
X134658248Y-132370488D02*
X134705868Y-132418107D01*
X134705868Y-132418107D02*
X134729677Y-132489535D01*
X134729677Y-132489535D02*
X134729677Y-132537154D01*
X134729677Y-132537154D02*
X134705868Y-132608583D01*
X134705868Y-132608583D02*
X134682058Y-132632392D01*
X134682058Y-132632392D02*
X134515391Y-132632392D01*
X134515391Y-132632392D02*
X134515391Y-132537154D01*
X134729677Y-132846678D02*
X134229677Y-132846678D01*
X134229677Y-132846678D02*
X134729677Y-133132392D01*
X134729677Y-133132392D02*
X134229677Y-133132392D01*
X134729677Y-133370488D02*
X134229677Y-133370488D01*
X134229677Y-133370488D02*
X134229677Y-133489536D01*
X134229677Y-133489536D02*
X134253487Y-133560964D01*
X134253487Y-133560964D02*
X134301106Y-133608583D01*
X134301106Y-133608583D02*
X134348725Y-133632393D01*
X134348725Y-133632393D02*
X134443963Y-133656202D01*
X134443963Y-133656202D02*
X134515391Y-133656202D01*
X134515391Y-133656202D02*
X134610629Y-133632393D01*
X134610629Y-133632393D02*
X134658248Y-133608583D01*
X134658248Y-133608583D02*
X134705868Y-133560964D01*
X134705868Y-133560964D02*
X134729677Y-133489536D01*
X134729677Y-133489536D02*
X134729677Y-133370488D01*
X135058459Y-132608583D02*
X135034649Y-132560964D01*
X135034649Y-132560964D02*
X135034649Y-132489535D01*
X135034649Y-132489535D02*
X135058459Y-132418107D01*
X135058459Y-132418107D02*
X135106078Y-132370488D01*
X135106078Y-132370488D02*
X135153697Y-132346678D01*
X135153697Y-132346678D02*
X135248935Y-132322869D01*
X135248935Y-132322869D02*
X135320363Y-132322869D01*
X135320363Y-132322869D02*
X135415601Y-132346678D01*
X135415601Y-132346678D02*
X135463220Y-132370488D01*
X135463220Y-132370488D02*
X135510840Y-132418107D01*
X135510840Y-132418107D02*
X135534649Y-132489535D01*
X135534649Y-132489535D02*
X135534649Y-132537154D01*
X135534649Y-132537154D02*
X135510840Y-132608583D01*
X135510840Y-132608583D02*
X135487030Y-132632392D01*
X135487030Y-132632392D02*
X135320363Y-132632392D01*
X135320363Y-132632392D02*
X135320363Y-132537154D01*
X135534649Y-132846678D02*
X135034649Y-132846678D01*
X135034649Y-132846678D02*
X135534649Y-133132392D01*
X135534649Y-133132392D02*
X135034649Y-133132392D01*
X135534649Y-133370488D02*
X135034649Y-133370488D01*
X135034649Y-133370488D02*
X135034649Y-133489536D01*
X135034649Y-133489536D02*
X135058459Y-133560964D01*
X135058459Y-133560964D02*
X135106078Y-133608583D01*
X135106078Y-133608583D02*
X135153697Y-133632393D01*
X135153697Y-133632393D02*
X135248935Y-133656202D01*
X135248935Y-133656202D02*
X135320363Y-133656202D01*
X135320363Y-133656202D02*
X135415601Y-133632393D01*
X135415601Y-133632393D02*
X135463220Y-133608583D01*
X135463220Y-133608583D02*
X135510840Y-133560964D01*
X135510840Y-133560964D02*
X135534649Y-133489536D01*
X135534649Y-133489536D02*
X135534649Y-133370488D01*
D11*
G36*
X137583565Y-131655000D02*
G01*
X137583565Y-130658489D01*
X137447705Y-130658489D01*
X137263302Y-131186114D01*
X137260493Y-131186114D01*
X137077372Y-130658489D01*
X136938764Y-130658489D01*
X136938764Y-131655000D01*
X137081585Y-131655000D01*
X137081585Y-131048972D01*
X137084394Y-131048972D01*
X137226666Y-131477252D01*
X137298473Y-131477252D01*
X137440744Y-131048972D01*
X137440744Y-131655000D01*
X137583565Y-131655000D01*
G37*
G36*
X136805896Y-131655000D02*
G01*
X136663075Y-131655000D01*
X136663075Y-131229040D01*
X136578079Y-131229040D01*
X136445638Y-131655000D01*
X136294452Y-131655000D01*
X136448447Y-131199853D01*
X136406210Y-131171114D01*
X136374719Y-131138125D01*
X136352520Y-131100507D01*
X136337903Y-131058599D01*
X136328557Y-131009137D01*
X136325226Y-130950786D01*
X136325457Y-130947672D01*
X136468047Y-130947672D01*
X136472199Y-131014534D01*
X136478358Y-131041912D01*
X136487526Y-131063138D01*
X136502372Y-131080428D01*
X136522391Y-131093424D01*
X136546852Y-131101044D01*
X136582292Y-131103988D01*
X136663075Y-131103988D01*
X136663075Y-130791357D01*
X136589253Y-130791357D01*
X136541807Y-130796561D01*
X136509838Y-130810137D01*
X136488930Y-130830741D01*
X136478636Y-130853324D01*
X136472199Y-130880811D01*
X136468047Y-130947672D01*
X136325457Y-130947672D01*
X136331584Y-130865228D01*
X136348819Y-130799159D01*
X136375024Y-130748535D01*
X136409577Y-130710266D01*
X136453216Y-130682504D01*
X136507935Y-130664863D01*
X136576735Y-130658489D01*
X136805896Y-130658489D01*
X136805896Y-131655000D01*
G37*
G36*
X136209944Y-131655000D02*
G01*
X136209944Y-130658489D01*
X135783984Y-130658489D01*
X135783984Y-130791357D01*
X136067123Y-130791357D01*
X136067123Y-131096172D01*
X135821109Y-131096172D01*
X135821109Y-131229040D01*
X136067123Y-131229040D01*
X136067123Y-131655000D01*
X136209944Y-131655000D01*
G37*
G36*
X135711688Y-131655000D02*
G01*
X135711688Y-131520483D01*
X135455416Y-131033951D01*
X135439512Y-130998014D01*
X135433129Y-130970143D01*
X135430321Y-130902121D01*
X135430321Y-130863592D01*
X135432158Y-130844021D01*
X135437342Y-130827749D01*
X135446026Y-130813643D01*
X135458347Y-130801859D01*
X135474367Y-130794280D01*
X135498892Y-130791357D01*
X135528431Y-130796149D01*
X135550000Y-130809553D01*
X135563782Y-130830948D01*
X135568867Y-130862798D01*
X135568867Y-130944192D01*
X135711688Y-130944192D01*
X135711688Y-130865668D01*
X135707456Y-130821988D01*
X135694958Y-130781587D01*
X135675007Y-130744670D01*
X135648918Y-130712894D01*
X135618441Y-130686595D01*
X135581934Y-130665938D01*
X135541677Y-130652839D01*
X135498220Y-130648414D01*
X135445077Y-130653789D01*
X135402660Y-130668747D01*
X135366107Y-130692817D01*
X135336348Y-130724129D01*
X135314731Y-130761276D01*
X135299406Y-130804057D01*
X135290537Y-130849845D01*
X135287500Y-130899373D01*
X135287500Y-130960373D01*
X135291713Y-131007329D01*
X135305818Y-131052208D01*
X135332562Y-131106857D01*
X135543649Y-131512056D01*
X135285729Y-131512056D01*
X135285729Y-131655000D01*
X135711688Y-131655000D01*
G37*
G36*
X134911549Y-131655000D02*
G01*
X134717315Y-131655000D01*
X134646902Y-131649788D01*
X134591415Y-131635540D01*
X134547889Y-131613679D01*
X134514043Y-131584658D01*
X134487558Y-131547990D01*
X134467740Y-131503189D01*
X134455003Y-131448577D01*
X134450418Y-131382058D01*
X134450418Y-131342491D01*
X134583286Y-131342491D01*
X134586095Y-131410329D01*
X134591544Y-131439916D01*
X134601543Y-131464002D01*
X134617054Y-131483993D01*
X134638790Y-131499356D01*
X134666060Y-131508486D01*
X134706934Y-131512056D01*
X134768728Y-131512056D01*
X134768728Y-131189961D01*
X134705530Y-131189961D01*
X134668232Y-131192522D01*
X134642332Y-131199120D01*
X134620784Y-131211039D01*
X134604352Y-131228124D01*
X134594032Y-131249383D01*
X134587500Y-131276118D01*
X134583286Y-131342491D01*
X134450418Y-131342491D01*
X134450418Y-131325760D01*
X134453463Y-131272491D01*
X134461680Y-131231056D01*
X134473988Y-131199181D01*
X134492456Y-131170869D01*
X134516650Y-131147557D01*
X134547322Y-131128839D01*
X134504189Y-131097354D01*
X134475331Y-131062039D01*
X134464666Y-131039908D01*
X134456707Y-131013312D01*
X134452137Y-130983903D01*
X134450418Y-130945169D01*
X134450418Y-130925324D01*
X134583286Y-130925324D01*
X134586501Y-130970475D01*
X134595081Y-131004300D01*
X134607894Y-131029310D01*
X134627328Y-131047746D01*
X134657868Y-131060110D01*
X134704125Y-131064909D01*
X134768728Y-131064909D01*
X134768728Y-130791357D01*
X134709743Y-130791357D01*
X134663160Y-130795850D01*
X134631545Y-130807501D01*
X134610703Y-130824818D01*
X134596372Y-130848716D01*
X134586852Y-130881334D01*
X134583286Y-130925324D01*
X134450418Y-130925324D01*
X134450418Y-130908960D01*
X134453773Y-130860928D01*
X134463729Y-130815048D01*
X134481387Y-130772337D01*
X134507693Y-130734998D01*
X134542234Y-130704113D01*
X134586706Y-130679371D01*
X134637969Y-130664071D01*
X134703332Y-130658489D01*
X134911549Y-130658489D01*
X134911549Y-131655000D01*
G37*
G36*
X134323412Y-131655000D02*
G01*
X134323412Y-130943764D01*
X134180591Y-130943764D01*
X134180591Y-131019785D01*
X134136384Y-130984080D01*
X134095106Y-130958358D01*
X134049778Y-130941926D01*
X133991242Y-130935949D01*
X133991242Y-131087318D01*
X134012676Y-131080992D01*
X134034717Y-131078892D01*
X134083138Y-131086646D01*
X134107777Y-131096924D01*
X134130094Y-131112536D01*
X134150189Y-131133237D01*
X134166608Y-131160225D01*
X134176832Y-131191809D01*
X134180591Y-131233070D01*
X134180591Y-131655000D01*
X134323412Y-131655000D01*
G37*
G36*
X133777438Y-130939302D02*
G01*
X133815154Y-130948809D01*
X133847566Y-130963975D01*
X133889211Y-130996680D01*
X133919740Y-131038225D01*
X133932497Y-131067727D01*
X133940744Y-131102583D01*
X133946301Y-131182451D01*
X133946301Y-131416313D01*
X133940744Y-131496181D01*
X133932497Y-131531037D01*
X133919740Y-131560539D01*
X133889214Y-131602096D01*
X133847566Y-131634849D01*
X133815158Y-131649981D01*
X133777442Y-131659469D01*
X133733321Y-131662815D01*
X133685985Y-131658471D01*
X133645088Y-131646024D01*
X133608428Y-131625945D01*
X133577800Y-131599862D01*
X133546363Y-131558473D01*
X133527121Y-131508921D01*
X133520341Y-131448859D01*
X133663162Y-131448859D01*
X133668468Y-131472169D01*
X133679282Y-131496242D01*
X133690251Y-131508687D01*
X133707398Y-131516774D01*
X133733260Y-131519872D01*
X133762964Y-131515087D01*
X133784551Y-131501737D01*
X133798444Y-131480610D01*
X133803480Y-131450263D01*
X133803480Y-131354092D01*
X133520341Y-131354092D01*
X133520341Y-131159858D01*
X133663162Y-131159858D01*
X133663162Y-131240764D01*
X133803480Y-131240764D01*
X133803480Y-131159858D01*
X133798260Y-131122930D01*
X133784551Y-131099164D01*
X133762780Y-131084166D01*
X133733260Y-131078892D01*
X133703846Y-131084161D01*
X133682091Y-131099164D01*
X133668383Y-131122930D01*
X133663162Y-131159858D01*
X133520341Y-131159858D01*
X133520341Y-131157660D01*
X133526895Y-131096171D01*
X133545654Y-131043980D01*
X133576395Y-130999085D01*
X133607132Y-130972981D01*
X133644356Y-130952801D01*
X133685888Y-130940291D01*
X133733321Y-130935949D01*
X133777438Y-130939302D01*
G37*
G36*
X133264616Y-130940124D02*
G01*
X133305591Y-130952069D01*
X133342325Y-130971350D01*
X133372880Y-130996215D01*
X133405731Y-131038602D01*
X133427307Y-131089279D01*
X133437421Y-131150333D01*
X133298813Y-131150333D01*
X133287322Y-131118840D01*
X133268527Y-131097088D01*
X133243937Y-131083388D01*
X133217175Y-131078892D01*
X133191136Y-131081956D01*
X133173103Y-131090084D01*
X133160877Y-131102705D01*
X133149496Y-131128723D01*
X133145368Y-131162972D01*
X133145368Y-131237161D01*
X133166434Y-131235757D01*
X133183286Y-131234352D01*
X133198735Y-131232948D01*
X133214122Y-131232948D01*
X133278363Y-131237010D01*
X133325069Y-131247663D01*
X133364771Y-131266529D01*
X133393885Y-131291810D01*
X133416048Y-131325641D01*
X133430399Y-131368136D01*
X133437603Y-131415505D01*
X133440230Y-131473771D01*
X133436165Y-131529590D01*
X133425514Y-131569698D01*
X133407825Y-131603370D01*
X133386863Y-131626423D01*
X133361972Y-131644339D01*
X133337037Y-131655061D01*
X133285807Y-131662815D01*
X133237590Y-131657075D01*
X133205024Y-131641994D01*
X133177511Y-131617767D01*
X133148176Y-131582215D01*
X133145368Y-131582215D01*
X133145368Y-131654450D01*
X133002547Y-131654450D01*
X133002547Y-131350490D01*
X133145368Y-131350490D01*
X133145368Y-131446905D01*
X133150921Y-131486729D01*
X133165823Y-131514010D01*
X133189680Y-131531579D01*
X133222793Y-131537763D01*
X133254449Y-131531313D01*
X133277686Y-131512606D01*
X133292176Y-131484559D01*
X133297409Y-131446905D01*
X133293145Y-131410318D01*
X133281856Y-131385039D01*
X133264375Y-131367953D01*
X133228741Y-131351917D01*
X133184813Y-131346277D01*
X133145368Y-131350490D01*
X133002547Y-131350490D01*
X133002547Y-131160041D01*
X133006990Y-131106224D01*
X133019399Y-131062039D01*
X133039419Y-131022899D01*
X133064279Y-130991941D01*
X133096109Y-130967535D01*
X133133033Y-130949993D01*
X133173324Y-130939523D01*
X133217175Y-130935949D01*
X133264616Y-130940124D01*
G37*
G36*
X132898988Y-131655000D02*
G01*
X132898988Y-130658489D01*
X132756167Y-130658489D01*
X132756167Y-131253770D01*
X132753419Y-131253770D01*
X132581167Y-130943764D01*
X132438407Y-130943764D01*
X132607789Y-131232765D01*
X132403419Y-131655000D01*
X132558818Y-131655000D01*
X132687595Y-131347803D01*
X132756167Y-131455819D01*
X132756167Y-131655000D01*
X132898988Y-131655000D01*
G37*
G36*
X132214284Y-130939302D02*
G01*
X132252000Y-130948809D01*
X132284412Y-130963975D01*
X132326057Y-130996680D01*
X132356585Y-131038225D01*
X132369343Y-131067727D01*
X132377590Y-131102583D01*
X132383147Y-131182451D01*
X132383147Y-131416313D01*
X132377590Y-131496181D01*
X132369343Y-131531037D01*
X132356585Y-131560539D01*
X132326059Y-131602096D01*
X132284412Y-131634849D01*
X132252004Y-131649981D01*
X132214288Y-131659469D01*
X132170167Y-131662815D01*
X132126088Y-131659469D01*
X132088413Y-131649981D01*
X132056045Y-131634849D01*
X132014347Y-131602092D01*
X131983810Y-131560539D01*
X131971052Y-131531037D01*
X131962805Y-131496181D01*
X131957187Y-131416313D01*
X131957187Y-131182451D01*
X131958759Y-131160102D01*
X132100008Y-131160102D01*
X132100008Y-131438722D01*
X132105230Y-131475768D01*
X132118937Y-131499600D01*
X132140692Y-131514603D01*
X132170106Y-131519872D01*
X132199625Y-131514598D01*
X132221397Y-131499600D01*
X132235104Y-131475768D01*
X132240326Y-131438722D01*
X132240326Y-131160102D01*
X132235104Y-131123057D01*
X132221397Y-131099225D01*
X132199620Y-131084180D01*
X132170106Y-131078892D01*
X132140697Y-131084175D01*
X132118937Y-131099225D01*
X132105230Y-131123057D01*
X132100008Y-131160102D01*
X131958759Y-131160102D01*
X131962805Y-131102583D01*
X131971052Y-131067727D01*
X131983810Y-131038225D01*
X132014349Y-130996684D01*
X132056045Y-130963975D01*
X132088417Y-130948809D01*
X132126091Y-130939302D01*
X132170167Y-130935949D01*
X132214284Y-130939302D01*
G37*
G36*
X131427669Y-130943764D02*
G01*
X131427669Y-131655000D01*
X131570490Y-131655000D01*
X131570490Y-131586001D01*
X131573237Y-131586001D01*
X131597986Y-131616738D01*
X131626971Y-131641200D01*
X131661451Y-131657062D01*
X131707205Y-131662815D01*
X131733473Y-131660573D01*
X131760144Y-131653717D01*
X131785092Y-131641700D01*
X131807588Y-131623553D01*
X131826079Y-131600151D01*
X131841111Y-131569637D01*
X131850248Y-131534565D01*
X131853628Y-131488975D01*
X131853628Y-130943764D01*
X131710807Y-130943764D01*
X131710807Y-131435792D01*
X131705916Y-131472079D01*
X131692733Y-131497463D01*
X131671342Y-131514050D01*
X131641320Y-131519872D01*
X131615806Y-131516678D01*
X131597981Y-131508132D01*
X131585755Y-131494654D01*
X131574809Y-131466122D01*
X131570490Y-131421748D01*
X131570490Y-130943764D01*
X131427669Y-130943764D01*
G37*
G36*
X131307684Y-130943764D02*
G01*
X131307684Y-130728831D01*
X131164863Y-130728831D01*
X131164863Y-130943764D01*
X131078890Y-130943764D01*
X131078890Y-131057093D01*
X131164863Y-131057093D01*
X131164863Y-131451912D01*
X131160101Y-131491235D01*
X131153666Y-131503712D01*
X131144408Y-131512362D01*
X131117786Y-131520727D01*
X131078890Y-131522131D01*
X131078890Y-131655000D01*
X131137142Y-131655000D01*
X131183201Y-131650853D01*
X131218230Y-131639612D01*
X131248057Y-131621726D01*
X131270254Y-131600411D01*
X131287037Y-131575099D01*
X131298709Y-131546495D01*
X131305506Y-131516456D01*
X131307684Y-131488365D01*
X131307684Y-131057093D01*
X131379797Y-131057093D01*
X131379797Y-130943764D01*
X131307684Y-130943764D01*
G37*
G36*
X130328698Y-130943764D02*
G01*
X130513529Y-131655000D01*
X130639497Y-131655000D01*
X130824328Y-130943764D01*
X130673142Y-130943764D01*
X130577948Y-131398300D01*
X130575139Y-131398300D01*
X130479945Y-130943764D01*
X130328698Y-130943764D01*
G37*
G36*
X130114497Y-131076632D02*
G01*
X130056063Y-131071925D01*
X130026509Y-131061245D01*
X130014302Y-131048616D01*
X130005729Y-131026407D01*
X130002267Y-130989926D01*
X130002267Y-130861271D01*
X130007110Y-130832891D01*
X130021013Y-130810957D01*
X130042450Y-130796465D01*
X130071510Y-130791357D01*
X130104539Y-130797739D01*
X130124877Y-130815109D01*
X130137075Y-130839246D01*
X130140814Y-130861271D01*
X130140814Y-130942421D01*
X130283635Y-130942421D01*
X130283635Y-130859806D01*
X130279465Y-130817400D01*
X130267027Y-130777252D01*
X130247090Y-130740590D01*
X130221231Y-130710024D01*
X130189806Y-130684930D01*
X130153148Y-130665205D01*
X130113115Y-130652659D01*
X130069862Y-130648414D01*
X130014934Y-130654587D01*
X129973386Y-130671495D01*
X129938497Y-130695902D01*
X129915806Y-130718328D01*
X129891442Y-130751851D01*
X129874101Y-130792395D01*
X129865252Y-130844152D01*
X129861584Y-130929476D01*
X129861584Y-131013312D01*
X129863938Y-131043910D01*
X129870193Y-131066496D01*
X129882192Y-131087187D01*
X129898037Y-131104232D01*
X129947374Y-131137754D01*
X129916193Y-131159328D01*
X129896083Y-131177138D01*
X129880754Y-131196759D01*
X129870071Y-131219209D01*
X129863847Y-131245784D01*
X129861584Y-131278866D01*
X129861584Y-131366610D01*
X129861584Y-131448065D01*
X129865797Y-131501371D01*
X129877032Y-131539289D01*
X129895228Y-131571591D01*
X129925468Y-131607423D01*
X129963311Y-131636864D01*
X129992018Y-131650670D01*
X130027686Y-131659585D01*
X130071938Y-131662815D01*
X130105914Y-131660119D01*
X130143440Y-131651580D01*
X130179504Y-131636809D01*
X130212133Y-131615005D01*
X130239969Y-131586448D01*
X130263363Y-131549059D01*
X130278225Y-131505419D01*
X130283635Y-131449347D01*
X130283635Y-131367831D01*
X130140814Y-131367831D01*
X130140814Y-131442447D01*
X130135945Y-131473851D01*
X130122130Y-131498073D01*
X130100445Y-131514274D01*
X130071510Y-131519872D01*
X130042640Y-131514274D01*
X130021013Y-131498073D01*
X130007253Y-131473478D01*
X130002267Y-131439638D01*
X130002267Y-131296024D01*
X130005463Y-131257019D01*
X130013377Y-131232776D01*
X130024433Y-131218599D01*
X130038598Y-131209656D01*
X130058382Y-131204494D01*
X130114497Y-131201685D01*
X130114497Y-131076632D01*
G37*
G36*
X137584316Y-130435000D02*
G01*
X137584316Y-128441978D01*
X137298674Y-128441978D01*
X137298674Y-130435000D01*
X137584316Y-130435000D01*
G37*
G36*
X137021580Y-130435000D02*
G01*
X136624808Y-130435000D01*
X136497553Y-130425537D01*
X136392687Y-130399148D01*
X136306172Y-130357806D01*
X136234874Y-130302009D01*
X136178983Y-130231936D01*
X136136797Y-130142878D01*
X136109334Y-130030489D01*
X136099319Y-129889239D01*
X136099319Y-128957086D01*
X136099471Y-128955010D01*
X136384961Y-128955010D01*
X136384961Y-129919159D01*
X136391624Y-130004183D01*
X136409170Y-130065461D01*
X136435153Y-130108813D01*
X136472975Y-130140528D01*
X136527581Y-130161378D01*
X136605024Y-130169263D01*
X136735938Y-130169263D01*
X136735938Y-128707714D01*
X136605024Y-128707714D01*
X136524185Y-128716247D01*
X136469018Y-128738558D01*
X136432344Y-128772316D01*
X136398045Y-128845672D01*
X136384961Y-128955010D01*
X136099471Y-128955010D01*
X136108342Y-128833844D01*
X136133561Y-128731669D01*
X136173135Y-128646838D01*
X136226570Y-128576434D01*
X136294029Y-128519902D01*
X136376418Y-128478162D01*
X136476870Y-128451537D01*
X136599528Y-128441978D01*
X137021580Y-128441978D01*
X137021580Y-130435000D01*
G37*
G36*
X135829675Y-130435000D02*
G01*
X135829675Y-128441978D01*
X134977756Y-128441978D01*
X134977756Y-128707714D01*
X135544033Y-128707714D01*
X135544033Y-129293897D01*
X135052006Y-129293897D01*
X135052006Y-129559633D01*
X135544033Y-129559633D01*
X135544033Y-130149113D01*
X134977756Y-130149113D01*
X134977756Y-130435000D01*
X135829675Y-130435000D01*
G37*
G36*
X134801901Y-130435000D02*
G01*
X134801901Y-128441978D01*
X134530181Y-128441978D01*
X134090666Y-129642798D01*
X134090666Y-128441978D01*
X133805024Y-128441978D01*
X133805024Y-130435000D01*
X134071249Y-130435000D01*
X134516259Y-129236988D01*
X134516259Y-130435000D01*
X134801901Y-130435000D01*
G37*
G36*
X133360258Y-130435000D02*
G01*
X133360258Y-128707714D01*
X133692062Y-128707714D01*
X133692062Y-128441978D01*
X132746353Y-128441978D01*
X132746353Y-128707714D01*
X133074616Y-128707714D01*
X133074616Y-130435000D01*
X133360258Y-130435000D01*
G37*
G36*
X132615439Y-130435000D02*
G01*
X132615439Y-128441978D01*
X132329797Y-128441978D01*
X132329797Y-130435000D01*
X132615439Y-130435000D01*
G37*
G36*
X132052704Y-130435000D02*
G01*
X131655931Y-130435000D01*
X131528676Y-130425537D01*
X131423811Y-130399148D01*
X131337295Y-130357806D01*
X131265997Y-130302009D01*
X131210107Y-130231936D01*
X131167920Y-130142878D01*
X131140458Y-130030489D01*
X131130443Y-129889239D01*
X131130443Y-128957086D01*
X131130595Y-128955010D01*
X131416085Y-128955010D01*
X131416085Y-129919159D01*
X131422748Y-130004183D01*
X131440294Y-130065461D01*
X131466277Y-130108813D01*
X131504099Y-130140528D01*
X131558705Y-130161378D01*
X131636147Y-130169263D01*
X131767062Y-130169263D01*
X131767062Y-128707714D01*
X131636147Y-128707714D01*
X131555309Y-128716247D01*
X131500141Y-128738558D01*
X131463468Y-128772316D01*
X131429168Y-128845672D01*
X131416085Y-128955010D01*
X131130595Y-128955010D01*
X131139466Y-128833844D01*
X131164685Y-128731669D01*
X131204259Y-128646838D01*
X131257693Y-128576434D01*
X131325153Y-128519902D01*
X131407541Y-128478162D01*
X131507994Y-128451537D01*
X131630652Y-128441978D01*
X132052704Y-128441978D01*
X132052704Y-130435000D01*
G37*
G36*
X130860799Y-130435000D02*
G01*
X130860799Y-128441978D01*
X130008879Y-128441978D01*
X130008879Y-128707714D01*
X130575157Y-128707714D01*
X130575157Y-129293897D01*
X130083129Y-129293897D01*
X130083129Y-129559633D01*
X130575157Y-129559633D01*
X130575157Y-130149113D01*
X130008879Y-130149113D01*
X130008879Y-130435000D01*
X130860799Y-130435000D01*
G37*
G36*
X129825209Y-130435000D02*
G01*
X129825209Y-128441978D01*
X129553489Y-128441978D01*
X129184682Y-129497229D01*
X129179064Y-129497229D01*
X128812822Y-128441978D01*
X128535607Y-128441978D01*
X128535607Y-130435000D01*
X128821249Y-130435000D01*
X128821249Y-129222944D01*
X128826866Y-129222944D01*
X129111409Y-130079504D01*
X129255024Y-130079504D01*
X129539567Y-129222944D01*
X129539567Y-130435000D01*
X129825209Y-130435000D01*
G37*
G36*
X128285502Y-130435000D02*
G01*
X128285502Y-130149113D01*
X127999860Y-130149113D01*
X127999860Y-130435000D01*
X128285502Y-130435000D01*
G37*
G36*
X127202285Y-129142588D02*
G01*
X127255258Y-129079856D01*
X127315858Y-129034755D01*
X127385395Y-129006598D01*
X127465823Y-128996898D01*
X127564287Y-129007245D01*
X127625680Y-129033290D01*
X127691351Y-129087694D01*
X127734729Y-129156493D01*
X127757327Y-129243339D01*
X127765753Y-129470240D01*
X127765753Y-130010872D01*
X127754640Y-130198572D01*
X127739335Y-130265042D01*
X127718248Y-130316175D01*
X127677324Y-130374279D01*
X127624249Y-130415451D01*
X127556616Y-130441298D01*
X127470097Y-130450631D01*
X127378018Y-130439518D01*
X127308286Y-130408866D01*
X127252477Y-130363070D01*
X127199476Y-130306039D01*
X127199476Y-130435000D01*
X126913834Y-130435000D01*
X126913834Y-129437023D01*
X127199476Y-129437023D01*
X127199476Y-129989256D01*
X127209788Y-130062265D01*
X127238433Y-130116873D01*
X127283379Y-130153531D01*
X127341137Y-130165844D01*
X127386399Y-130159502D01*
X127420695Y-130141811D01*
X127446772Y-130112599D01*
X127471059Y-130053867D01*
X127480111Y-129972404D01*
X127480111Y-129451067D01*
X127472580Y-129386928D01*
X127451046Y-129333342D01*
X127427359Y-129306366D01*
X127392185Y-129289222D01*
X127341137Y-129282784D01*
X127285071Y-129293736D01*
X127239776Y-129326259D01*
X127209882Y-129374787D01*
X127199476Y-129437023D01*
X126913834Y-129437023D01*
X126913834Y-128441978D01*
X127202285Y-128441978D01*
X127202285Y-129142588D01*
G37*
G36*
X126363129Y-129003604D02*
G01*
X126438561Y-129022619D01*
X126503384Y-129052951D01*
X126586674Y-129118360D01*
X126647732Y-129201451D01*
X126673247Y-129260454D01*
X126689741Y-129330167D01*
X126700854Y-129489902D01*
X126700854Y-129957627D01*
X126689741Y-130117362D01*
X126673247Y-130187074D01*
X126647732Y-130246078D01*
X126586679Y-130329193D01*
X126503384Y-130394699D01*
X126438569Y-130424963D01*
X126363136Y-130443938D01*
X126274895Y-130450631D01*
X126180222Y-130441942D01*
X126098429Y-130417048D01*
X126025109Y-130376891D01*
X125963852Y-130324724D01*
X125900978Y-130241947D01*
X125862495Y-130142843D01*
X125848935Y-130022718D01*
X126134577Y-130022718D01*
X126145188Y-130069338D01*
X126166817Y-130117484D01*
X126188755Y-130142374D01*
X126223049Y-130158549D01*
X126274773Y-130164745D01*
X126334180Y-130155174D01*
X126377355Y-130128475D01*
X126405141Y-130086221D01*
X126415212Y-130025526D01*
X126415212Y-129833185D01*
X125848935Y-129833185D01*
X125848935Y-129444717D01*
X126134577Y-129444717D01*
X126134577Y-129606528D01*
X126415212Y-129606528D01*
X126415212Y-129444717D01*
X126404772Y-129370860D01*
X126377355Y-129323328D01*
X126333812Y-129293333D01*
X126274773Y-129282784D01*
X126215945Y-129293322D01*
X126172435Y-129323328D01*
X126145018Y-129370860D01*
X126134577Y-129444717D01*
X125848935Y-129444717D01*
X125848935Y-129440321D01*
X125862042Y-129317342D01*
X125899559Y-129212960D01*
X125961043Y-129123171D01*
X126022517Y-129070962D01*
X126096964Y-129030603D01*
X126180027Y-129005582D01*
X126274895Y-128996898D01*
X126363129Y-129003604D01*
G37*
G36*
X125125976Y-129409180D02*
G01*
X125137546Y-129343113D01*
X125169207Y-129299270D01*
X125215577Y-129271761D01*
X125268126Y-129262634D01*
X125328418Y-129273984D01*
X125371196Y-129306109D01*
X125398322Y-129352800D01*
X125407344Y-129405760D01*
X125402526Y-129444454D01*
X125387683Y-129483185D01*
X125357294Y-129515936D01*
X125286444Y-129551817D01*
X125117794Y-129619228D01*
X125016860Y-129668669D01*
X124945296Y-129724948D01*
X124897243Y-129787878D01*
X124863727Y-129861029D01*
X124843608Y-129938345D01*
X124836793Y-130021008D01*
X124845019Y-130108352D01*
X124869155Y-130188070D01*
X124907546Y-130260911D01*
X124957693Y-130324235D01*
X125019103Y-130376615D01*
X125092637Y-130416926D01*
X125173989Y-130442034D01*
X125264218Y-130450631D01*
X125376050Y-130438078D01*
X125472289Y-130401851D01*
X125556454Y-130341821D01*
X125609442Y-130283093D01*
X125652198Y-130209563D01*
X125679140Y-130125688D01*
X125688712Y-130024183D01*
X125421144Y-130024183D01*
X125406575Y-130081240D01*
X125379867Y-130134214D01*
X125354061Y-130161297D01*
X125317038Y-130178489D01*
X125264706Y-130184895D01*
X125205470Y-130174792D01*
X125152355Y-130144228D01*
X125115404Y-130096325D01*
X125102529Y-130030411D01*
X125110495Y-129974887D01*
X125133426Y-129929417D01*
X125173212Y-129892573D01*
X125245900Y-129856266D01*
X125383653Y-129805708D01*
X125469053Y-129765506D01*
X125539083Y-129715520D01*
X125595778Y-129655621D01*
X125638121Y-129585590D01*
X125664047Y-129505401D01*
X125673080Y-129412477D01*
X125664582Y-129325202D01*
X125639619Y-129245537D01*
X125599638Y-129173226D01*
X125547418Y-129112058D01*
X125486993Y-129062685D01*
X125416381Y-129026451D01*
X125338799Y-129004403D01*
X125254448Y-128996898D01*
X125170263Y-129004710D01*
X125093981Y-129027550D01*
X125024887Y-129064671D01*
X124966852Y-129113890D01*
X124919804Y-129174251D01*
X124883199Y-129246270D01*
X124860203Y-129324835D01*
X124852424Y-129409180D01*
X125125976Y-129409180D01*
G37*
G36*
X124657030Y-130435000D02*
G01*
X124657030Y-129012529D01*
X124371388Y-129012529D01*
X124371388Y-130435000D01*
X124657030Y-130435000D01*
G37*
G36*
X124657030Y-128727864D02*
G01*
X124657030Y-128441978D01*
X124371388Y-128441978D01*
X124371388Y-128727864D01*
X124657030Y-128727864D01*
G37*
G36*
X123936796Y-129011154D02*
G01*
X123997819Y-129037198D01*
X124063179Y-129091640D01*
X124106369Y-129160478D01*
X124128855Y-129247369D01*
X124137281Y-129474270D01*
X124137281Y-130015268D01*
X124126168Y-130202969D01*
X124110854Y-130269529D01*
X124089776Y-130320572D01*
X124048844Y-130378737D01*
X123995765Y-130419944D01*
X123928134Y-130445810D01*
X123841625Y-130455150D01*
X123759015Y-130445396D01*
X123689462Y-130417414D01*
X123629206Y-130372234D01*
X123576500Y-130309459D01*
X123571004Y-130309459D01*
X123571004Y-130589239D01*
X123579195Y-130652090D01*
X123601901Y-130699759D01*
X123640645Y-130731440D01*
X123702896Y-130743112D01*
X123768662Y-130731284D01*
X123813782Y-130698415D01*
X123842534Y-130651374D01*
X123851639Y-130603283D01*
X124137281Y-130603283D01*
X124114670Y-130722232D01*
X124080006Y-130809057D01*
X124031187Y-130882087D01*
X123975226Y-130936552D01*
X123913350Y-130979788D01*
X123846755Y-131007871D01*
X123777244Y-131023882D01*
X123712665Y-131028998D01*
X123606002Y-131018993D01*
X123520080Y-130991140D01*
X123445203Y-130946750D01*
X123385868Y-130891612D01*
X123340127Y-130828753D01*
X123309176Y-130758377D01*
X123291219Y-130683863D01*
X123285362Y-130611221D01*
X123285362Y-129462791D01*
X123571004Y-129462791D01*
X123571004Y-130015146D01*
X123581410Y-130077383D01*
X123611304Y-130125910D01*
X123656590Y-130158337D01*
X123712665Y-130169263D01*
X123763726Y-130162837D01*
X123798898Y-130145730D01*
X123822575Y-130118827D01*
X123844108Y-130065242D01*
X123851639Y-130001102D01*
X123851639Y-129479521D01*
X123842591Y-129398165D01*
X123818300Y-129339448D01*
X123792214Y-129310162D01*
X123757917Y-129292434D01*
X123712665Y-129286081D01*
X123654918Y-129298420D01*
X123609961Y-129335174D01*
X123581316Y-129389782D01*
X123571004Y-129462791D01*
X123285362Y-129462791D01*
X123285362Y-129016437D01*
X123571004Y-129016437D01*
X123571004Y-129145642D01*
X123624005Y-129088611D01*
X123679815Y-129042571D01*
X123748203Y-129012041D01*
X123838817Y-129000806D01*
X123936796Y-129011154D01*
G37*
G36*
X123048935Y-130435000D02*
G01*
X123048935Y-129012529D01*
X122763293Y-129012529D01*
X122763293Y-129150526D01*
X122757798Y-129150526D01*
X122708331Y-129089144D01*
X122650453Y-129040251D01*
X122581381Y-129008430D01*
X122489863Y-128996898D01*
X122437326Y-129001383D01*
X122383984Y-129015094D01*
X122334101Y-129039058D01*
X122289096Y-129075422D01*
X122252148Y-129122249D01*
X122222173Y-129183377D01*
X122203809Y-129253406D01*
X122197016Y-129344455D01*
X122197016Y-130435000D01*
X122482658Y-130435000D01*
X122482658Y-129451067D01*
X122492440Y-129378492D01*
X122518806Y-129327725D01*
X122561600Y-129294456D01*
X122621632Y-129282784D01*
X122672648Y-129289184D01*
X122708301Y-129306314D01*
X122732763Y-129333342D01*
X122754658Y-129390393D01*
X122763293Y-129479033D01*
X122763293Y-130435000D01*
X123048935Y-130435000D01*
G37*
M02*
